{
.formatVersion = 3;
DisplayStrings = (
"/uni1362.vs16"
);
familyName = "ዋልድባ - ጅረት";
customParameters = (
{
name = glyphOrder;
value = (
.notdef,
NULL,
uni000D,
space,
exclam,
quotedbl,
numbersign,
dollar,
percent,
ampersand,
quotesingle,
parenleft,
parenright,
asterisk,
plus,
comma,
hyphen,
period,
slash,
zero,
one,
two,
three,
four,
five,
six,
seven,
eight,
nine,
colon,
semicolon,
less,
equal,
greater,
question,
at,
A,
B,
C,
D,
E,
F,
G,
H,
I,
J,
K,
L,
M,
N,
O,
P,
Q,
R,
S,
T,
U,
V,
W,
X,
Y,
Z,
bracketleft,
backslash,
bracketright,
asciicircum,
underscore,
grave,
a,
b,
c,
d,
e,
f,
g,
h,
i,
j,
k,
l,
m,
n,
o,
p,
q,
r,
s,
t,
u,
v,
w,
x,
y,
z,
braceleft,
bar,
braceright,
asciitilde,
exclamdown,
cent,
sterling,
currency,
yen,
brokenbar,
section,
dieresis,
copyright,
ordfeminine,
guillemotleft,
logicalnot,
registered,
macron,
degree,
plusminus,
twosuperior,
threesuperior,
acute,
mu,
paragraph,
periodcentered,
cedilla,
onesuperior,
ordmasculine,
guillemotright,
onequarter,
onehalf,
threequarters,
questiondown,
Agrave,
Aacute,
Acircumflex,
Atilde,
Adieresis,
Aring,
AE,
Ccedilla,
Egrave,
Eacute,
Ecircumflex,
Edieresis,
Igrave,
Iacute,
Icircumflex,
Idieresis,
Eth,
Ntilde,
Ograve,
Oacute,
Ocircumflex,
Otilde,
Odieresis,
multiply,
Oslash,
Ugrave,
Uacute,
Ucircumflex,
Udieresis,
Yacute,
Thorn,
germandbls,
agrave,
aacute,
acircumflex,
atilde,
adieresis,
aring,
ae,
ccedilla,
egrave,
eacute,
ecircumflex,
edieresis,
igrave,
iacute,
icircumflex,
idieresis,
eth,
ntilde,
ograve,
oacute,
ocircumflex,
otilde,
odieresis,
divide,
oslash,
ugrave,
uacute,
ucircumflex,
udieresis,
yacute,
thorn,
ydieresis,
OE,
oe,
Scaron,
scaron,
Ydieresis,
Zcaron,
zcaron,
florin,
circumflex,
tilde,
uni1200,
uni1201,
uni1202,
uni1203,
uni1204,
uni1205,
uni1206,
uni1208,
uni1209,
uni120A,
uni120B,
uni120C,
uni120D,
uni120E,
uni120F,
uni1210,
uni1211,
uni1212,
uni1213,
uni1214,
uni1215,
uni1216,
uni1217,
uni1218,
uni1219,
uni121A,
uni121B,
uni121C,
uni121D,
uni121E,
uni121F,
uni1220,
uni1221,
uni1222,

glyphs = (
{
glyphname = exclam;
layers = (
{
layerId = "F8A84F20-7B7B-45F5-903D-B244657892CC";
shapes = (
{
closed = 1;
nodes = (
(637.641,444.277,l),
(596.206,1314.41,l),
(787.268,1314.41,l),
(743.53,444.277,l)
);
},
{
closed = 1;
nodes = (
(759.644,244.007,o),
(849.42,161.137,o),
(849.42,101.286,q),
(849.42,41.435,o),
(757.342,-39.133,o),
(690.586,-39.133,q),
(623.829,-39.133,o),
(531.751,43.737,o),
(531.751,103.588,q),
(531.751,163.439,o),
(623.829,244.007,o),
(690.586,244.007,q)
);
}
);
width = 1381;
}
);
unicode = 33;
},
{
glyphname = quotedbl;
layers = (
{
layerId = "F8A84F20-7B7B-45F5-903D-B244657892CC";
shapes = (
{
closed = 1;
nodes = (
(557.072,649.15,l),
(386.728,649.15,l),
(361.406,1296,l),
(580.092,1296,l)
);
},
{
closed = 1;
nodes = (
(994.443,649.15,l),
(824.099,649.15,l),
(801.079,1296,l),
(1019.76,1296,l)
);
}
);
width = 1381;
}
);
unicode = 34;
},
{
glyphname = numbersign;
layers = (
{
layerId = "F8A84F20-7B7B-45F5-903D-B244657892CC";
shapes = (
{
closed = 1;
nodes = (
(543.261,1045.09,l),
(877.044,1045.09,l),
(904.667,1516.99,l),
(1012.86,1516.99,l),
(985.235,1045.09,l),
(1201.62,1045.09,l),
(1201.62,895.459,l),
(978.33,895.459,l),
(955.31,511.033,l),
(1201.62,511.033,l),
(1201.62,361.406,l),
(948.404,361.406,l),
(920.781,-131.211,l),
(812.589,-131.211,l),
(840.212,361.406,l),
(504.127,361.406,l),
(478.806,-131.211,l),
(370.614,-131.211,l),
(395.936,361.406,l),
(179.552,361.406,l),
(179.552,511.033,l),
(405.144,511.033,l),
(428.163,895.459,l),
(179.552,895.459,l),
(179.552,1045.09,l),
(435.069,1045.09,l),
(462.692,1516.99,l),
(570.884,1516.99,l)
);
},
{
closed = 1;
nodes = (
(513.335,511.033,l),
(847.118,511.033,l),
(870.138,895.459,l),
(536.355,895.459,l)
);
}
);
width = 1381;
}
);
unicode = 35;
},
{
glyphname = dollar;
layers = (
{
layerId = "F8A84F20-7B7B-45F5-903D-B244657892CC";
shapes = (
{
closed = 1;
nodes = (
(1095.73,1259.17,l),
(1093.43,1236.15,o),
(1091.13,1183.2,o),
(1091.13,1148.67,q),
(1091.13,1038.18,o),
(1109.54,870.138,o),
(1116.45,812.589,q),
(1010.56,801.079,l),
(994.443,913.875,o),
(929.989,1049.69,o),
(854.024,1123.35,o),
(773.456,1150.98,o),
(741.229,1157.88,q),
(741.229,688.284,l),
(812.589,667.566,o),
(953.008,621.527,o),
(1063.5,550.167,o),
(1130.26,439.673,o),
(1130.26,356.803,q),
(1130.26,283.14,o),
(1070.41,170.344,o),
(964.518,87.474,o),
(821.797,39.133,o),
(741.229,32.227,q),
(741.229,-313.065,l),
(630.735,-313.065,l),
(630.735,32.227,l),
(612.319,32.227,o),
(582.394,34.529,o),
(540.959,46.039,o),
(483.41,62.153,o),
(439.673,75.964,q),
(414.351,85.172,o),
(393.634,87.474,o),
(389.03,87.474,q),
(366.01,87.474,o),
(359.105,59.851,o),
(356.803,20.718,q),
(248.611,20.718,l),
(255.517,147.325,o),
(241.705,352.199,o),
(225.591,467.296,q),
(333.783,467.296,l),
(340.689,428.163,o),
(368.312,324.575,o),
(430.465,227.893,o),
(540.959,154.231,o),
(630.735,142.721,q),
(630.735,600.809,l),
(573.186,616.923,o),
(444.277,658.358,o),
(336.085,732.021,o),
(264.724,847.118,o),
(264.724,936.894,q),
(264.724,1081.92,o),
(464.994,1256.87,o),
(630.735,1270.68,q),
(630.735,1510.08,l),
(741.229,1510.08,l),
(741.229,1270.68,l),
(819.495,1259.17,o),
(900.063,1222.34,q),
(929.989,1208.52,o),
(946.102,1201.62,o),
(955.31,1201.62,q),
(973.726,1201.62,o),
(982.934,1224.64,o),
(987.537,1259.17,q)
);
},
{
closed = 1;
nodes = (
(630.735,1160.18,l),
(603.111,1155.58,o),
(520.241,1137.16,o),
(441.975,1088.82,o),
(384.426,1008.25,o),
(384.426,941.498,q),
(384.426,886.252,o),
(428.163,814.891,o),
(497.222,766.55,o),
(584.696,734.323,o),
(630.735,720.511,q)
);
},
{
closed = 1;
nodes = (
(741.229,142.721,l),
(778.06,145.023,o),
(870.138,165.741,o),
(953.008,214.082,o),
(1010.56,294.65,o),
(1010.56,354.501,q),
(1010.56,407.446,o),
(962.216,478.806,o),
(886.252,527.147,o),
(789.57,559.374,o),
(741.229,573.186,q)
);
}
);
width = 1381;
}
);
unicode = 36;
},
{
glyphname = percent;
layers = (
{
layerId = "F8A84F20-7B7B-45F5-903D-B244657892CC";
shapes = (
{
closed = 1;
nodes = (
(1003.65,582.394,o),
(1125.65,527.147,o),
(1208.52,437.371,o),
(1249.96,326.877,o),
(1249.96,273.932,q),
(1249.96,218.685,o),
(1206.22,110.494,o),
(1123.35,23.02,o),
(1001.35,-32.227,o),
(923.083,-32.227,q),
(842.514,-32.227,o),
(722.813,23.02,o),
(639.943,112.796,o),
(598.508,220.987,o),
(598.508,273.932,q),
(598.508,324.575,o),
(639.943,435.069,o),
(720.511,524.845,o),
(842.514,582.394,o),
(923.083,582.394,q)
);
},
{
closed = 1;
nodes = (
(874.742,474.202,o),
(801.079,439.673,o),
(750.436,384.426,o),
(722.813,313.065,o),
(722.813,276.234,q),
(722.813,197.968,o),
(826.401,75.964,o),
(923.083,75.964,q),
(971.424,75.964,o),
(1047.39,110.494,o),
(1100.33,168.042,o),
(1125.65,239.403,o),
(1125.65,276.234,q),
(1125.65,310.764,o),
(1100.33,382.124,o),
(1049.69,439.673,o),
(973.726,474.202,o),
(923.083,474.202,q)
);
},
{
closed = 1;
nodes = (
(506.429,1413.4,o),
(628.433,1358.15,o),
(711.303,1268.38,o),
(755.04,1160.18,o),
(755.04,1104.94,q),
(755.04,1049.69,o),
(711.303,939.196,o),
(628.433,851.722,o),
(506.429,798.777,o),
(428.163,798.777,q),
(352.199,798.777,o),
(230.195,854.024,o),
(147.325,939.196,o),
(103.588,1049.69,o),
(103.588,1104.94,q),
(103.588,1157.88,o),
(145.023,1268.38,o),
(227.893,1358.15,o),
(347.595,1413.4,o),
(428.163,1413.4,q)
);
},
{
closed = 1;
nodes = (
(379.822,1305.21,o),
(303.858,1270.68,o),
(253.215,1213.13,o),
(227.893,1141.77,o),
(227.893,1104.94,q),
(227.893,1068.11,o),
(255.517,996.745,o),
(306.16,941.498,o),
(382.124,906.969,o),
(430.465,906.969,q),
(527.147,906.969,o),
(630.735,1026.67,o),
(630.735,1104.94,q),
(630.735,1180.9,o),
(527.147,1305.21,o),
(430.465,1305.21,q)
);
},
{
closed = 1;
nodes = (
(246.309,444.277,l),
(200.27,552.468,l),
(1134.86,966.82,l),
(1180.9,858.628,l)
);
}
);
width = 1381;
}
);
unicode = 37;
},
{
glyphname = ampersand;
layers = (
{
layerId = "F8A84F20-7B7B-45F5-903D-B244657892CC";
shapes = (
{
closed = 1;
nodes = (
(1217.73,536.355,l),
(1079.62,536.355,l),
(1038.18,414.351,o),
(978.33,287.744,o),
(959.914,255.517,q),
(1061.2,108.192,l),
(1233.85,108.192,l),
(1233.85,0,l),
(971.424,0,l),
(877.044,138.117,l),
(856.326,117.4,o),
(801.079,62.153,o),
(722.813,13.812,o),
(621.527,-18.416,o),
(559.374,-18.416,q),
(478.806,-18.416,o),
(354.501,39.133,o),
(269.328,135.815,o),
(225.591,255.517,o),
(225.591,317.669,q),
(225.591,435.069,o),
(368.312,642.245,o),
(499.524,690.586,q),
(499.524,697.491,o),
(490.316,706.699,q),
(451.183,764.248,o),
(402.842,837.911,o),
(375.218,897.761,o),
(366.01,948.404,o),
(366.01,980.632,q),
(366.01,1093.43,o),
(524.845,1243.05,o),
(662.962,1243.05,q),
(713.605,1243.05,o),
(801.079,1222.34,o),
(844.816,1203.92,q),
(893.157,1185.51,o),
(925.385,1178.6,o),
(939.196,1178.6,q),
(966.82,1178.6,o),
(1010.56,1192.41,o),
(1024.37,1197.02,q),
(918.479,1031.27,l),
(874.742,1063.5,o),
(750.436,1132.56,o),
(662.962,1132.56,q),
(614.621,1132.56,o),
(552.468,1104.94,o),
(515.637,1061.2,o),
(501.826,1010.56,o),
(501.826,989.839,q),
(501.826,948.404,o),
(547.865,867.836,o),
(591.602,803.381,q),
(890.855,359.105,l),
(911.573,402.842,o),
(936.894,458.088,o),
(957.612,513.335,o),
(980.632,584.696,o),
(999.047,644.547,q),
(1217.73,644.547,l)
);
},
{
closed = 1;
nodes = (
(561.676,607.715,l),
(529.449,593.904,o),
(464.994,547.865,o),
(412.049,483.41,o),
(377.52,398.238,o),
(377.52,345.293,q),
(377.52,303.858,o),
(400.54,216.383,o),
(453.485,145.023,o),
(531.751,101.286,o),
(586.998,101.286,q),
(630.735,101.286,o),
(704.397,128.909,o),
(759.644,170.344,o),
(801.079,214.082,o),
(814.891,230.195,q)
);
}
);
width = 1381;
}
);
unicode = 38;
},
{
glyphname = quotesingle;
layers = (
{
layerId = "F8A84F20-7B7B-45F5-903D-B244657892CC";
shapes = (
{
closed = 1;
nodes = (
(775.758,646.849,l),
(603.111,646.849,l),
(559.374,1296,l),
(821.797,1296,l)
);
}
);
width = 1381;
}
);
unicode = 39;
},
{
glyphname = parenleft;
layers = (
{
layerId = "F8A84F20-7B7B-45F5-903D-B244657892CC";
shapes = (
{
closed = 1;
nodes = (
(1065.8,1493.97,l),
(1028.97,1422.61,o),
(936.894,1236.15,o),
(854.024,1015.16,o),
(798.777,766.55,o),
(798.777,635.339,q),
(798.777,504.127,o),
(854.024,255.517,o),
(936.894,34.529,o),
(1028.97,-151.929,o),
(1065.8,-220.987,q),
(948.404,-220.987,l),
(883.95,-124.305,o),
(778.06,96.682,o),
(702.095,322.273,o),
(660.66,540.959,o),
(660.66,635.339,q),
(660.66,727.417,o),
(699.793,946.102,o),
(775.758,1171.69,o),
(881.648,1394.98,o),
(948.404,1493.97,q)
);
}
);
width = 1381;
}
);
unicode = 40;
},
{
glyphname = parenright;
layers = (
{
layerId = "F8A84F20-7B7B-45F5-903D-B244657892CC";
shapes = (
{
closed = 1;
nodes = (
(315.367,-220.987,l),
(349.897,-158.835,o),
(441.975,25.322,o),
(527.147,248.611,o),
(584.696,501.826,o),
(584.696,635.339,q),
(584.696,768.852,o),
(527.147,1019.76,o),
(441.975,1240.75,o),
(349.897,1427.21,o),
(315.367,1493.97,q),
(435.069,1493.97,l),
(506.429,1383.47,o),
(614.621,1155.58,o),
(685.982,932.291,o),
(722.813,725.115,o),
(722.813,635.339,q),
(722.813,540.959,o),
(683.68,326.877,o),
(610.017,103.588,o),
(501.826,-119.702,o),
(435.069,-220.987,q)
);
}
);
width = 1381;
}
);
unicode = 41;
},
{
glyphname = asterisk;
layers = (
{
layerId = "F8A84F20-7B7B-45F5-903D-B244657892CC";
shapes = (
{
closed = 1;
nodes = (
(755.04,957.612,l),
(1077.31,1075.01,l),
(1125.65,927.687,l),
(794.173,835.609,l),
(1008.25,568.582,l),
(881.648,474.202,l),
(690.586,761.946,l),
(499.524,474.202,l),
(372.916,568.582,l),
(586.998,835.609,l),
(255.517,927.687,l),
(303.858,1075.01,l),
(626.131,957.612,l),
(612.319,1296,l),
(768.852,1296,l)
);
}
);
width = 1381;
}
);
unicode = 42;
},
{
glyphname = plus;
layers = (
{
layerId = "F8A84F20-7B7B-45F5-903D-B244657892CC";
shapes = (
{
closed = 1;
nodes = (
(748.134,755.04,l),
(1229.24,755.04,l),
(1229.24,639.943,l),
(748.134,639.943,l),
(748.134,168.042,l),
(633.037,168.042,l),
(633.037,639.943,l),
(151.929,639.943,l),
(151.929,755.04,l),
(633.037,755.04,l),
(633.037,1226.94,l),
(748.134,1226.94,l)
);
}
);
width = 1381;
}
);
unicode = 43;
},
{
glyphname = comma;
layers = (
{
layerId = "F8A84F20-7B7B-45F5-903D-B244657892CC";
shapes = (
{
closed = 1;
nodes = (
(571,-251,l),
(407,-251,l),
(582,306,l),
(822,306,l)
);
}
);
width = 1381;
}
);
unicode = 44;
},
{
glyphname = hyphen;
layers = (
{
layerId = "F8A84F20-7B7B-45F5-903D-B244657892CC";
shapes = (
{
closed = 1;
nodes = (
(447,730,l),
(935,730,l),
(935,603,l),
(447,603,l)
);
}
);
width = 1381;
}
);
unicode = (45,173);
},
{
glyphname = period;
layers = (
{
layerId = "F8A84F20-7B7B-45F5-903D-B244657892CC";
shapes = (
{
closed = 1;
nodes = (
(725,274,o),
(787,251,o),
(838,209,o),
(868,152,o),
(868,117,q),
(868,81,o),
(836,23,o),
(785,-18,o),
(721,-39,o),
(691,-39,q),
(661,-39,o),
(599,-18,o),
(546,21,o),
(513,78,o),
(513,117,q),
(513,154,o),
(546,212,o),
(596,253,o),
(658,274,o),
(691,274,q)
);
}
);
width = 1381;
}
);
unicode = 46;
},
{
glyphname = slash;
layers = (
{
layerId = "F8A84F20-7B7B-45F5-903D-B244657892CC";
shapes = (
{
closed = 1;
nodes = (
(308,-306,l),
(209,-260,l),
(1073,1616,l),
(1172,1575,l)
);
}
);
width = 1381;
}
);
unicode = 47;
},
{
glyphname = zero;
layers = (
{
layerId = "F8A84F20-7B7B-45F5-903D-B244657892CC";
shapes = (
{
closed = 1;
nodes = (
(831,1430,o),
(1004,1284,o),
(1096,1066,o),
(1128,810,o),
(1128,697,q),
(1128,585,o),
(1096,329,o),
(1004,110,o),
(831,-32,o),
(691,-32,q),
(550,-32,o),
(378,113,o),
(285,329,o),
(253,587,o),
(253,697,q),
(253,810,o),
(285,1066,o),
(378,1284,o),
(550,1430,o),
(691,1430,q)
);
},
{
closed = 1;
nodes = (
(587,1326,o),
(463,1197,o),
(396,1008,o),
(375,790,o),
(375,700,q),
(375,608,o),
(396,389,o),
(463,198,o),
(587,71,o),
(688,71,q),
(792,71,o),
(916,200,o),
(985,389,o),
(1006,610,o),
(1006,700,q),
(1006,792,o),
(985,1011,o),
(918,1199,o),
(794,1326,o),
(691,1326,q)
);
}
);
width = 1381;
}
);
unicode = 48;
},
{
glyphname = one;
layers = (
{
layerId = "F8A84F20-7B7B-45F5-903D-B244657892CC";
shapes = (
{
closed = 1;
nodes = (
(769,1430,l),
(769,108,l),
(1162,108,l),
(1162,0,l),
(253,0,l),
(253,108,l),
(654,108,l),
(654,1296,l),
(285,1126,l),
(239,1227,l),
(695,1430,l)
);
}
);
width = 1381;
}
);
unicode = 49;
},
{
glyphname = two;
layers = (
{
layerId = "F8A84F20-7B7B-45F5-903D-B244657892CC";
shapes = (
{
closed = 1;
nodes = (
(1087,0,l),
(189,0,l),
(189,122,l),
(226,154,o),
(382,292,o),
(569,460,o),
(760,638,o),
(829,709,q),
(912,792,o),
(965,928,o),
(965,1008,q),
(965,1091,o),
(898,1206,o),
(801,1280,o),
(691,1314,o),
(647,1314,q),
(615,1314,o),
(513,1294,o),
(417,1238,o),
(350,1146,o),
(355,1075,q),
(235,1075,l),
(235,1225,l),
(299,1301,o),
(435,1386,o),
(552,1423,o),
(638,1430,o),
(651,1430,q),
(732,1430,o),
(889,1370,o),
(1013,1259,o),
(1089,1100,o),
(1089,1004,q),
(1089,930,o),
(1052,815,o),
(1011,748,q),
(983,704,o),
(854,564,o),
(674,394,o),
(458,205,o),
(343,113,q),
(343,108,l),
(978,108,l),
(978,336,l),
(1087,336,l)
);
}
);
width = 1381;
}
);
unicode = 50;
},
{
glyphname = three;
layers = (
{
layerId = "F8A84F20-7B7B-45F5-903D-B244657892CC";
shapes = (
{
closed = 1;
nodes = (
(237,182,l),
(325,140,o),
(523,76,o),
(619,76,q),
(681,76,o),
(803,115,o),
(900,196,o),
(958,313,o),
(958,389,q),
(958,470,o),
(902,575,o),
(836,638,o),
(773,665,o),
(767,668,q),
(707,688,o),
(599,693,o),
(543,688,q),
(543,796,l),
(594,796,o),
(711,810,o),
(764,845,q),
(822,884,o),
(884,1004,o),
(884,1070,q),
(884,1188,o),
(727,1321,o),
(610,1321,q),
(520,1321,o),
(373,1245,o),
(320,1213,q),
(279,1188,l),
(221,1278,l),
(318,1340,o),
(502,1430,o),
(612,1430,q),
(686,1430,o),
(826,1381,o),
(937,1289,o),
(1004,1158,o),
(1004,1073,q),
(1004,997,o),
(960,886,o),
(900,810,o),
(840,769,o),
(826,760,q),
(863,746,o),
(948,686,o),
(1024,596,o),
(1075,472,o),
(1075,394,q),
(1075,297,o),
(1004,138,o),
(877,28,o),
(709,-32,o),
(612,-32,q),
(559,-32,o),
(470,-18,o),
(375,12,o),
(265,53,o),
(193,81,q)
);
}
);
width = 1381;
}
);
unicode = 51;
},
{
glyphname = four;
layers = (
{
layerId = "F8A84F20-7B7B-45F5-903D-B244657892CC";
shapes = (
{
closed = 1;
nodes = (
(1105,447,l),
(1105,336,l),
(898,336,l),
(898,108,l),
(1105,108,l),
(1105,0,l),
(477,0,l),
(477,108,l),
(787,108,l),
(787,336,l),
(170,336,l),
(170,470,l),
(741,1430,l),
(898,1430,l),
(898,447,l)
);
},
{
closed = 1;
nodes = (
(787,1296,l),
(783,1296,l),
(283,447,l),
(787,447,l)
);
}
);
width = 1381;
}
);
unicode = 52;
},
{
glyphname = five;
layers = (
{
layerId = "F8A84F20-7B7B-45F5-903D-B244657892CC";
shapes = (
{
closed = 1;
nodes = (
(1059,1284,l),
(394,1284,l),
(394,819,l),
(447,843,o),
(580,884,o),
(672,884,q),
(776,884,o),
(944,813,o),
(1061,691,o),
(1126,525,o),
(1126,433,q),
(1126,364,o),
(1080,200,o),
(967,62,o),
(780,-32,o),
(642,-32,q),
(520,-32,o),
(325,25,o),
(209,71,q),
(251,175,l),
(279,163,o),
(359,131,o),
(458,104,o),
(573,83,o),
(633,83,q),
(727,83,o),
(866,136,o),
(958,230,o),
(1001,355,o),
(1001,428,q),
(1001,497,o),
(955,624,o),
(866,721,o),
(737,776,o),
(654,776,q),
(566,776,o),
(419,718,o),
(348,665,q),
(290,697,l),
(290,1395,l),
(1059,1395,l)
);
}
);
width = 1381;
}
);
unicode = 53;
},
{
glyphname = six;
layers = (
{
layerId = "F8A84F20-7B7B-45F5-903D-B244657892CC";
shapes = (
{
closed = 1;
nodes = (
(1119,1314,l),
(990,1321,o),
(741,1303,o),
(534,1183,o),
(389,921,o),
(364,684,q),
(368,679,l),
(382,695,o),
(435,755,o),
(518,810,o),
(628,852,o),
(702,852,q),
(792,852,o),
(941,778,o),
(1047,654,o),
(1105,493,o),
(1105,405,q),
(1105,318,o),
(1045,159,o),
(937,39,o),
(787,-32,o),
(697,-32,q),
(628,-32,o),
(465,28,o),
(327,173,o),
(235,414,o),
(235,599,q),
(235,654,o),
(258,870,o),
(343,1112,o),
(518,1331,o),
(670,1386,q),
(695,1395,o),
(767,1413,o),
(870,1427,o),
(1017,1434,o),
(1119,1430,q)
);
},
{
closed = 1;
nodes = (
(371,368,o),
(444,212,o),
(543,120,o),
(654,83,o),
(697,83,q),
(753,83,o),
(854,127,o),
(935,209,o),
(981,329,o),
(981,405,q),
(981,470,o),
(939,592,o),
(868,681,o),
(764,737,o),
(702,737,q),
(684,737,o),
(601,725,o),
(502,677,o),
(401,578,o),
(364,488,q)
);
}
);
width = 1381;
}
);
unicode = 54;
},
{
glyphname = seven;
layers = (
{
layerId = "F8A84F20-7B7B-45F5-903D-B244657892CC";
shapes = (
{
closed = 1;
nodes = (
(1123,1287,l),
(677,0,l),
(543,0,l),
(1008,1287,l),
(331,1287,l),
(331,1075,l),
(219,1075,l),
(219,1395,l),
(1123,1395,l)
);
}
);
width = 1381;
}
);
unicode = 55;
},
{
glyphname = eight;
layers = (
{
layerId = "F8A84F20-7B7B-45F5-903D-B244657892CC";
shapes = (
{
closed = 1;
nodes = (
(456,723,o),
(384,778,o),
(320,863,o),
(272,978,o),
(272,1052,q),
(272,1130,o),
(336,1266,o),
(449,1370,o),
(601,1430,o),
(691,1430,q),
(780,1430,o),
(932,1370,o),
(1045,1266,o),
(1110,1130,o),
(1110,1052,q),
(1110,960,o),
(1011,771,o),
(902,711,q),
(965,684,o),
(1052,601,o),
(1110,506,o),
(1135,407,o),
(1135,364,q),
(1135,299,o),
(1082,159,o),
(971,44,o),
(803,-32,o),
(691,-32,q),
(575,-32,o),
(410,44,o),
(299,159,o),
(246,299,o),
(246,364,q),
(246,472,o),
(375,665,o),
(479,711,q)
);
},
{
closed = 1;
nodes = (
(610,1321,o),
(497,1268,o),
(428,1186,o),
(396,1091,o),
(396,1050,q),
(396,997,o),
(437,895,o),
(513,815,o),
(624,764,o),
(691,764,q),
(746,764,o),
(852,803,o),
(935,879,o),
(985,983,o),
(985,1050,q),
(985,1119,o),
(932,1220,o),
(849,1287,o),
(744,1321,o),
(691,1321,q)
);
},
{
closed = 1;
nodes = (
(610,656,o),
(490,603,o),
(410,518,o),
(371,414,o),
(371,364,q),
(371,306,o),
(419,203,o),
(506,122,o),
(622,76,o),
(691,76,q),
(760,76,o),
(875,122,o),
(962,203,o),
(1011,306,o),
(1011,364,q),
(1011,414,o),
(969,520,o),
(889,603,o),
(769,656,o),
(691,656,q)
);
}
);
width = 1381;
}
);
unicode = 56;
},
{
glyphname = nine;
layers = (
{
layerId = "F8A84F20-7B7B-45F5-903D-B244657892CC";
shapes = (
{
closed = 1;
nodes = (
(186,83,l),
(318,76,o),
(564,94,o),
(769,214,o),
(914,477,o),
(941,714,q),
(937,718,l),
(923,700,o),
(870,642,o),
(787,587,o),
(674,546,o),
(603,546,q),
(513,546,o),
(364,619,o),
(258,744,o),
(200,905,o),
(200,992,q),
(200,1080,o),
(260,1238,o),
(368,1358,o),
(518,1430,o),
(608,1430,q),
(677,1430,o),
(840,1370,o),
(978,1225,o),
(1070,981,o),
(1070,799,q),
(1070,744,o),
(1047,527,o),
(962,285,o),
(787,67,o),
(635,12,q),
(610,2,o),
(539,-18,o),
(435,-32,o),
(288,-37,o),
(186,-32,q)
);
},
{
closed = 1;
nodes = (
(935,1029,o),
(861,1186,o),
(762,1278,o),
(651,1314,o),
(608,1314,q),
(552,1314,o),
(451,1271,o),
(371,1188,o),
(325,1068,o),
(325,992,q),
(325,925,o),
(366,806,o),
(437,716,o),
(541,661,o),
(603,661,q),
(619,661,o),
(702,670,o),
(803,718,o),
(905,819,o),
(941,909,q)
);
}
);
width = 1381;
}
);
unicode = 57;
},
{
glyphname = colon;
layers = (
{
layerId = "F8A84F20-7B7B-45F5-903D-B244657892CC";
shapes = (
{
closed = 1;
nodes = (
(721,898,o),
(785,877,o),
(836,836,o),
(868,778,o),
(868,741,q),
(868,704,o),
(836,647,o),
(785,605,o),
(721,585,o),
(691,585,q),
(661,585,o),
(599,605,o),
(546,645,o),
(513,702,o),
(513,741,q),
(513,778,o),
(546,836,o),
(596,877,o),
(658,898,o),
(691,898,q)
);
},
{
closed = 1;
nodes = (
(721,274,o),
(785,253,o),
(836,212,o),
(868,154,o),
(868,117,q),
(868,81,o),
(836,23,o),
(785,-18,o),
(721,-39,o),
(691,-39,q),
(661,-39,o),
(599,-18,o),
(546,21,o),
(513,78,o),
(513,117,q),
(513,154,o),
(546,212,o),
(596,253,o),
(658,274,o),
(691,274,q)
);
}
);
width = 1381;
}
);
unicode = 58;
},
{
glyphname = semicolon;
layers = (
{
layerId = "F8A84F20-7B7B-45F5-903D-B244657892CC";
shapes = (
{
closed = 1;
nodes = (
(580,-249,l),
(417,-249,l),
(594,308,l),
(831,308,l)
);
},
{
closed = 1;
nodes = (
(721,898,o),
(785,877,o),
(836,836,o),
(868,778,o),
(868,741,q),
(868,704,o),
(836,647,o),
(785,605,o),
(721,585,o),
(691,585,q),
(661,585,o),
(599,605,o),
(546,645,o),
(513,702,o),
(513,741,q),
(513,778,o),
(546,836,o),
(596,877,o),
(658,898,o),
(691,898,q)
);
}
);
width = 1381;
}
);
unicode = 59;
},
{
glyphname = less;
layers = (
{
layerId = "F8A84F20-7B7B-45F5-903D-B244657892CC";
shapes = (
{
closed = 1;
nodes = (
(1211,1225,l),
(1257,1121,l),
(380,709,l),
(1257,306,l),
(1211,205,l),
(124,709,l)
);
}
);
width = 1381;
}
);
unicode = 60;
},
{
glyphname = equal;
layers = (
{
layerId = "F8A84F20-7B7B-45F5-903D-B244657892CC";
shapes = (
{
closed = 1;
nodes = (
(1234,849,l),
(147,849,l),
(147,965,l),
(1234,965,l)
);
},
{
closed = 1;
nodes = (
(1234,433,l),
(147,433,l),
(147,548,l),
(1234,548,l)
);
}
);
width = 1381;
}
);
unicode = 61;
},
{
glyphname = greater;
layers = (
{
layerId = "F8A84F20-7B7B-45F5-903D-B244657892CC";
shapes = (
{
closed = 1;
nodes = (
(170,193,l),
(124,297,l),
(1001,709,l),
(124,1112,l),
(170,1213,l),
(1257,709,l)
);
}
);
width = 1381;
}
);
unicode = 62;
},
{
glyphname = question;
layers = (
{
layerId = "F8A84F20-7B7B-45F5-903D-B244657892CC";
shapes = (
{
closed = 1;
nodes = (
(276,1236,l),
(336,1257,o),
(430,1287,o),
(516,1308,o),
(601,1317,o),
(649,1317,q),
(760,1317,o),
(925,1252,o),
(1036,1149,o),
(1091,1011,o),
(1091,939,q),
(1091,838,o),
(1004,702,o),
(877,615,o),
(732,564,o),
(674,548,q),
(674,410,l),
(562,410,l),
(562,633,l),
(566,635,o),
(596,642,o),
(608,645,q),
(665,658,o),
(794,697,o),
(900,764,o),
(971,868,o),
(971,946,q),
(971,981,o),
(944,1070,o),
(872,1151,o),
(748,1204,o),
(651,1204,q),
(566,1204,o),
(449,1172,o),
(391,1149,q),
(391,1001,l),
(276,1001,l)
);
},
{
closed = 1;
nodes = (
(679,244,o),
(771,163,o),
(771,104,q),
(771,41,o),
(677,-39,o),
(612,-39,q),
(548,-39,o),
(453,41,o),
(453,104,q),
(453,163,o),
(546,244,o),
(612,244,q)
);
}
);
width = 1381;
}
);
unicode = 63;
},
{
glyphname = at;
layers = (
{
layerId = "F8A84F20-7B7B-45F5-903D-B244657892CC";
shapes = (
{
closed = 1;
nodes = (
(1227,131,l),
(1225,131,o),
(1215,124,o),
(1213,124,q),
(1096,58,o),
(815,-32,o),
(663,-32,q),
(511,-32,o),
(290,74,o),
(145,249,o),
(74,477,o),
(74,599,q),
(74,737,o),
(159,976,o),
(320,1153,o),
(559,1257,o),
(711,1257,q),
(838,1257,o),
(1054,1181,o),
(1213,1034,o),
(1305,819,o),
(1305,684,q),
(1305,587,o),
(1257,424,o),
(1167,308,o),
(1045,244,o),
(971,244,q),
(946,244,o),
(916,249,o),
(886,265,o),
(847,292,o),
(815,315,q),
(796,329,o),
(790,350,o),
(790,361,q),
(776,345,o),
(737,304,o),
(681,265,o),
(612,239,o),
(571,239,q),
(550,239,o),
(488,260,o),
(430,311,o),
(391,403,o),
(391,472,q),
(391,548,o),
(444,711,o),
(536,845,o),
(658,930,o),
(730,930,q),
(787,930,o),
(845,863,o),
(861,838,q),
(882,918,l),
(1001,918,l),
(902,559,l),
(902,550,o),
(879,472,o),
(879,444,q),
(879,419,o),
(932,352,o),
(985,352,q),
(1029,352,o),
(1105,407,o),
(1162,502,o),
(1195,626,o),
(1195,697,q),
(1195,810,o),
(1119,981,o),
(985,1093,o),
(808,1149,o),
(707,1149,q),
(569,1149,o),
(375,1052,o),
(251,898,o),
(193,700,o),
(193,596,q),
(193,504,o),
(244,320,o),
(357,170,o),
(539,76,o),
(670,76,q),
(815,76,o),
(1047,159,o),
(1128,203,q),
(1162,221,l),
(1165,221,o),
(1176,228,o),
(1179,228,q)
);
},
{
closed = 1;
nodes = (
(626,352,o),
(704,424,o),
(764,527,o),
(799,649,o),
(799,700,q),
(799,753,o),
(748,815,o),
(716,815,q),
(677,815,o),
(601,744,o),
(543,638,o),
(509,513,o),
(509,463,q),
(509,447,o),
(516,410,o),
(534,375,o),
(562,352,o),
(582,352,q)
);
}
);
width = 1381;
}
);
unicode = 64;
},
{
glyphname = A;
layers = (
{
layerId = "F8A84F20-7B7B-45F5-903D-B244657892CC";
shapes = (
{
closed = 1;
nodes = (
(1241,108,l),
(1358,108,l),
(1358,0,l),
(886,0,l),
(886,108,l),
(1121,108,l),
(990,428,l),
(389,428,l),
(260,108,l),
(495,108,l),
(495,0,l),
(23,0,l),
(23,108,l),
(145,108,l),
(589,1188,l),
(260,1188,l),
(260,1296,l),
(755,1296,l)
);
},
{
closed = 1;
nodes = (
(430,529,l),
(951,529,l),
(691,1160,l)
);
}
);
width = 1381;
}
);
unicode = 65;
},
{
glyphname = B;
layers = (
{
layerId = "F8A84F20-7B7B-45F5-903D-B244657892CC";
shapes = (
{
closed = 1;
nodes = (
(732,1296,l),
(868,1296,o),
(1015,1243,o),
(1112,1156,o),
(1172,1036,o),
(1172,962,q),
(1172,900,o),
(1133,803,o),
(1075,734,o),
(1013,688,o),
(990,677,q),
(1114,640,o),
(1252,479,o),
(1252,355,q),
(1252,258,o),
(1162,104,o),
(1089,64,q),
(1052,44,o),
(983,18,o),
(898,5,o),
(790,0,o),
(711,0,q),
(104,0,l),
(104,108,l),
(295,108,l),
(295,1188,l),
(104,1188,l),
(104,1296,l)
);
},
{
closed = 1;
nodes = (
(410,727,l),
(716,727,l),
(829,727,o),
(962,783,o),
(1031,859,o),
(1052,939,o),
(1052,967,q),
(1052,1050,o),
(965,1139,o),
(852,1181,o),
(746,1188,o),
(727,1188,q),
(410,1188,l)
);
},
{
closed = 1;
nodes = (
(410,108,l),
(707,108,l),
(769,108,o),
(916,115,o),
(1045,161,o),
(1133,260,o),
(1133,355,q),
(1133,426,o),
(1066,527,o),
(951,589,o),
(790,619,o),
(697,619,q),
(410,619,l)
);
}
);
width = 1381;
}
);
unicode = 66;
},
{
glyphname = C;
layers = (
{
layerId = "F8A84F20-7B7B-45F5-903D-B244657892CC";
shapes = (
{
closed = 1;
nodes = (
(1367,228,l),
(1271,136,o),
(1087,30,o),
(928,-25,o),
(803,-39,o),
(769,-39,q),
(617,-39,o),
(384,74,o),
(228,267,o),
(147,520,o),
(147,663,q),
(147,813,o),
(242,1061,o),
(407,1238,o),
(633,1335,o),
(764,1335,q),
(833,1335,o),
(937,1310,o),
(1011,1275,o),
(1052,1243,o),
(1059,1236,q),
(1082,1218,o),
(1093,1211,o),
(1098,1211,q),
(1105,1211,o),
(1116,1234,o),
(1123,1268,o),
(1130,1305,o),
(1133,1321,q),
(1218,1321,l),
(1213,1176,o),
(1229,974,o),
(1241,882,q),
(1133,863,l),
(1126,902,o),
(1096,1024,o),
(1057,1084,q),
(1024,1133,o),
(886,1220,o),
(760,1220,q),
(645,1220,o),
(465,1133,o),
(338,981,o),
(272,778,o),
(272,665,q),
(272,578,o),
(315,373,o),
(428,196,o),
(619,76,o),
(769,76,q),
(925,76,o),
(1179,212,o),
(1291,311,q)
);
}
);
width = 1381;
}
);
unicode = 67;
},
{
glyphname = D;
layers = (
{
layerId = "F8A84F20-7B7B-45F5-903D-B244657892CC";
shapes = (
{
closed = 1;
nodes = (
(654,1296,l),
(730,1296,o),
(861,1284,o),
(974,1250,o),
(1077,1181,o),
(1126,1123,q),
(1176,1061,o),
(1234,928,o),
(1261,803,o),
(1268,702,o),
(1268,672,q),
(1268,569,o),
(1236,401,o),
(1183,269,o),
(1114,168,o),
(1077,134,q),
(1024,83,o),
(900,30,o),
(780,5,o),
(677,0,o),
(645,0,q),
(78,0,l),
(78,108,l),
(260,108,l),
(260,1188,l),
(78,1188,l),
(78,1296,l)
);
},
{
closed = 1;
nodes = (
(375,108,l),
(645,108,l),
(674,108,o),
(757,110,o),
(852,131,o),
(948,175,o),
(990,216,q),
(1052,279,o),
(1144,506,o),
(1144,665,q),
(1142,773,o),
(1103,925,o),
(1047,1031,o),
(985,1096,o),
(960,1116,q),
(900,1162,o),
(755,1188,o),
(656,1188,q),
(375,1188,l)
);
}
);
width = 1381;
}
);
unicode = 68;
},
{
glyphname = E;
layers = (
{
layerId = "F8A84F20-7B7B-45F5-903D-B244657892CC";
shapes = (
{
closed = 1;
nodes = (
(1234,872,l),
(1128,872,l),
(1105,1188,l),
(442,1188,l),
(442,739,l),
(815,739,l),
(815,907,l),
(921,907,l),
(921,465,l),
(815,465,l),
(815,631,l),
(442,631,l),
(442,108,l),
(1128,108,l),
(1139,424,l),
(1245,424,l),
(1245,0,l),
(131,0,l),
(131,108,l),
(327,108,l),
(327,1188,l),
(131,1188,l),
(131,1296,l),
(1225,1296,l)
);
}
);
width = 1381;
}
);
unicode = 69;
},
{
glyphname = F;
layers = (
{
layerId = "F8A84F20-7B7B-45F5-903D-B244657892CC";
shapes = (
{
closed = 1;
nodes = (
(1257,882,l),
(1153,882,l),
(1126,1188,l),
(467,1188,l),
(467,739,l),
(840,739,l),
(840,907,l),
(946,907,l),
(946,465,l),
(840,465,l),
(840,631,l),
(467,631,l),
(467,108,l),
(767,108,l),
(767,0,l),
(166,0,l),
(166,108,l),
(352,108,l),
(352,1188,l),
(166,1188,l),
(166,1296,l),
(1245,1296,l)
);
}
);
width = 1381;
}
);
unicode = 70;
},
{
glyphname = G;
layers = (
{
layerId = "F8A84F20-7B7B-45F5-903D-B244657892CC";
shapes = (
{
closed = 1;
nodes = (
(1202,1321,l),
(1199,1314,o),
(1197,1282,o),
(1197,1278,q),
(1197,1268,o),
(1195,1225,o),
(1190,1169,o),
(1188,1114,o),
(1188,1091,q),
(1188,1034,o),
(1197,923,o),
(1202,882,q),
(1103,863,l),
(1096,902,o),
(1066,1024,o),
(985,1137,o),
(840,1220,o),
(718,1220,q),
(617,1220,o),
(442,1135,o),
(311,983,o),
(235,771,o),
(235,645,q),
(235,527,o),
(297,320,o),
(426,166,o),
(619,76,o),
(750,76,q),
(808,76,o),
(967,104,o),
(1103,150,q),
(1103,460,l),
(762,460,l),
(762,569,l),
(1331,569,l),
(1331,460,l),
(1220,460,l),
(1220,74,l),
(960,-39,o),
(748,-39,q),
(571,-39,o),
(327,87,o),
(177,288,o),
(110,527,o),
(110,642,q),
(110,776,o),
(191,1024,o),
(348,1218,o),
(575,1335,o),
(723,1335,q),
(806,1335,o),
(944,1289,o),
(1011,1236,q),
(1029,1218,o),
(1047,1209,o),
(1057,1209,q),
(1075,1209,o),
(1082,1245,o),
(1091,1321,q)
);
}
);
width = 1381;
}
);
unicode = 71;
},
{
glyphname = H;
layers = (
{
layerId = "F8A84F20-7B7B-45F5-903D-B244657892CC";
shapes = (
{
closed = 1;
nodes = (
(550,1188,l),
(378,1188,l),
(378,723,l),
(1004,723,l),
(1004,1188,l),
(831,1188,l),
(831,1296,l),
(1294,1296,l),
(1294,1188,l),
(1119,1188,l),
(1119,108,l),
(1294,108,l),
(1294,0,l),
(831,0,l),
(831,108,l),
(1004,108,l),
(1004,615,l),
(378,615,l),
(378,108,l),
(550,108,l),
(550,0,l),
(90,0,l),
(90,108,l),
(262,108,l),
(262,1188,l),
(90,1188,l),
(90,1296,l),
(550,1296,l)
);
}
);
width = 1381;
}
);
unicode = 72;
},
{
glyphname = I;
layers = (
{
layerId = "F8A84F20-7B7B-45F5-903D-B244657892CC";
shapes = (
{
closed = 1;
nodes = (
(1151,1188,l),
(748,1188,l),
(748,108,l),
(1151,108,l),
(1151,0,l),
(230,0,l),
(230,108,l),
(633,108,l),
(633,1188,l),
(230,1188,l),
(230,1296,l),
(1151,1296,l)
);
}
);
width = 1381;
}
);
unicode = 73;
},
{
glyphname = J;
layers = (
{
layerId = "F8A84F20-7B7B-45F5-903D-B244657892CC";
shapes = (
{
closed = 1;
nodes = (
(1332.83,1187.81,l),
(1040.48,1187.81,l),
(1040.48,469.598,l),
(1040.48,372.916,o),
(1019.76,179.552,o),
(973.726,108.192,q),
(946.102,69.059,o),
(867.836,11.51,o),
(784.966,-23.02,o),
(699.793,-39.133,o),
(662.962,-39.133,q),
(524.845,-39.133,o),
(296.952,46.039,o),
(200.27,89.776,q),
(156.533,108.192,l),
(135.815,605.413,l),
(248.611,605.413,l),
(257.819,382.124,l),
(260.121,294.65,o),
(296.952,188.76,o),
(366.01,147.325,q),
(432.767,105.89,o),
(577.79,75.964,o),
(637.641,75.964,q),
(743.53,75.964,o),
(860.93,147.325,o),
(916.177,260.121,o),
(925.385,400.54,o),
(925.385,469.598,q),
(925.385,1187.81,l),
(471.9,1187.81,l),
(471.9,1296,l),
(1332.83,1296,l)
);
}
);
width = 1381;
}
);
unicode = 74;
},
{
glyphname = K;
layers = (
{
layerId = "F8A84F20-7B7B-45F5-903D-B244657892CC";
shapes = (
{
closed = 1;
nodes = (
(642.245,1187.81,l),
(446.579,1187.81,l),
(446.579,623.829,l),
(1026.67,1187.81,l),
(837.911,1187.81,l),
(837.911,1296,l),
(1286.79,1296,l),
(1286.79,1187.81,l),
(1183.2,1187.81,l),
(683.68,702.095,l),
(727.417,679.076,o),
(831.005,605.413,o),
(946.102,471.9,o),
(1072.71,264.724,o),
(1141.77,108.192,q),
(1353.55,108.192,l),
(1353.55,0,l),
(1058.9,0,l),
(1022.07,96.682,o),
(934.593,269.328,o),
(909.271,310.764,q),
(842.514,425.861,o),
(706.699,573.186,o),
(605.413,623.829,q),
(446.579,471.9,l),
(446.579,108.192,l),
(642.245,108.192,l),
(642.245,0,l),
(138.117,0,l),
(138.117,108.192,l),
(331.481,108.192,l),
(331.481,1187.81,l),
(138.117,1187.81,l),
(138.117,1296,l),
(642.245,1296,l)
);
}
);
width = 1381;
}
);
unicode = 75;
},
{
glyphname = L;
layers = (
{
layerId = "F8A84F20-7B7B-45F5-903D-B244657892CC";
shapes = (
{
closed = 1;
nodes = (
(764,1188,l),
(481,1188,l),
(481,108,l),
(1133,108,l),
(1165,573,l),
(1273,573,l),
(1248,0,l),
(136,0,l),
(136,108,l),
(366,108,l),
(366,1188,l),
(136,1188,l),
(136,1296,l),
(764,1296,l)
);
}
);
width = 1381;
}
);
unicode = 76;
},
{
glyphname = M;
layers = (
{
layerId = "F8A84F20-7B7B-45F5-903D-B244657892CC";
shapes = (
{
closed = 1;
nodes = (
(665.264,515.637,l),
(706.699,515.637,l),
(992.141,1296,l),
(1362.76,1296,l),
(1362.76,1187.81,l),
(1199.32,1187.81,l),
(1238.45,108.192,l),
(1378.87,108.192,l),
(1378.87,0,l),
(890.855,0,l),
(890.855,108.192,l),
(1137.16,108.192,l),
(1102.64,1187.81,l),
(1061.2,1187.81,l),
(738.927,331.481,l),
(619.225,331.481,l),
(319.971,1187.81,l),
(278.536,1187.81,l),
(244.007,108.192,l),
(490.316,108.192,l),
(490.316,0,l),
(2.302,0,l),
(2.302,108.192,l),
(142.721,108.192,l),
(181.854,1187.81,l),
(18.416,1187.81,l),
(18.416,1296,l),
(402.842,1296,l)
);
}
);
width = 1381;
}
);
unicode = 77;
},
{
glyphname = N;
layers = (
{
layerId = "F8A84F20-7B7B-45F5-903D-B244657892CC";
shapes = (
{
closed = 1;
nodes = (
(1064,97,l),
(1105,97,l),
(1105,1188,l),
(847,1188,l),
(847,1296,l),
(1360,1296,l),
(1360,1188,l),
(1211,1188,l),
(1211,-30,l),
(1006,-30,l),
(389,1188,l),
(350,1188,l),
(350,108,l),
(610,108,l),
(610,0,l),
(64,0,l),
(64,108,l),
(244,108,l),
(244,1188,l),
(64,1188,l),
(64,1296,l),
(458,1296,l)
);
}
);
width = 1381;
}
);
unicode = 78;
},
{
glyphname = O;
layers = (
{
layerId = "F8A84F20-7B7B-45F5-903D-B244657892CC";
shapes = (
{
closed = 1;
nodes = (
(99,790,o),
(182,1040,o),
(336,1227,o),
(555,1335,o),
(691,1335,q),
(829,1335,o),
(1047,1225,o),
(1202,1036,o),
(1282,787,o),
(1282,647,q),
(1282,509,o),
(1199,258,o),
(1047,71,o),
(829,-39,o),
(691,-39,q),
(555,-39,o),
(336,69,o),
(182,256,o),
(99,504,o),
(99,647,q)
);
},
{
closed = 1;
nodes = (
(223,546,o),
(283,341,o),
(401,177,o),
(575,76,o),
(691,76,q),
(803,76,o),
(978,175,o),
(1098,336,o),
(1158,541,o),
(1158,649,q),
(1158,757,o),
(1096,965,o),
(976,1123,o),
(803,1220,o),
(691,1220,q),
(571,1220,o),
(396,1116,o),
(281,953,o),
(223,748,o),
(223,649,q)
);
}
);
width = 1381;
}
);
unicode = 79;
},
{
glyphname = P;
layers = (
{
layerId = "F8A84F20-7B7B-45F5-903D-B244657892CC";
shapes = (
{
closed = 1;
nodes = (
(690.586,1296,l),
(814.891,1296,o),
(969.122,1270.68,o),
(1031.27,1236.15,q),
(1118.75,1187.81,o),
(1229.24,999.047,o),
(1229.24,893.157,q),
(1229.24,844.816,o),
(1203.92,750.436,o),
(1160.18,667.566,o),
(1098.03,598.508,o),
(1061.2,577.79,q),
(1019.76,552.468,o),
(939.196,524.845,o),
(837.911,511.033,o),
(697.491,508.731,o),
(593.904,508.731,q),
(464.994,508.731,l),
(464.994,108.192,l),
(803.381,108.192,l),
(803.381,0,l),
(163.439,0,l),
(163.439,108.192,l),
(349.897,108.192,l),
(349.897,1187.81,l),
(163.439,1187.81,l),
(163.439,1296,l)
);
},
{
closed = 1;
nodes = (
(464.994,616.923,l),
(596.206,616.923,l),
(736.625,616.923,o),
(948.404,630.735,o),
(1008.25,679.076,q),
(1040.48,704.397,o),
(1104.94,814.891,o),
(1104.94,897.761,q),
(1104.94,992.141,o),
(1012.86,1118.75,o),
(966.82,1141.77,q),
(946.102,1153.28,o),
(900.063,1169.39,o),
(837.911,1180.9,o),
(752.738,1187.81,o),
(690.586,1187.81,q),
(464.994,1187.81,l)
);
}
);
width = 1381;
}
);
unicode = 80;
},
{
glyphname = Q;
layers = (
{
layerId = "F8A84F20-7B7B-45F5-903D-B244657892CC";
shapes = (
{
closed = 1;
nodes = (
(1259.17,-202.572,l),
(1220.03,-230.195,o),
(1107.24,-294.65,o),
(1026.67,-294.65,q),
(973.726,-294.65,o),
(890.855,-264.724,o),
(771.154,-214.082,o),
(695.19,-193.364,o),
(651.452,-193.364,q),
(575.488,-193.364,o),
(460.39,-241.705,o),
(379.822,-287.744,q),
(326.877,-202.572,l),
(368.312,-174.948,o),
(437.371,-112.796,o),
(488.014,-59.851,o),
(517.939,-20.718,o),
(522.543,-16.114,q),
(425.861,13.812,o),
(269.328,140.419,o),
(158.835,313.065,o),
(98.984,527.147,o),
(98.984,646.849,q),
(98.984,810.287,o),
(195.666,1065.8,o),
(359.105,1243.05,o),
(573.186,1335.13,o),
(688.284,1335.13,q),
(812.589,1335.13,o),
(1028.97,1236.15,o),
(1190.11,1054.29,o),
(1282.19,796.475,o),
(1282.19,637.641,q),
(1282.19,520.241,o),
(1220.03,278.536,o),
(1072.71,80.568,o),
(831.005,-41.435,o),
(651.452,-39.133,q),
(642.245,-50.643,o),
(633.037,-59.851,o),
(614.621,-78.266,q),
(612.319,-82.87,o),
(607.715,-87.474,o),
(610.017,-82.87,q),
(605.413,-82.87,l),
(605.413,-87.474,l),
(616.923,-87.474,o),
(637.641,-85.172,o),
(656.056,-85.172,q),
(697.491,-85.172,o),
(798.777,-105.89,o),
(858.628,-131.211,q),
(900.063,-147.325,o),
(948.404,-165.741,o),
(980.632,-177.25,o),
(1003.65,-179.552,o),
(1017.46,-179.552,q),
(1075.01,-179.552,o),
(1155.58,-140.419,o),
(1187.81,-119.702,q)
);
},
{
closed = 1;
nodes = (
(223.289,545.563,o),
(283.14,340.689,o),
(400.54,177.25,o),
(575.488,75.964,o),
(690.586,75.964,q),
(803.381,75.964,o),
(978.33,174.948,o),
(1098.03,336.085,o),
(1157.88,540.959,o),
(1157.88,649.15,q),
(1157.88,757.342,o),
(1095.73,964.518,o),
(976.028,1123.35,o),
(803.381,1220.03,o),
(690.586,1220.03,q),
(570.884,1220.03,o),
(395.936,1116.45,o),
(280.838,953.008,o),
(223.289,748.134,o),
(223.289,649.15,q)
);
}
);
width = 1381;
}
);
unicode = 81;
},
{
glyphname = R;
layers = (
{
layerId = "F8A84F20-7B7B-45F5-903D-B244657892CC";
shapes = (
{
closed = 1;
nodes = (
(695.19,1296,l),
(805.683,1296,o),
(948.404,1275.28,o),
(1068.11,1192.41,o),
(1148.67,1033.58,o),
(1148.67,948.404,q),
(1148.67,897.761,o),
(1114.14,782.664,o),
(1031.27,681.378,o),
(895.459,605.413,o),
(796.475,596.206,q),
(826.401,563.978,o),
(911.573,444.277,o),
(1001.35,306.16,o),
(1091.13,165.741,o),
(1125.65,108.192,q),
(1328.23,108.192,l),
(1328.23,0,l),
(1040.48,0,l),
(1012.86,57.549,o),
(946.102,181.854,o),
(883.95,290.046,o),
(831.005,375.218,o),
(819.495,393.634,q),
(784.966,446.579,o),
(734.323,522.543,o),
(681.378,570.884,o),
(619.225,593.904,o),
(573.186,593.904,q),
(407.446,593.904,l),
(407.446,108.192,l),
(612.319,108.192,l),
(612.319,0,l),
(103.588,0,l),
(103.588,108.192,l),
(292.348,108.192,l),
(292.348,1187.81,l),
(103.588,1187.81,l),
(103.588,1296,l)
);
},
{
closed = 1;
nodes = (
(407.446,702.095,l),
(621.527,702.095,l),
(667.566,702.095,o),
(805.683,709,o),
(932.291,755.039,o),
(1024.37,858.627,o),
(1024.37,955.309,q),
(1024.37,1012.859,o),
(973.726,1116.449,o),
(927.687,1148.669,q),
(913.875,1157.879,o),
(883.95,1171.689,o),
(833.307,1180.899,o),
(752.738,1187.809,o),
(690.586,1187.809,q),
(407.446,1187.809,l)
);
}
);
width = 1381;
}
);
unicode = 82;
},
{
glyphname = S;
layers = (
{
layerId = "F8A84F20-7B7B-45F5-903D-B244657892CC";
shapes = (
{
closed = 1;
nodes = (
(1167.09,1321.32,l),
(1155.58,1268.38,o),
(1146.37,1199.32,o),
(1146.37,1155.58,q),
(1146.37,1116.45,o),
(1155.58,980.632,o),
(1167.09,881.648,q),
(1063.5,863.232,l),
(1058.9,900.063,o),
(1031.27,1019.76,o),
(992.141,1079.62,q),
(978.33,1100.33,o),
(934.593,1148.67,o),
(865.534,1190.11,o),
(768.852,1220.03,o),
(699.793,1220.03,q),
(610.017,1220.03,o),
(478.806,1167.09,o),
(393.634,1086.52,o),
(352.199,992.141,o),
(352.199,948.404,q),
(352.199,867.836,o),
(430.465,775.758,o),
(540.959,725.115,o),
(660.66,706.699,o),
(702.095,702.095,q),
(831.005,688.284,o),
(978.33,658.358,o),
(1098.03,580.092,o),
(1180.9,451.183,o),
(1180.9,352.199,q),
(1180.9,250.913,o),
(1095.73,103.588,o),
(962.216,6.906,o),
(794.173,-39.133,o),
(709,-39.133,q),
(639.942,-39.133,o),
(536.354,-16.114,o),
(460.389,18.416,o),
(409.746,52.945,o),
(393.633,66.757,q),
(391.331,69.059,o),
(379.821,75.964,o),
(375.217,75.964,q),
(368.311,75.964,o),
(356.802,62.153,o),
(352.198,57.549,q),
(347.594,41.435,o),
(340.688,11.51,o),
(331.48,-46.039,q),
(227.892,-46.039,l),
(239.402,9.208,o),
(248.61,110.494,o),
(248.61,135.815,q),
(248.61,158.835,l),
(248.61,177.25,o),
(244.006,239.403,o),
(237.1,310.764,o),
(230.194,377.52,o),
(227.892,402.842,q),
(331.48,402.842,l),
(340.688,359.105,o),
(370.613,248.611,o),
(409.746,197.968,q),
(441.974,156.533,o),
(568.581,75.964,o),
(692.887,75.964,q),
(798.776,75.964,o),
(939.195,126.607,o),
(1022.069,204.874,o),
(1056.599,299.254,o),
(1056.599,342.991,q),
(1056.599,418.955,o),
(989.838,508.731,o),
(893.156,557.072,o),
(780.361,575.488,o),
(736.624,580.092,q),
(669.867,586.998,o),
(492.617,614.621,o),
(336.084,688.284,o),
(227.892,824.099,o),
(227.892,939.196,q),
(227.892,1017.46,o),
(296.951,1160.18,o),
(418.954,1270.68,o),
(586.997,1335.13,o),
(685.981,1335.13,q),
(748.133,1335.13,o),
(844.815,1312.11,o),
(913.874,1282.19,o),
(959.913,1249.96,o),
(971.423,1240.75,q),
(999.046,1220.03,o),
(1017.459,1208.52,o),
(1024.369,1208.52,q),
(1040.479,1208.52,o),
(1047.389,1236.15,o),
(1058.899,1291.4,q),
(1061.199,1302.9,o),
(1063.499,1316.72,o),
(1063.499,1321.32,q)
);
}
);
width = 1381;
}
);
unicode = 83;
},
{
glyphname = T;
layers = (
{
layerId = "F8A84F20-7B7B-45F5-903D-B244657892CC";
shapes = (
{
closed = 1;
nodes = (
(1282.19,752.738,l),
(1171.69,738.927,l),
(1139.47,1187.81,l),
(748.134,1187.81,l),
(748.134,108.192,l),
(1026.67,108.192,l),
(1026.67,0,l),
(354.501,0,l),
(354.501,108.192,l),
(633.037,108.192,l),
(633.037,1187.81,l),
(241.705,1187.81,l),
(209.478,738.927,l),
(98.984,752.738,l),
(138.117,1296,l),
(1243.05,1296,l)
);
}
);
width = 1381;
}
);
unicode = 84;
},
{
glyphname = U;
layers = (
{
layerId = "F8A84F20-7B7B-45F5-903D-B244657892CC";
shapes = (
{
closed = 1;
nodes = (
(571,1188,l),
(336,1188,l),
(336,539,l),
(336,467,o),
(348,306,o),
(380,239,q),
(412,170,o),
(555,76,o),
(688,76,q),
(824,76,o),
(969,157,o),
(1001,221,q),
(1036,283,o),
(1047,437,o),
(1047,516,q),
(1047,1188,l),
(813,1188,l),
(813,1296,l),
(1328,1296,l),
(1328,1188,l),
(1162,1188,l),
(1162,516,l),
(1162,428,o),
(1151,306,o),
(1128,216,o),
(1098,154,o),
(1080,129,q),
(1061,101,o),
(992,44,o),
(893,-7,o),
(767,-39,o),
(691,-39,q),
(649,-39,o),
(546,-25,o),
(440,16,o),
(338,85,o),
(299,140,q),
(269,182,o),
(237,288,o),
(223,396,o),
(221,500,o),
(221,539,q),
(221,1188,l),
(55,1188,l),
(55,1296,l),
(571,1296,l)
);
}
);
width = 1381;
}
);
unicode = 85;
},
{
glyphname = V;
layers = (
{
layerId = "F8A84F20-7B7B-45F5-903D-B244657892CC";
shapes = (
{
closed = 1;
nodes = (
(506.429,1187.81,l),
(290.046,1187.81,l),
(697.491,128.909,l),
(1111.84,1187.81,l),
(877.044,1187.81,l),
(877.044,1296,l),
(1367.36,1296,l),
(1367.36,1187.81,l),
(1222.34,1187.81,l),
(766.55,0,l),
(623.829,0,l),
(172.646,1187.81,l),
(13.812,1187.81,l),
(13.812,1296,l),
(506.429,1296,l)
);
}
);
width = 1381;
}
);
unicode = 86;
},
{
glyphname = W;
layers = (
{
layerId = "F8A84F20-7B7B-45F5-903D-B244657892CC";
shapes = (
{
closed = 1;
nodes = (
(458.088,1187.81,l),
(225.591,1187.81,l),
(354.501,220.987,l),
(359.105,220.987,l),
(656.056,1058.9,l),
(734.323,1058.9,l),
(1024.37,220.987,l),
(1028.97,220.987,l),
(1162.49,1187.81,l),
(927.687,1187.81,l),
(927.687,1296,l),
(1376.57,1296,l),
(1376.57,1187.81,l),
(1270.68,1187.81,l),
(1098.03,0,l),
(982.934,0,l),
(690.586,837.911,l),
(685.982,837.911,l),
(389.03,0,l),
(273.932,0,l),
(112.796,1187.81,l),
(4.604,1187.81,l),
(4.604,1296,l),
(458.088,1296,l)
);
}
);
width = 1381;
}
);
unicode = 87;
},
{
glyphname = X;
layers = (
{
layerId = "F8A84F20-7B7B-45F5-903D-B244657892CC";
shapes = (
{
closed = 1;
nodes = (
(566.28,1187.81,l),
(377.52,1187.81,l),
(692.888,766.55,l),
(1015.16,1187.81,l),
(840.212,1187.81,l),
(840.212,1296,l),
(1261.47,1296,l),
(1261.47,1187.81,l),
(1144.07,1187.81,l),
(757.342,681.378,l),
(1185.51,108.192,l),
(1305.21,108.192,l),
(1305.21,0,l),
(840.212,0,l),
(840.212,108.192,l),
(1047.39,108.192,l),
(692.888,596.206,l),
(322.273,108.192,l),
(566.28,108.192,l),
(566.28,0,l),
(75.964,0,l),
(75.964,108.192,l),
(193.364,108.192,l),
(628.433,681.378,l),
(241.705,1187.81,l),
(119.702,1187.81,l),
(119.702,1296,l),
(566.28,1296,l)
);
}
);
width = 1381;
}
);
unicode = 88;
},
{
glyphname = Y;
layers = (
{
layerId = "F8A84F20-7B7B-45F5-903D-B244657892CC";
shapes = (
{
closed = 1;
nodes = (
(525,1188,l),
(350,1188,l),
(697,617,l),
(1040,1188,l),
(861,1188,l),
(861,1296,l),
(1308,1296,l),
(1308,1188,l),
(1162,1188,l),
(750,502,l),
(750,108,l),
(1022,108,l),
(1022,0,l),
(361,0,l),
(361,108,l),
(635,108,l),
(635,502,l),
(219,1188,l),
(74,1188,l),
(74,1296,l),
(525,1296,l)
);
}
);
width = 1381;
}
);
unicode = 89;
},
{
glyphname = Z;
layers = (
{
layerId = "F8A84F20-7B7B-45F5-903D-B244657892CC";
shapes = (
{
closed = 1;
nodes = (
(1134.86,1201.62,l),
(331.481,108.192,l),
(1079.62,108.192,l),
(1079.62,481.108,l),
(1187.81,481.108,l),
(1187.81,0,l),
(193.364,0,l),
(193.364,108.192,l),
(987.537,1187.81,l),
(317.669,1187.81,l),
(317.669,851.722,l),
(209.478,851.722,l),
(209.478,1296,l),
(1134.86,1296,l)
);
}
);
width = 1381;
}
);
unicode = 90;
},
{
glyphname = bracketleft;
layers = (
{
layerId = "F8A84F20-7B7B-45F5-903D-B244657892CC";
shapes = (
{
closed = 1;
nodes = (
(1116.45,1390.38,l),
(826.401,1390.38,l),
(826.401,-101.286,l),
(1116.45,-101.286,l),
(1116.45,-216.383,l),
(711.303,-216.383,l),
(711.303,1505.48,l),
(1116.45,1505.48,l)
);
}
);
width = 1381;
}
);
unicode = 91;
},
{
glyphname = backslash;
layers = (
{
layerId = "F8A84F20-7B7B-45F5-903D-B244657892CC";
shapes = (
{
closed = 1;
nodes = (
(1077.31,-319.971,l),
(214.082,1579.14,l),
(313.065,1622.88,l),
(1176.3,-273.932,l)
);
}
);
width = 1381;
}
);
unicode = 92;
},
{
glyphname = bracketright;
layers = (
{
layerId = "F8A84F20-7B7B-45F5-903D-B244657892CC";
shapes = (
{
closed = 1;
nodes = (
(264.724,-101.286,l),
(554.77,-101.286,l),
(554.77,1390.38,l),
(264.724,1390.38,l),
(264.724,1505.48,l),
(669.868,1505.48,l),
(669.868,-216.383,l),
(264.724,-216.383,l)
);
}
);
width = 1381;
}
);
unicode = 93;
},
{
glyphname = asciicircum;
layers = (
{
layerId = "F8A84F20-7B7B-45F5-903D-B244657892CC";
shapes = (
{
closed = 1;
nodes = (
(168.042,354.501,l),
(605.413,1296,l),
(775.758,1296,l),
(1213.13,354.501,l),
(1065.8,354.501,l),
(690.586,1157.88,l),
(315.367,354.501,l)
);
}
);
width = 1381;
}
);
unicode = 94;
},
{
glyphname = underscore;
layers = (
{
layerId = "F8A84F20-7B7B-45F5-903D-B244657892CC";
shapes = (
{
closed = 1;
nodes = (
(1491.66,-287.744,l),
(-110.494,-287.744,l),
(-110.494,-172.646,l),
(1491.66,-172.646,l)
);
}
);
width = 1381;
}
);
unicode = 95;
},
{
glyphname = grave;
layers = (
{
layerId = "F8A84F20-7B7B-45F5-903D-B244657892CC";
shapes = (
{
closed = 1;
nodes = (
(861,1158,l),
(741,1158,l),
(437,1423,l),
(684,1423,l)
);
}
);
width = 1381;
}
);
unicode = 96;
},
{
glyphname = a;
layers = (
{
layerId = "F8A84F20-7B7B-45F5-903D-B244657892CC";
shapes = (
{
closed = 1;
nodes = (
(1266.07,108.192,l),
(1266.07,0,l),
(946.102,0,l),
(946.102,165.741,l),
(911.573,133.513,o),
(817.193,62.153,o),
(706.699,4.604,o),
(577.79,-32.227,o),
(506.429,-32.227,q),
(418.955,-32.227,o),
(283.14,25.322,o),
(186.458,117.4,o),
(135.815,232.497,o),
(135.815,292.348,q),
(135.815,338.387,o),
(181.854,458.088,o),
(292.348,566.28,o),
(481.108,639.943,o),
(623.829,639.943,q),
(630.735,639.943,o),
(695.19,637.641,o),
(784.966,630.735,o),
(893.157,619.225,o),
(946.102,610.017,q),
(946.102,681.378,l),
(946.102,709,o),
(936.894,791.87,o),
(886.252,870.137,o),
(771.154,925.384,o),
(667.566,925.384,q),
(605.413,925.384,o),
(412.049,888.552,o),
(273.932,828.702,q),
(230.195,932.29,l),
(303.858,964.517,o),
(531.751,1035.879,o),
(669.868,1035.879,q),
(817.193,1035.879,o),
(976.028,950.705,o),
(1049.69,833.306,o),
(1061.2,715.906,o),
(1061.2,681.377,q),
(1061.2,108.191,l)
);
},
{
closed = 1;
nodes = (
(946.102,504.127,l),
(906.969,511.033,o),
(743.53,529.449,o),
(646.849,529.449,q),
(504.127,529.449,o),
(347.595,462.692,o),
(273.932,377.52,o),
(260.121,299.254,o),
(260.121,290.046,q),
(260.121,246.309,o),
(299.254,170.344,o),
(368.312,112.796,o),
(455.786,78.266,o),
(504.127,78.266,q),
(531.751,78.266,o),
(621.527,92.078,o),
(736.625,140.419,o),
(872.44,237.101,o),
(946.102,319.971,q)
);
}
);
width = 1381;
}
);
unicode = 97;
},
{
glyphname = b;
layers = (
{
layerId = "F8A84F20-7B7B-45F5-903D-B244657892CC";
shapes = (
{
closed = 1;
nodes = (
(338.387,796.475,l),
(342.991,796.475,l),
(414.351,893.157,o),
(610.017,999.047,o),
(736.625,999.047,q),
(842.514,999.047,o),
(1031.27,918.479,o),
(1171.69,780.362,o),
(1252.26,591.602,o),
(1252.26,485.712,q),
(1252.26,389.03,o),
(1178.6,207.176,o),
(1045.09,64.455,o),
(858.628,-23.02,o),
(745.832,-23.02,q),
(651.452,-23.02,o),
(517.939,23.02,o),
(421.257,85.172,o),
(359.105,154.231,o),
(338.387,177.25,q),
(338.387,0,l),
(39.133,0,l),
(39.133,108.192,l),
(223.289,108.192,l),
(223.289,1330.53,l),
(11.51,1319.02,l),
(11.51,1427.21,l),
(338.387,1447.93,l)
);
},
{
closed = 1;
nodes = (
(340.689,409.747,o),
(402.842,264.724,o),
(508.731,156.533,o),
(656.056,92.078,o),
(743.53,92.078,q),
(828.703,92.078,o),
(971.424,156.533,o),
(1072.71,267.026,o),
(1127.96,409.747,o),
(1127.96,488.014,q),
(1127.96,566.28,o),
(1070.41,711.303,o),
(966.82,819.495,o),
(824.099,883.95,o),
(741.229,883.95,q),
(656.056,883.95,o),
(511.033,819.495,o),
(402.842,711.303,o),
(340.689,568.582,o),
(340.689,490.316,q)
);
}
);
width = 1381;
}
);
unicode = 98;
},
{
glyphname = c;
layers = (
{
layerId = "F8A84F20-7B7B-45F5-903D-B244657892CC";
shapes = (
{
closed = 1;
nodes = (
(1203.92,1008.25,l),
(1199.32,973.726,o),
(1183.2,856.326,o),
(1183.2,796.475,q),
(1183.2,734.323,o),
(1190.11,644.547,q),
(1084.22,628.433,l),
(1075.01,667.566,l),
(1068.11,690.586,o),
(1040.48,773.456,o),
(969.122,851.722,o),
(835.609,909.271,o),
(725.115,909.271,q),
(614.621,909.271,o),
(448.881,837.911,o),
(340.689,720.511,o),
(287.744,573.186,o),
(287.744,499.524,q),
(287.744,428.163,o),
(336.085,280.838,o),
(439.673,158.835,o),
(600.809,82.87,o),
(715.907,82.87,q),
(840.212,82.87,o),
(1077.31,191.062,o),
(1203.92,278.536,q),
(1263.77,191.062,l),
(1226.94,163.439,o),
(1114.14,87.474,o),
(971.424,16.114,o),
(801.079,-32.227,o),
(704.397,-32.227,q),
(582.394,-32.227,o),
(384.426,50.643,o),
(241.705,195.666,o),
(163.439,386.728,o),
(163.439,497.222,q),
(163.439,589.3,o),
(230.195,778.06,o),
(366.01,929.989,o),
(573.186,1024.37,o),
(713.605,1024.37,q),
(780.362,1024.37,o),
(948.404,985.235,o),
(1051.99,902.365,q),
(1058.9,895.459,o),
(1061.2,895.459,q),
(1070.41,895.459,o),
(1081.92,934.593,o),
(1084.22,946.102,q),
(1088.82,976.028,o),
(1098.03,1019.76,q)
);
}
);
width = 1381;
}
);
unicode = 99;
},
{
glyphname = d;
layers = (
{
layerId = "F8A84F20-7B7B-45F5-903D-B244657892CC";
shapes = (
{
closed = 1;
nodes = (
(1141.77,108.192,l),
(1337.43,108.192,l),
(1337.43,0,l),
(1026.67,0,l),
(1026.67,170.344,l),
(1022.07,170.344,l),
(969.122,96.682,o),
(847.118,18.416,o),
(734.323,-18.416,o),
(649.15,-23.02,o),
(633.037,-23.02,q),
(524.845,-23.02,o),
(338.387,59.851,o),
(200.27,197.968,o),
(122.003,384.426,o),
(122.003,488.014,q),
(122.003,605.413,o),
(209.478,794.173,o),
(354.501,927.687,o),
(534.053,999.047,o),
(628.433,999.047,q),
(738.927,999.047,o),
(957.612,897.761,o),
(1022.07,801.079,q),
(1026.67,801.079,l),
(1026.67,1319.02,l),
(656.056,1296,l),
(649.15,1399.59,l),
(1141.77,1443.32,l)
);
},
{
closed = 1;
nodes = (
(1022.07,552.468,o),
(971.424,692.888,o),
(874.742,810.287,o),
(729.719,883.95,o),
(633.037,883.95,q),
(557.072,883.95,o),
(416.653,828.703,o),
(310.764,725.115,o),
(246.309,580.092,o),
(246.309,490.316,q),
(246.309,402.842,o),
(308.462,255.517,o),
(414.351,149.627,o),
(554.77,92.078,o),
(633.037,92.078,q),
(711.303,92.078,o),
(851.722,151.929,o),
(959.914,255.517,o),
(1022.07,398.238,o),
(1022.07,483.41,q)
);
}
);
width = 1381;
}
);
unicode = 100;
},
{
glyphname = e;
layers = (
{
layerId = "F8A84F20-7B7B-45F5-903D-B244657892CC";
shapes = (
{
closed = 1;
nodes = (
(1286.79,131.211,l),
(1240.75,105.89,o),
(1116.45,48.341,o),
(971.424,0,o),
(810.287,-32.227,o),
(729.719,-32.227,q),
(589.3,-32.227,o),
(379.822,55.247,o),
(239.403,200.27,o),
(170.344,391.332,o),
(170.344,492.618,q),
(170.344,598.508,o),
(246.309,791.871,o),
(386.728,939.196,o),
(589.3,1024.37,o),
(715.907,1024.37,q),
(847.118,1024.37,o),
(1042.78,941.498,o),
(1174,807.985,o),
(1238.45,644.547,o),
(1238.45,566.28,q),
(1238.45,538.657,o),
(1233.85,474.202,o),
(1233.85,462.692,q),
(294.65,462.692,l),
(296.952,416.653,o),
(333.783,285.442,o),
(430.465,165.741,o),
(598.508,78.266,o),
(732.021,78.266,q),
(803.381,78.266,o),
(953.008,112.796,o),
(1086.52,161.137,o),
(1197.02,214.082,o),
(1233.85,232.497,q)
);
},
{
closed = 1;
nodes = (
(1114.14,570.884,l),
(1114.14,626.131,o),
(1065.8,748.134,o),
(969.122,849.42,o),
(819.495,913.875,o),
(715.907,913.875,q),
(600.809,913.875,o),
(446.579,835.609,o),
(349.897,727.417,o),
(301.556,610.017,o),
(294.65,570.884,q)
);
}
);
width = 1381;
}
);
unicode = 101;
},
{
glyphname = f;
layers = (
{
layerId = "F8A84F20-7B7B-45F5-903D-B244657892CC";
shapes = (
{
closed = 1;
nodes = (
(462.692,1091.13,l),
(462.692,1162.49,o),
(483.41,1289.09,o),
(554.77,1383.47,o),
(699.793,1438.72,o),
(824.099,1438.72,q),
(920.781,1438.72,o),
(1091.13,1415.7,o),
(1164.79,1401.89,q),
(1116.45,1286.79,l),
(1040.48,1305.21,o),
(867.836,1323.62,o),
(794.173,1323.62,q),
(713.605,1323.62,o),
(626.131,1284.49,o),
(584.696,1217.73,o),
(577.79,1130.26,o),
(577.79,1084.22,q),
(577.79,962.216,l),
(1068.11,962.216,l),
(1068.11,854.024,l),
(577.79,854.024,l),
(577.79,108.192,l),
(1068.11,108.192,l),
(1068.11,0,l),
(223.289,0,l),
(223.289,108.192,l),
(462.692,108.192,l),
(462.692,854.024,l),
(223.289,854.024,l),
(223.289,962.216,l),
(462.692,962.216,l)
);
}
);
width = 1381;
}
);
unicode = 102;
},
{
glyphname = g;
layers = (
{
layerId = "F8A84F20-7B7B-45F5-903D-B244657892CC";
shapes = (
{
closed = 1;
nodes = (
(1273,882,l),
(1087,882,l),
(1087,69,l),
(1087,-37,o),
(1038,-198,o),
(916,-306,o),
(714,-361,o),
(559,-361,q),
(414,-361,l),
(414,-253,l),
(559,-253,o),
(769,-242,o),
(905,-180,o),
(971,-48,o),
(971,69,q),
(971,203,l),
(967,203,l),
(955,184,o),
(895,124,o),
(803,64,o),
(677,23,o),
(601,23,q),
(495,23,o),
(315,101,o),
(184,237,o),
(108,414,o),
(108,511,q),
(108,617,o),
(191,796,o),
(327,925,o),
(504,999,o),
(601,999,q),
(610,999,o),
(691,994,o),
(799,960,o),
(918,889,o),
(967,822,q),
(971,822,l),
(971,990,l),
(1273,990,l)
);
},
{
closed = 1;
nodes = (
(971,592,o),
(912,732,o),
(810,831,o),
(677,884,o),
(605,884,q),
(532,884,o),
(398,829,o),
(295,732,o),
(232,596,o),
(232,513,q),
(232,433,o),
(292,297,o),
(394,196,o),
(529,138,o),
(605,138,q),
(686,138,o),
(822,200,o),
(918,302,o),
(971,435,o),
(971,506,q)
);
}
);
width = 1381;
}
);
unicode = 103;
},
{
glyphname = h;
layers = (
{
layerId = "F8A84F20-7B7B-45F5-903D-B244657892CC";
shapes = (
{
closed = 1;
nodes = (
(395.936,860.93,l),
(432.767,888.553,o),
(520.241,946.102,o),
(616.923,994.443,o),
(727.417,1024.37,o),
(789.57,1024.37,q),
(867.836,1024.37,o),
(994.443,969.122,o),
(1084.22,867.836,o),
(1130.26,727.417,o),
(1130.26,644.547,q),
(1130.26,108.192,l),
(1323.62,108.192,l),
(1323.62,0,l),
(819.495,0,l),
(819.495,108.192,l),
(1015.16,108.192,l),
(1015.16,635.339,l),
(1015.16,759.644,o),
(897.761,909.271,o),
(794.173,909.271,q),
(738.927,909.271,o),
(633.037,877.044,o),
(529.449,824.099,o),
(437.371,759.644,o),
(395.936,725.115,q),
(395.936,108.192,l),
(577.79,108.192,l),
(577.79,0,l),
(87.474,0,l),
(87.474,108.192,l),
(280.838,108.192,l),
(280.838,1330.53,l),
(66.757,1312.11,l),
(57.549,1420.3,l),
(395.936,1447.93,l)
);
}
);
width = 1381;
}
);
unicode = 104;
},
{
glyphname = i;
layers = (
{
layerId = "F8A84F20-7B7B-45F5-903D-B244657892CC";
shapes = (
{
closed = 1;
nodes = (
(753,108,l),
(1151,108,l),
(1151,0,l),
(232,0,l),
(232,108,l),
(638,108,l),
(638,882,l),
(299,882,l),
(299,990,l),
(753,990,l)
);
},
{
closed = 1;
nodes = (
(753,1510,l),
(753,1236,l),
(587,1236,l),
(587,1510,l)
);
}
);
width = 1381;
}
);
unicode = 105;
},
{
glyphname = j;
layers = (
{
layerId = "F8A84F20-7B7B-45F5-903D-B244657892CC";
shapes = (
{
closed = 1;
nodes = (
(897.761,92.078,l),
(897.761,46.039,o),
(883.95,-103.588,o),
(803.381,-244.007,o),
(628.433,-347.595,o),
(467.296,-347.595,q),
(375.218,-347.595,o),
(223.289,-322.273,o),
(156.533,-308.462,q),
(181.854,-197.968,l),
(227.893,-209.478,o),
(386.728,-232.497,o),
(474.202,-232.497,q),
(589.3,-232.497,o),
(715.907,-163.439,o),
(773.456,-59.851,o),
(782.664,59.851,o),
(782.664,108.192,q),
(782.664,881.648,l),
(195.666,881.648,l),
(195.666,989.839,l),
(897.761,989.839,l)
);
},
{
closed = 1;
nodes = (
(851.722,1510.08,l),
(851.722,1236.15,l),
(685.982,1236.15,l),
(685.982,1510.08,l)
);
}
);
width = 1381;
}
);
unicode = 106;
},
{
glyphname = k;
layers = (
{
layerId = "F8A84F20-7B7B-45F5-903D-B244657892CC";
shapes = (
{
closed = 1;
nodes = (
(425.861,550.167,l),
(856.326,877.044,l),
(856.326,881.648,l),
(727.417,881.648,l),
(727.417,989.839,l),
(1208.52,989.839,l),
(1208.52,881.648,l),
(1028.97,881.648,l),
(642.245,584.696,l),
(711.303,522.543,o),
(849.42,386.728,o),
(971.424,260.121,o),
(1070.41,147.325,o),
(1102.64,108.192,q),
(1296,108.192,l),
(1296,0,l),
(817.193,0,l),
(817.193,108.192,l),
(964.518,108.192,l),
(929.989,149.627,o),
(856.326,230.195,o),
(759.644,324.575,o),
(637.641,441.975,o),
(554.77,520.241,q),
(425.861,421.257,l),
(425.861,0,l),
(119.702,0,l),
(119.702,108.192,l),
(310.764,108.192,l),
(310.764,1328.23,l),
(92.078,1309.81,l),
(82.87,1418,l),
(425.861,1447.93,l)
);
}
);
width = 1381;
}
);
unicode = 107;
},
{
glyphname = l;
layers = (
{
layerId = "F8A84F20-7B7B-45F5-903D-B244657892CC";
shapes = (
{
closed = 1;
nodes = (
(748.134,108.192,l),
(1148.67,108.192,l),
(1148.67,0,l),
(232.497,0,l),
(232.497,108.192,l),
(633.037,108.192,l),
(633.037,1296,l),
(257.819,1268.38,l),
(246.309,1374.27,l),
(748.134,1406.49,l)
);
}
);
width = 1381;
}
);
unicode = 108;
},
{
glyphname = m;
layers = (
{
layerId = "F8A84F20-7B7B-45F5-903D-B244657892CC";
shapes = (
{
closed = 1;
nodes = (
(262.423,909.271,l),
(292.348,934.593,l),
(294.65,936.894,o),
(326.877,962.216,o),
(377.52,992.141,o),
(448.881,1015.16,o),
(490.316,1015.16,q),
(563.978,1015.16,o),
(688.284,939.196,o),
(720.511,870.138,q),
(771.154,929.989,o),
(902.365,1015.16,o),
(982.934,1015.16,q),
(1042.78,1015.16,o),
(1157.88,962.216,o),
(1187.81,916.177,q),
(1203.92,890.855,o),
(1226.94,842.514,o),
(1240.75,780.362,o),
(1247.66,690.586,o),
(1247.66,626.131,q),
(1247.66,108.192,l),
(1378.87,108.192,l),
(1378.87,0,l),
(1132.56,0,l),
(1132.56,626.131,l),
(1132.56,674.472,o),
(1127.96,771.154,o),
(1100.33,851.722,o),
(1040.48,900.063,o),
(985.235,900.063,q),
(936.894,900.063,o),
(824.099,837.911,o),
(759.644,748.134,q),
(759.644,108.192,l),
(902.365,108.192,l),
(902.365,0,l),
(644.547,0,l),
(644.547,635.339,l),
(644.547,672.17,o),
(639.943,766.55,o),
(612.319,844.816,o),
(550.167,900.063,o),
(492.618,900.063,q),
(451.183,900.063,o),
(382.124,872.44,o),
(326.877,833.307,o),
(285.442,789.57,o),
(271.63,771.154,q),
(271.63,108.192,l),
(428.163,108.192,l),
(428.163,0,l),
(0,0,l),
(0,108.192,l),
(156.533,108.192,l),
(156.533,881.648,l),
(0,881.648,l),
(0,989.839,l),
(262.423,989.839,l)
);
}
);
width = 1381;
}
);
unicode = 109;
},
{
glyphname = n;
layers = (
{
layerId = "F8A84F20-7B7B-45F5-903D-B244657892CC";
shapes = (
{
closed = 1;
nodes = (
(382,861,l),
(419,889,o),
(506,946,o),
(605,994,o),
(716,1024,o),
(778,1024,q),
(856,1024,o),
(983,969,o),
(1073,868,o),
(1121,727,o),
(1121,645,q),
(1121,108,l),
(1305,108,l),
(1305,0,l),
(808,0,l),
(808,108,l),
(1006,108,l),
(1006,635,l),
(1006,762,o),
(884,909,o),
(780,909,q),
(753,909,o),
(679,898,o),
(582,859,o),
(460,787,o),
(382,725,q),
(382,108,l),
(575,108,l),
(575,0,l),
(78,0,l),
(78,108,l),
(267,108,l),
(267,882,l),
(78,882,l),
(78,990,l),
(382,990,l)
);
}
);
width = 1381;
}
);
unicode = 110;
},
{
glyphname = o;
layers = (
{
layerId = "F8A84F20-7B7B-45F5-903D-B244657892CC";
shapes = (
{
closed = 1;
nodes = (
(120,605,o),
(193,799,o),
(336,946,o),
(550,1036,o),
(691,1036,q),
(836,1036,o),
(1050,944,o),
(1190,792,o),
(1261,601,o),
(1261,502,q),
(1261,403,o),
(1190,212,o),
(1050,60,o),
(836,-32,o),
(691,-32,q),
(550,-32,o),
(336,58,o),
(193,207,o),
(120,398,o),
(120,502,q)
);
},
{
closed = 1;
nodes = (
(244,421,o),
(302,269,o),
(414,152,o),
(582,83,o),
(691,83,q),
(801,83,o),
(969,154,o),
(1080,272,o),
(1137,421,o),
(1137,502,q),
(1137,580,o),
(1080,732,o),
(969,849,o),
(801,921,o),
(691,921,q),
(582,921,o),
(417,852,o),
(302,734,o),
(244,585,o),
(244,502,q)
);
}
);
width = 1381;
}
);
unicode = 111;
},
{
glyphname = p;
layers = (
{
layerId = "F8A84F20-7B7B-45F5-903D-B244657892CC";
shapes = (
{
closed = 1;
nodes = (
(347.595,826.401,l),
(352.199,826.401,l),
(366.01,847.118,o),
(423.559,911.573,o),
(520.241,973.726,o),
(656.056,1019.76,o),
(748.134,1019.76,q),
(865.534,1019.76,o),
(1054.29,932.291,o),
(1190.11,787.268,o),
(1261.47,603.111,o),
(1261.47,504.127,q),
(1261.47,389.03,o),
(1171.69,197.968,o),
(1028.97,59.851,o),
(844.816,-16.114,o),
(752.738,-16.114,q),
(738.927,-16.114,o),
(656.056,-9.208,o),
(540.959,27.623,o),
(412.049,108.192,o),
(352.199,181.854,q),
(347.595,181.854,l),
(347.595,-253.215,l),
(690.586,-253.215,l),
(690.586,-361.406,l),
(43.737,-361.406,l),
(43.737,-253.215,l),
(232.497,-253.215,l),
(232.497,881.648,l),
(43.737,881.648,l),
(43.737,989.839,l),
(347.595,989.839,l)
);
},
{
closed = 1;
nodes = (
(338.387,409.747,o),
(416.653,255.517,o),
(536.355,151.929,o),
(681.378,98.984,o),
(748.134,98.984,q),
(826.401,98.984,o),
(966.82,161.137,o),
(1072.71,269.328,o),
(1137.16,418.955,o),
(1137.16,506.429,q),
(1137.16,577.79,o),
(1088.82,720.511,o),
(992.141,833.307,o),
(847.118,904.667,o),
(750.436,904.667,q),
(660.66,904.667,o),
(508.731,840.212,o),
(400.54,734.323,o),
(338.387,589.3,o),
(338.387,511.033,q)
);
}
);
width = 1381;
}
);
unicode = 112;
},
{
glyphname = q;
layers = (
{
layerId = "F8A84F20-7B7B-45F5-903D-B244657892CC";
shapes = (
{
closed = 1;
nodes = (
(1148.67,881.648,l),
(1148.67,-253.215,l),
(1337.43,-253.215,l),
(1337.43,-361.406,l),
(690.586,-361.406,l),
(690.586,-253.215,l),
(1033.58,-253.215,l),
(1033.58,181.854,l),
(1028.97,181.854,l),
(969.122,108.192,o),
(840.212,27.623,o),
(725.115,-9.208,o),
(642.245,-16.114,o),
(628.433,-16.114,q),
(534.053,-16.114,o),
(352.199,59.851,o),
(209.478,197.968,o),
(119.702,389.03,o),
(119.702,504.127,q),
(119.702,603.111,o),
(191.062,787.268,o),
(326.877,932.291,o),
(515.637,1019.76,o),
(633.037,1019.76,q),
(725.115,1019.76,o),
(860.93,973.726,o),
(957.612,911.573,o),
(1015.16,847.118,o),
(1028.97,826.401,q),
(1033.58,826.401,l),
(1033.58,989.839,l),
(1337.43,989.839,l),
(1337.43,881.648,l)
);
},
{
closed = 1;
nodes = (
(1042.78,589.3,o),
(980.632,734.323,o),
(872.44,840.212,o),
(720.511,904.667,o),
(630.735,904.667,q),
(534.053,904.667,o),
(389.03,833.307,o),
(292.348,720.511,o),
(244.007,577.79,o),
(244.007,506.429,q),
(244.007,418.955,o),
(306.16,269.328,o),
(414.351,161.137,o),
(554.77,98.984,o),
(633.037,98.984,q),
(699.793,98.984,o),
(844.816,151.929,o),
(964.518,255.517,o),
(1042.78,409.747,o),
(1042.78,511.033,q)
);
}
);
width = 1381;
}
);
unicode = 113;
},
{
glyphname = r;
layers = (
{
layerId = "F8A84F20-7B7B-45F5-903D-B244657892CC";
shapes = (
{
closed = 1;
nodes = (
(573.186,759.644,l),
(612.319,798.777,o),
(709,890.855,o),
(826.4,969.122,o),
(966.819,1022.07,o),
(1049.689,1022.07,q),
(1102.639,1022.07,o),
(1183.199,999.047,o),
(1245.359,962.216,o),
(1289.089,918.479,o),
(1307.509,895.459,q),
(1185.509,805.683,l),
(1183.199,807.985,o),
(1176.299,817.193,o),
(1176.299,821.797,q),
(1167.089,835.609,o),
(1146.369,865.534,o),
(1114.139,890.855,o),
(1065.799,906.969,o),
(1031.269,906.969,q),
(955.309,906.969,o),
(814.89,840.212,o),
(697.49,745.832,o),
(603.11,644.547,o),
(573.185,612.319,q),
(573.185,108.192,l),
(1010.559,108.192,l),
(1010.559,0,l),
(172.645,0,l),
(172.645,108.192,l),
(458.087,108.192,l),
(458.087,881.648,l),
(191.061,881.648,l),
(191.061,989.839,l),
(573.185,989.839,l)
);
}
);
width = 1381;
}
);
unicode = 114;
},
{
glyphname = s;
layers = (
{
layerId = "F8A84F20-7B7B-45F5-903D-B244657892CC";
shapes = (
{
closed = 1;
nodes = (
(1109.54,1019.76,l),
(1102.64,982.934,o),
(1088.82,888.553,o),
(1088.82,821.797,q),
(1088.82,773.456,o),
(1095.73,706.699,o),
(1100.33,676.774,q),
(999.047,665.264,l),
(992.141,699.793,o),
(966.82,782.664,o),
(895.459,854.024,o),
(757.342,904.667,o),
(637.641,904.667,q),
(499.524,904.667,o),
(352.199,805.683,o),
(352.199,734.323,q),
(352.199,672.17,o),
(423.559,600.809,o),
(552.468,561.676,o),
(725.115,547.865,o),
(826.401,543.261,q),
(847.118,543.261,o),
(955.31,529.449,o),
(1070.41,478.806,o),
(1160.18,375.218,o),
(1160.18,285.442,q),
(1160.18,202.572,o),
(1079.62,80.568,o),
(950.706,2.302,o),
(796.475,-34.529,o),
(720.511,-34.529,q),
(658.358,-34.529,o),
(552.468,-13.812,o),
(464.994,18.416,o),
(402.842,50.643,o),
(382.124,62.153,q),
(382.124,62.153,o),
(377.52,64.455,q),
(375.218,66.757,o),
(370.614,66.757,q),
(354.501,66.757,o),
(336.085,9.208,o),
(324.575,-29.925,q),
(223.289,-29.925,l),
(227.893,0,o),
(237.101,57.549,o),
(237.101,115.098,q),
(237.101,188.76,o),
(227.893,303.858,o),
(223.289,342.991,q),
(324.575,354.501,l),
(329.179,324.575,o),
(356.803,232.497,o),
(432.767,145.023,o),
(575.488,80.568,o),
(695.19,80.568,q),
(729.719,80.568,o),
(844.816,94.38,o),
(955.31,135.815,o),
(1035.88,214.082,o),
(1035.88,280.838,q),
(1035.88,331.481,o),
(987.537,391.332,o),
(900.063,421.257,o),
(778.06,430.465,o),
(706.699,432.767,q),
(660.66,435.069,o),
(499.524,451.183,o),
(342.991,508.731,o),
(227.893,626.131,o),
(227.893,729.719,q),
(227.893,791.871,o),
(287.744,897.761,o),
(393.634,976.028,o),
(545.563,1019.76,o),
(635.339,1019.76,q),
(738.927,1019.76,o),
(867.836,971.424,o),
(900.063,953.008,q),
(904.667,948.404,o),
(936.894,932.291,o),
(950.706,932.291,q),
(969.122,932.291,o),
(987.537,976.028,o),
(992.141,987.537,q),
(996.745,1010.56,o),
(1001.35,1024.37,o),
(1005.95,1035.88,q)
);
}
);
width = 1381;
}
);
unicode = 115;
},
{
glyphname = t;
layers = (
{
layerId = "F8A84F20-7B7B-45F5-903D-B244657892CC";
shapes = (
{
closed = 1;
nodes = (
(513,958,l),
(1070,958,l),
(1070,849,l),
(513,849,l),
(513,414,l),
(513,350,o),
(520,230,o),
(564,138,o),
(663,83,o),
(753,83,q),
(780,83,o),
(852,90,o),
(953,113,o),
(1096,161,o),
(1197,203,q),
(1238,99,l),
(1128,48,o),
(877,-32,o),
(764,-32,q),
(654,-32,o),
(516,35,o),
(479,71,q),
(419,131,o),
(398,299,o),
(398,414,q),
(398,849,l),
(242,849,l),
(242,958,l),
(398,958,l),
(398,1296,l),
(513,1296,l)
);
}
);
width = 1381;
}
);
unicode = 116;
},
{
glyphname = u;
layers = (
{
layerId = "F8A84F20-7B7B-45F5-903D-B244657892CC";
shapes = (
{
closed = 1;
nodes = (
(377.52,379.822,l),
(377.52,356.803,o),
(384.426,257.819,o),
(428.163,158.835,o),
(520.241,82.87,o),
(607.715,82.87,q),
(704.397,82.87,o),
(881.648,179.552,o),
(978.33,283.14,q),
(978.33,881.648,l),
(780.362,881.648,l),
(780.362,989.839,l),
(1093.43,989.839,l),
(1093.43,108.192,l),
(1279.89,108.192,l),
(1279.89,0,l),
(978.33,0,l),
(978.33,126.607,l),
(953.008,105.89,o),
(883.95,50.643,o),
(794.173,2.302,o),
(683.68,-32.227,o),
(616.923,-32.227,q),
(508.731,-32.227,o),
(370.614,46.039,o),
(292.348,165.741,o),
(262.423,310.764,o),
(262.423,379.822,q),
(262.423,881.648,l),
(73.662,881.648,l),
(73.662,989.839,l),
(377.52,989.839,l)
);
}
);
width = 1381;
}
);
unicode = 117;
},
{
glyphname = v;
layers = (
{
layerId = "F8A84F20-7B7B-45F5-903D-B244657892CC";
shapes = (
{
closed = 1;
nodes = (
(538.657,881.648,l),
(352.199,881.648,l),
(697.491,133.513,l),
(1047.39,881.648,l),
(865.534,881.648,l),
(865.534,989.839,l),
(1332.83,989.839,l),
(1332.83,881.648,l),
(1162.49,881.648,l),
(745.832,0,l),
(637.641,0,l),
(218.685,881.648,l),
(48.341,881.648,l),
(48.341,989.839,l),
(538.657,989.839,l)
);
}
);
width = 1381;
}
);
unicode = 118;
},
{
glyphname = w;
layers = (
{
layerId = "F8A84F20-7B7B-45F5-903D-B244657892CC";
shapes = (
{
closed = 1;
nodes = (
(416.653,881.648,l),
(225.591,881.648,l),
(428.163,184.156,l),
(432.767,184.156,l),
(658.358,810.287,l),
(738.927,810.287,l),
(966.82,174.948,l),
(971.424,174.948,l),
(1178.6,881.648,l),
(985.235,881.648,l),
(985.235,989.839,l),
(1376.57,989.839,l),
(1376.57,881.648,l),
(1286.79,881.648,l),
(1028.97,0,l),
(909.271,0,l),
(690.586,593.904,l),
(476.504,0,l),
(363.708,0,l),
(103.588,881.648,l),
(4.604,881.648,l),
(4.604,989.839,l),
(416.653,989.839,l)
);
}
);
width = 1381;
}
);
unicode = 119;
},
{
glyphname = x;
layers = (
{
layerId = "F8A84F20-7B7B-45F5-903D-B244657892CC";
shapes = (
{
closed = 1;
nodes = (
(539,882,l),
(398,882,l),
(686,594,l),
(974,882,l),
(840,882,l),
(840,990,l),
(1264,990,l),
(1264,882,l),
(1123,882,l),
(762,518,l),
(1176,108,l),
(1321,108,l),
(1321,0,l),
(854,0,l),
(854,108,l),
(1017,108,l),
(686,444,l),
(352,108,l),
(513,108,l),
(513,0,l),
(60,0,l),
(60,108,l),
(203,108,l),
(608,518,l),
(242,882,l),
(94,882,l),
(94,990,l),
(539,990,l)
);
}
);
width = 1381;
}
);
unicode = 120;
},
{
glyphname = y;
layers = (
{
layerId = "F8A84F20-7B7B-45F5-903D-B244657892CC";
shapes = (
{
closed = 1;
nodes = (
(485.712,881.648,l),
(326.877,881.648,l),
(690.586,181.854,l),
(1091.13,881.648,l),
(934.593,881.648,l),
(934.593,989.839,l),
(1355.85,989.839,l),
(1355.85,881.648,l),
(1222.34,881.648,l),
(577.79,-244.007,l),
(782.664,-244.007,l),
(782.664,-352.199,l),
(92.078,-352.199,l),
(92.078,-244.007,l),
(446.579,-244.007,l),
(623.829,62.153,l),
(195.666,881.648,l),
(55.247,881.648,l),
(55.247,989.839,l),
(485.712,989.839,l)
);
}
);
width = 1381;
}
);
unicode = 121;
},
{
glyphname = z;
layers = (
{
layerId = "F8A84F20-7B7B-45F5-903D-B244657892CC";
shapes = (
{
closed = 1;
nodes = (
(1141.77,890.855,l),
(395.936,108.192,l),
(1033.58,108.192,l),
(1033.58,319.971,l),
(1141.77,319.971,l),
(1141.77,0,l),
(239.403,0,l),
(239.403,108.192,l),
(978.33,881.648,l),
(370.614,881.648,l),
(370.614,676.774,l),
(262.423,676.774,l),
(262.423,989.839,l),
(1141.77,989.839,l)
);
}
);
width = 1381;
}
);
unicode = 122;
},
{
glyphname = braceleft;
layers = (
{
layerId = "F8A84F20-7B7B-45F5-903D-B244657892CC";
shapes = (
{
closed = 1;
nodes = (
(1061.2,1390.38,l),
(1019.76,1390.38,o),
(927.687,1383.47,o),
(851.722,1348.94,o),
(801.079,1279.89,o),
(801.079,1217.73,q),
(801.079,1180.9,o),
(810.287,1104.94,o),
(828.703,1031.27,q),
(847.118,950.706,l),
(849.42,939.196,o),
(858.628,877.044,o),
(858.628,849.42,q),
(858.628,807.985,o),
(835.609,743.53,o),
(798.777,695.19,o),
(752.738,656.056,o),
(732.021,639.943,q),
(752.738,623.829,o),
(796.475,586.998,o),
(835.609,538.657,o),
(858.628,474.202,o),
(858.628,432.767,q),
(858.628,405.144,o),
(849.42,342.991,o),
(847.118,331.481,q),
(828.703,250.913,l),
(810.287,177.25,o),
(801.079,101.286,o),
(801.079,62.153,q),
(801.079,0,o),
(854.024,-69.059,o),
(934.593,-101.286,o),
(1024.37,-108.192,o),
(1061.2,-108.192,q),
(1061.2,-218.685,l),
(969.122,-218.685,l),
(932.291,-218.685,o),
(872.44,-200.27,q),
(780.362,-170.344,o),
(681.378,-25.322,o),
(681.378,66.757,q),
(681.378,82.87,o),
(685.982,142.721,o),
(695.19,181.854,q),
(695.19,195.666,o),
(711.303,262.423,o),
(715.907,276.234,q),
(722.813,313.065,o),
(736.625,398.238,o),
(736.625,437.371,q),
(736.625,483.41,o),
(688.284,538.657,o),
(623.829,568.582,o),
(557.072,580.092,o),
(540.959,582.394,q),
(540.959,699.793,l),
(628.433,709.001,o),
(736.625,778.06,o),
(736.625,849.42,q),
(736.625,870.138,o),
(732.021,916.177,o),
(725.115,962.216,o),
(718.209,996.745,o),
(715.907,1005.95,q),
(706.699,1054.29,o),
(692.888,1114.14,o),
(685.982,1155.58,o),
(681.378,1187.81,o),
(681.378,1208.52,q),
(681.378,1323.62,o),
(782.664,1443.32,o),
(913.875,1496.27,o),
(1038.18,1500.87,o),
(1061.2,1500.87,q)
);
}
);
width = 1381;
}
);
unicode = 123;
},
{
glyphname = bar;
layers = (
{
layerId = "F8A84F20-7B7B-45F5-903D-B244657892CC";
shapes = (
{
closed = 1;
nodes = (
(630.735,-425.861,l),
(630.735,1549.21,l),
(752.738,1549.21,l),
(752.738,-425.861,l)
);
}
);
width = 1381;
}
);
unicode = 124;
},
{
glyphname = braceright;
layers = (
{
layerId = "F8A84F20-7B7B-45F5-903D-B244657892CC";
shapes = (
{
closed = 1;
nodes = (
(319.971,-108.192,l),
(361.406,-108.192,o),
(453.485,-101.286,o),
(529.449,-66.757,o),
(580.092,2.302,o),
(580.092,64.455,q),
(580.092,101.286,o),
(570.884,177.25,o),
(552.468,250.913,q),
(534.053,331.481,l),
(531.751,342.991,o),
(522.543,405.144,o),
(522.543,432.767,q),
(522.543,474.202,o),
(545.563,538.657,o),
(582.394,586.998,o),
(628.433,626.131,o),
(649.15,642.245,q),
(607.715,672.17,o),
(522.543,766.55,o),
(522.543,849.42,q),
(522.543,877.044,o),
(531.751,939.196,o),
(534.053,950.706,q),
(552.468,1031.27,l),
(570.884,1104.94,o),
(580.092,1180.9,o),
(580.092,1220.03,q),
(580.092,1282.19,o),
(524.845,1351.25,o),
(446.579,1383.47,o),
(356.803,1390.38,o),
(319.971,1390.38,q),
(319.971,1500.87,l),
(409.747,1500.87,l),
(448.881,1500.87,o),
(508.731,1482.46,q),
(600.809,1452.53,o),
(699.793,1307.51,o),
(699.793,1215.43,q),
(699.793,1199.32,o),
(695.19,1139.47,o),
(685.982,1100.33,q),
(685.982,1086.52,o),
(669.868,1019.76,o),
(665.264,1005.95,q),
(658.358,969.122,o),
(644.547,883.95,o),
(644.547,844.816,q),
(644.547,798.777,o),
(692.888,743.53,o),
(757.342,713.605,o),
(821.797,702.095,o),
(840.212,699.793,q),
(840.212,582.394,l),
(752.738,573.186,o),
(644.547,504.127,o),
(644.547,432.767,q),
(644.547,412.049,o),
(649.15,366.01,o),
(656.056,319.971,o),
(662.962,285.442,o),
(665.264,276.234,q),
(674.472,227.893,o),
(688.284,168.042,o),
(695.19,126.607,o),
(699.793,94.38,o),
(699.793,73.662,q),
(699.793,-41.435,o),
(598.508,-163.439,o),
(467.296,-214.082,o),
(342.991,-218.685,o),
(319.971,-218.685,q)
);
}
);
width = 1381;
}
);
unicode = 125;
},
{
glyphname = asciitilde;
layers = (
{
layerId = "F8A84F20-7B7B-45F5-903D-B244657892CC";
shapes = (
{
closed = 1;
nodes = (
(1185.51,803.381,l),
(1171.69,778.06,o),
(1123.35,704.397,o),
(1051.99,635.339,o),
(959.914,584.696,o),
(902.365,584.696,q),
(893.157,584.696,o),
(867.836,586.998,o),
(821.797,598.508,o),
(745.832,623.829,o),
(685.982,649.15,q),
(630.735,672.17,o),
(566.28,699.793,o),
(524.845,713.605,o),
(494.92,718.209,o),
(478.806,718.209,q),
(409.747,718.209,o),
(322.273,610.017,o),
(273.932,527.147,q),
(197.968,616.923,l),
(220.987,656.056,o),
(273.932,738.927,o),
(340.689,805.683,o),
(423.559,849.42,o),
(478.806,849.42,q),
(529.449,849.42,o),
(630.735,814.891,o),
(720.511,775.758,q),
(766.55,757.342,o),
(826.401,734.323,o),
(863.232,720.511,o),
(888.553,715.907,o),
(900.063,715.907,q),
(913.875,715.907,o),
(955.31,725.115,o),
(1008.25,757.342,o),
(1065.8,817.193,o),
(1095.73,870.138,q),
(1095.73,874.742,o),
(1104.94,888.553,o),
(1107.24,890.855,q)
);
}
);
width = 1381;
}
);
unicode = 126;
},
{
glyphname = exclamdown;
layers = (
{
layerId = "F8A84F20-7B7B-45F5-903D-B244657892CC";
shapes = (
{
closed = 1;
nodes = (
(743.53,552.468,l),
(784.966,-317.669,l),
(593.904,-317.669,l),
(637.641,552.468,l)
);
},
{
closed = 1;
nodes = (
(621.527,752.738,o),
(531.751,835.609,o),
(531.751,895.459,q),
(531.751,955.31,o),
(623.829,1035.88,o),
(690.586,1035.88,q),
(757.342,1035.88,o),
(849.42,953.008,o),
(849.42,893.157,q),
(849.42,833.307,o),
(757.342,752.738,o),
(690.586,752.738,q)
);
}
);
width = 1381;
}
);
unicode = 161;
},
{
glyphname = cent;
layers = (
{
layerId = "F8A84F20-7B7B-45F5-903D-B244657892CC";
shapes = (
{
closed = 1;
nodes = (
(764.248,313.065,l),
(814.891,322.273,o),
(890.855,340.689,o),
(966.82,368.312,o),
(1054.29,414.351,o),
(1116.45,453.485,q),
(1171.69,359.105,l),
(1169.39,359.105,o),
(1160.18,352.199,o),
(1157.88,352.199,q),
(1102.64,315.367,o),
(1017.46,267.026,o),
(932.291,234.799,o),
(833.307,211.78,o),
(764.248,200.27,q),
(764.248,-131.211,l),
(651.452,-131.211,l),
(651.452,200.27,l),
(586.998,214.082,o),
(492.618,244.007,o),
(421.257,285.442,o),
(363.708,342.991,o),
(336.085,382.124,q),
(301.556,435.069,o),
(255.517,563.978,o),
(255.517,646.849,q),
(255.517,727.417,o),
(308.462,877.044,o),
(407.446,996.745,o),
(554.77,1079.62,o),
(651.452,1095.73,q),
(651.452,1408.79,l),
(764.248,1408.79,l),
(764.248,1095.73,l),
(819.495,1091.13,o),
(904.667,1063.5,o),
(962.216,1033.58,o),
(996.745,1003.65,o),
(1001.35,999.047,q),
(1005.95,996.745,o),
(1010.56,989.839,o),
(1015.16,989.839,q),
(1022.07,989.839,o),
(1028.97,1005.95,o),
(1035.88,1024.37,o),
(1035.88,1033.58,q),
(1038.18,1040.48,o),
(1038.18,1042.78,q),
(1040.48,1054.29,o),
(1042.78,1068.11,o),
(1042.78,1070.41,q),
(1150.98,1058.9,l),
(1144.07,1017.46,o),
(1130.26,918.479,o),
(1130.26,872.44,q),
(1130.26,849.42,o),
(1132.56,787.268,o),
(1137.16,734.323,q),
(1028.97,720.511,l),
(1028.97,741.229,o),
(1024.37,796.475,o),
(1005.95,854.024,o),
(971.424,911.573,o),
(941.498,932.291,q),
(895.459,964.518,o),
(794.173,989.839,o),
(764.248,989.839,q)
);
},
{
closed = 1;
nodes = (
(651.452,982.934,l),
(547.865,959.914,o),
(435.069,856.326,o),
(384.426,745.832,o),
(375.218,656.056,o),
(375.218,649.15,q),
(375.218,598.508,o),
(412.049,478.806,o),
(453.485,425.861,q),
(499.524,366.01,o),
(600.809,326.877,o),
(651.452,315.367,q)
);
}
);
width = 1381;
}
);
unicode = 162;
},
{
glyphname = sterling;
layers = (
{
layerId = "F8A84F20-7B7B-45F5-903D-B244657892CC";
shapes = (
{
closed = 1;
nodes = (
(430.465,780.362,l),
(395.936,872.44,o),
(370.614,978.33,o),
(370.614,1031.27,q),
(370.614,1111.84,o),
(437.371,1249.96,o),
(552.468,1351.25,o),
(699.793,1408.79,o),
(782.664,1408.79,q),
(870.138,1408.79,o),
(996.745,1371.96,o),
(1045.09,1353.55,q),
(1049.69,1351.25,o),
(1065.8,1346.64,o),
(1070.41,1346.64,q),
(1075.01,1346.64,o),
(1081.92,1353.55,o),
(1088.82,1369.66,q),
(1192.41,1369.66,l),
(1174,1305.21,o),
(1153.28,1194.71,o),
(1148.67,1111.84,q),
(1045.09,1100.33,l),
(1047.39,1127.96,o),
(1049.69,1167.09,o),
(1049.69,1176.3,q),
(1049.69,1190.11,o),
(1038.18,1229.24,o),
(1019.76,1240.75,q),
(994.443,1254.56,o),
(860.93,1296,o),
(787.268,1296,q),
(713.605,1296,o),
(598.508,1249.96,o),
(522.543,1174,o),
(483.41,1079.62,o),
(483.41,1033.58,q),
(483.41,1008.25,o),
(490.316,964.518,o),
(504.127,906.969,o),
(527.147,833.307,o),
(545.563,780.362,q),
(1104.94,780.362,l),
(1104.94,672.17,l),
(577.79,672.17,l),
(589.3,626.131,o),
(598.508,552.468,o),
(598.508,504.127,q),
(598.508,354.501,o),
(517.939,165.741,o),
(476.504,112.796,q),
(481.108,108.192,l),
(513.335,124.305,o),
(591.602,151.929,o),
(644.547,151.929,q),
(685.982,151.929,o),
(759.644,135.815,o),
(821.797,110.494,q),
(872.44,92.078,o),
(927.687,75.964,o),
(953.008,75.964,q),
(1008.25,75.964,o),
(1093.43,124.305,o),
(1148.67,170.344,q),
(1215.43,87.474,l),
(1199.32,71.361,o),
(1150.98,29.925,o),
(1088.82,-6.906,o),
(1008.25,-32.227,o),
(959.914,-32.227,q),
(927.687,-32.227,o),
(854.024,-18.416,o),
(798.777,2.302,q),
(734.323,25.322,o),
(669.868,43.737,o),
(633.037,43.737,q),
(586.998,43.737,o),
(469.598,9.208,o),
(372.916,-46.039,q),
(296.952,52.945,l),
(363.708,122.003,o),
(441.975,257.819,o),
(481.108,375.218,o),
(490.316,467.296,o),
(490.316,494.92,q),
(490.316,584.696,o),
(462.692,672.17,q),
(220.987,672.17,l),
(220.987,780.362,l)
);
}
);
width = 1381;
}
);
unicode = 163;
},
{
glyphname = currency;
layers = (
{
layerId = "F8A84F20-7B7B-45F5-903D-B244657892CC";
shapes = (
{
closed = 1;
nodes = (
(1127.96,140.419,l),
(941.498,324.575,l),
(870.138,267.026,o),
(727.417,239.403,o),
(690.586,239.403,q),
(676.774,239.403,o),
(623.829,244.007,o),
(557.072,260.121,o),
(478.806,294.65,o),
(439.673,324.575,q),
(253.215,140.419,l),
(172.646,218.685,l),
(361.406,402.842,l),
(301.556,490.316,o),
(280.838,614.621,o),
(280.838,633.037,q),
(280.838,743.53,o),
(336.085,863.232,o),
(361.406,897.761,q),
(172.646,1084.22,l),
(253.215,1160.18,l),
(439.673,976.028,l),
(511.033,1031.27,o),
(644.547,1061.2,o),
(690.586,1061.2,q),
(741.229,1061.2,o),
(821.797,1042.78,o),
(883.95,1015.16,o),
(927.687,985.235,o),
(941.498,976.028,q),
(1127.96,1160.18,l),
(1208.52,1084.22,l),
(1019.76,897.761,l),
(1077.31,817.193,o),
(1102.64,692.888,o),
(1102.64,667.566,q),
(1102.64,557.072,o),
(1042.78,435.069,o),
(1019.76,402.842,q),
(1208.52,218.685,l)
);
},
{
closed = 1;
nodes = (
(994.443,709,o),
(953.008,817.192,o),
(872.44,902.364,o),
(759.644,953.007,o),
(690.586,953.007,q),
(619.225,953.007,o),
(508.731,900.062,o),
(430.465,814.89,o),
(389.03,706.698,o),
(389.03,651.451,q),
(389.03,591.601,o),
(430.465,483.409,o),
(506.429,398.237,o),
(619.225,347.594,o),
(688.284,347.594,q),
(757.342,347.594,o),
(872.44,398.237,o),
(950.706,483.409,o),
(994.443,591.601,o),
(994.443,651.451,q)
);
}
);
width = 1381;
}
);
unicode = 164;
},
{
glyphname = yen;
layers = (
{
layerId = "F8A84F20-7B7B-45F5-903D-B244657892CC";
shapes = (
{
closed = 1;
nodes = (
(1026.67,108.192,l),
(1026.67,0,l),
(368.312,0,l),
(368.312,108.192,l),
(642.245,108.192,l),
(642.245,319.971,l),
(303.858,319.971,l),
(303.858,428.163,l),
(642.245,428.163,l),
(642.245,561.676,l),
(303.858,561.676,l),
(303.858,669.868,l),
(642.245,669.868,l),
(642.245,699.793,l),
(214.082,1256.87,l),
(73.662,1256.87,l),
(73.662,1365.06,l),
(527.147,1365.06,l),
(527.147,1256.87,l),
(352.199,1256.87,l),
(697.491,807.985,l),
(1035.88,1256.87,l),
(860.93,1256.87,l),
(860.93,1365.06,l),
(1307.51,1365.06,l),
(1307.51,1256.87,l),
(1169.39,1256.87,l),
(752.738,699.793,l),
(752.738,669.868,l),
(1084.22,669.868,l),
(1084.22,561.676,l),
(752.738,561.676,l),
(752.738,428.163,l),
(1084.22,428.163,l),
(1084.22,319.971,l),
(752.738,319.971,l),
(752.738,108.192,l)
);
}
);
width = 1381;
}
);
unicode = 165;
},
{
glyphname = brokenbar;
layers = (
{
layerId = "F8A84F20-7B7B-45F5-903D-B244657892CC";
shapes = (
{
closed = 1;
nodes = (
(630.735,690.586,l),
(630.735,1549.21,l),
(752.738,1549.21,l),
(752.738,690.586,l)
);
},
{
closed = 1;
nodes = (
(630.735,-425.861,l),
(630.735,432.767,l),
(752.738,432.767,l),
(752.738,-425.861,l)
);
}
);
width = 1381;
}
);
unicode = 166;
},
{
glyphname = section;
layers = (
{
layerId = "F8A84F20-7B7B-45F5-903D-B244657892CC";
shapes = (
{
closed = 1;
nodes = (
(971.424,989.839,l),
(971.424,1187.81,l),
(706.699,1187.81,l),
(688.284,1187.81,o),
(630.735,1183.2,o),
(575.488,1157.88,o),
(536.355,1104.94,o),
(536.355,1054.29,q),
(536.355,1008.25,o),
(586.998,941.498,o),
(619.225,916.177,q),
(936.894,672.17,l),
(978.33,639.943,o),
(1049.69,580.092,o),
(1100.33,517.939,o),
(1127.96,446.579,o),
(1127.96,402.842,q),
(1127.96,375.218,o),
(1109.54,306.16,o),
(1065.8,241.705,o),
(992.141,191.062,o),
(936.894,179.552,q),
(948.404,161.137,o),
(980.632,96.682,o),
(980.632,41.435,q),
(980.632,-75.964,o),
(810.287,-209.478,o),
(665.264,-209.478,q),
(301.556,-209.478,l),
(301.556,122.003,l),
(409.747,122.003,l),
(409.747,-101.286,l),
(679.076,-101.286,l),
(709.001,-101.286,o),
(775.758,-85.172,o),
(826.401,-52.945,o),
(860.93,0,o),
(860.93,39.133,q),
(860.93,71.361,o),
(828.703,133.513,o),
(766.55,179.552,q),
(458.088,416.653,l),
(384.426,474.202,o),
(285.442,582.394,o),
(285.442,662.962,q),
(285.442,702.095,o),
(315.367,780.362,o),
(366.01,844.816,o),
(432.767,890.855,o),
(471.9,897.761,q),
(432.767,941.498,o),
(416.653,1038.18,o),
(416.653,1051.99,q),
(416.653,1125.65,o),
(485.712,1224.64,o),
(522.543,1249.96,q),
(575.488,1282.19,o),
(699.793,1296,o),
(738.927,1296,q),
(1079.62,1296,l),
(1079.62,989.839,l)
);
},
{
closed = 1;
nodes = (
(570.884,810.287,l),
(508.731,803.381,o),
(441.975,759.644,o),
(409.747,711.303,o),
(405.144,669.868,o),
(405.144,665.264,q),
(405.144,635.339,o),
(446.579,570.884,o),
(520.241,515.637,q),
(833.307,273.932,l),
(888.553,276.234,o),
(955.31,306.16,o),
(994.443,345.293,o),
(1008.25,389.03,o),
(1008.25,402.842,q),
(1008.25,423.559,o),
(996.745,460.39,o),
(964.518,499.524,o),
(909.271,547.865,o),
(865.534,582.394,q)
);
}
);
width = 1381;
}
);
unicode = 167;
},
{
glyphname = dieresis;
layers = (
{
layerId = "F8A84F20-7B7B-45F5-903D-B244657892CC";
shapes = (
{
closed = 1;
nodes = (
(624,1430,l),
(624,1181,l),
(458,1181,l),
(458,1430,l)
);
},
{
closed = 1;
nodes = (
(923,1430,l),
(923,1181,l),
(757,1181,l),
(757,1430,l)
);
}
);
width = 1381;
}
);
unicode = 168;
},
{
glyphname = copyright;
layers = (
{
layerId = "F8A84F20-7B7B-45F5-903D-B244657892CC";
shapes = (
{
closed = 1;
nodes = (
(925.385,787.268,l),
(920.781,837.911,o),
(913.875,906.969,o),
(902.365,925.385,q),
(883.95,955.31,o),
(787.268,994.443,o),
(727.417,994.443,q),
(656.056,994.443,o),
(547.865,943.8,o),
(474.202,856.326,o),
(437.371,741.229,o),
(437.371,676.774,q),
(437.371,610.017,o),
(476.504,488.014,o),
(550.167,395.936,o),
(653.754,342.991,o),
(720.511,342.991,q),
(775.758,342.991,o),
(854.024,377.52,o),
(906.969,428.163,o),
(941.498,483.41,o),
(953.008,506.429,q),
(1008.25,483.41,l),
(966.82,372.916,o),
(789.57,271.63,o),
(688.284,271.63,q),
(603.111,271.63,o),
(467.296,336.085,o),
(370.614,444.277,o),
(319.971,586.998,o),
(319.971,667.566,q),
(319.971,743.53,o),
(370.614,886.252,o),
(469.598,994.443,o),
(619.225,1061.2,o),
(718.209,1061.2,q),
(775.758,1061.2,o),
(929.989,1031.27,o),
(989.839,1010.56,q),
(989.839,787.268,l)
);
},
{
closed = 1;
nodes = (
(828.703,1335.13,o),
(1072.71,1231.54,o),
(1252.26,1049.69,o),
(1358.15,805.683,o),
(1358.15,667.566,q),
(1358.15,529.449,o),
(1252.26,285.442,o),
(1072.71,103.588,o),
(828.703,-2.302,o),
(690.586,-2.302,q),
(552.468,-2.302,o),
(310.764,103.588,o),
(128.909,285.442,o),
(23.02,529.449,o),
(23.02,667.566,q),
(23.02,807.985,o),
(128.909,1051.99,o),
(310.764,1231.54,o),
(554.77,1335.13,o),
(690.586,1335.13,q)
);
},
{
closed = 1;
nodes = (
(570.884,1247.66,o),
(361.406,1157.88,o),
(202.572,999.047,o),
(110.494,787.268,o),
(110.494,665.264,q),
(110.494,545.563,o),
(202.572,333.783,o),
(361.406,177.25,o),
(570.884,85.172,o),
(690.586,85.172,q),
(810.287,85.172,o),
(1019.76,177.25,o),
(1178.6,333.783,o),
(1270.68,545.563,o),
(1270.68,665.264,q),
(1270.68,784.966,o),
(1178.6,999.047,o),
(1022.07,1155.58,o),
(810.287,1247.66,o),
(690.586,1247.66,q)
);
}
);
width = 1381;
}
);
unicode = 169;
},
{
glyphname = ordfeminine;
layers = (
{
layerId = "F8A84F20-7B7B-45F5-903D-B244657892CC";
shapes = (
{
closed = 1;
nodes = (
(439.673,1277.58,l),
(520.241,1309.81,o),
(621.527,1335.13,o),
(674.472,1335.13,q),
(883.95,1335.13,o),
(883.95,1150.98,q),
(883.95,879.346,l),
(982.934,879.346,l),
(982.934,796.475,l),
(796.475,796.475,l),
(796.475,860.93,l),
(736.625,814.891,o),
(646.849,780.362,o),
(593.904,780.362,q),
(513.335,780.362,o),
(398.238,879.346,o),
(398.238,953.008,q),
(398.238,1035.88,o),
(536.355,1139.47,o),
(653.754,1139.47,q),
(688.284,1139.47,o),
(745.832,1134.86,o),
(796.475,1127.96,q),
(796.475,1144.07,l),
(796.475,1201.62,o),
(738.927,1252.26,o),
(672.17,1252.26,q),
(628.433,1252.26,o),
(536.355,1226.94,o),
(471.9,1199.32,q)
);
},
{
closed = 1;
nodes = (
(796.475,1045.09,l),
(748.134,1051.99,o),
(692.888,1056.6,o),
(665.264,1056.6,q),
(584.696,1056.6,o),
(485.712,1001.35,o),
(485.712,953.008,q),
(485.712,916.177,o),
(550.167,863.232,o),
(593.904,863.232,q),
(699.793,863.232,o),
(796.475,973.726,q)
);
},
{
closed = 1;
nodes = (
(971.424,612.319,l),
(409.747,612.319,l),
(409.747,695.19,l),
(971.424,695.19,l)
);
}
);
width = 1381;
}
);
unicode = 170;
},
{
glyphname = guillemotleft;
layers = (
{
layerId = "F8A84F20-7B7B-45F5-903D-B244657892CC";
shapes = (
{
closed = 1;
nodes = (
(918.479,115.098,l),
(607.715,619.225,l),
(918.479,1121.05,l),
(1167.09,1121.05,l),
(856.326,619.225,l),
(1167.09,115.098,l)
);
},
{
closed = 1;
nodes = (
(481.108,115.098,l),
(170.344,619.225,l),
(481.108,1121.05,l),
(732.021,1121.05,l),
(421.257,619.225,l),
(732.021,115.098,l)
);
}
);
width = 1393;
}
);
unicode = 171;
},
{
glyphname = logicalnot;
layers = (
{
layerId = "F8A84F20-7B7B-45F5-903D-B244657892CC";
shapes = (
{
closed = 1;
nodes = (
(1194.71,389.03,l),
(1079.62,389.03,l),
(1079.62,893.157,l),
(207.176,893.157,l),
(207.176,1008.25,l),
(1194.71,1008.25,l)
);
}
);
width = 1381;
}
);
unicode = 172;
},
{
glyphname = registered;
layers = (
{
layerId = "F8A84F20-7B7B-45F5-903D-B244657892CC";
shapes = (
{
closed = 1;
nodes = (
(685.982,1072.71,l),
(704.397,1072.71,o),
(791.871,1065.8,o),
(883.95,1028.97,o),
(953.008,948.404,o),
(953.008,877.044,q),
(953.008,865.534,o),
(946.102,814.891,o),
(913.875,752.738,o),
(842.514,695.19,o),
(778.06,679.076,q),
(814.891,653.754,o),
(865.534,557.072,o),
(902.365,474.202,q),
(920.781,432.767,o),
(946.102,389.03,o),
(973.726,368.312,o),
(1010.56,366.01,o),
(1040.48,366.01,q),
(1040.48,310.764,l),
(948.404,310.764,l),
(881.648,310.764,o),
(819.495,405.144,o),
(789.57,485.712,q),
(766.55,547.865,o),
(734.323,614.621,o),
(697.491,649.15,o),
(649.15,656.056,o),
(607.715,656.056,q),
(566.28,656.056,l),
(566.28,425.861,l),
(566.28,395.936,o),
(570.884,379.822,o),
(582.394,372.916,q),
(586.998,370.614,o),
(642.245,366.01,o),
(660.66,363.708,q),
(660.66,310.764,l),
(368.312,310.764,l),
(368.312,363.708,l),
(370.614,366.01,o),
(384.426,366.01,q),
(398.238,366.01,o),
(400.54,368.312,q),
(441.975,372.916,o),
(462.692,386.728,o),
(462.692,425.861,q),
(462.692,962.216,l),
(462.692,989.839,o),
(460.39,1003.65,o),
(448.881,1008.25,q),
(446.579,1010.56,o),
(432.767,1010.56,q),
(428.163,1010.56,o),
(393.634,1012.86,o),
(368.312,1015.16,q),
(368.312,1072.71,l)
);
},
{
closed = 1;
nodes = (
(619.225,711.303,l),
(722.813,711.303,o),
(849.42,780.362,o),
(849.42,870.138,q),
(849.42,923.083,o),
(807.985,982.934,o),
(748.134,1010.56,o),
(683.68,1017.46,o),
(660.66,1017.46,q),
(596.206,1017.46,o),
(566.28,1003.65,o),
(566.28,969.122,q),
(566.28,711.303,l)
);
},
{
closed = 1;
nodes = (
(828.703,1335.13,o),
(1070.41,1231.54,o),
(1252.26,1051.99,o),
(1358.15,807.985,o),
(1358.15,667.566,q),
(1358.15,529.449,o),
(1252.26,287.744,o),
(1072.71,105.89,o),
(828.703,0,o),
(690.586,0,q),
(552.468,0,o),
(308.462,105.89,o),
(128.909,287.744,o),
(23.02,529.449,o),
(23.02,667.566,q),
(23.02,807.985,o),
(128.909,1051.99,o),
(310.764,1231.54,o),
(554.77,1335.13,o),
(690.586,1335.13,q)
);
},
{
closed = 1;
nodes = (
(570.884,1247.66,o),
(361.406,1157.88,o),
(202.572,999.047,o),
(110.494,787.268,o),
(110.494,667.566,q),
(110.494,547.865,o),
(200.27,338.387,o),
(359.105,179.552,o),
(568.582,87.474,o),
(690.586,87.474,q),
(810.287,87.474,o),
(1022.07,179.552,o),
(1180.9,338.387,o),
(1270.68,547.865,o),
(1270.68,667.566,q),
(1270.68,789.57,o),
(1178.6,1001.35,o),
(1019.76,1157.88,o),
(807.985,1247.66,o),
(690.586,1247.66,q)
);
}
);
width = 1381;
}
);
unicode = 174;
},
{
glyphname = macron;
layers = (
{
layerId = "F8A84F20-7B7B-45F5-903D-B244657892CC";
shapes = (
{
closed = 1;
nodes = (
(1081.92,1247.66,l),
(299.254,1247.66,l),
(299.254,1362.76,l),
(1081.92,1362.76,l)
);
}
);
width = 1381;
}
);
unicode = 175;
},
{
glyphname = degree;
layers = (
{
layerId = "F8A84F20-7B7B-45F5-903D-B244657892CC";
shapes = (
{
closed = 1;
nodes = (
(338.387,1148.67,o),
(393.634,1277.58,o),
(488.014,1374.27,o),
(616.923,1429.51,o),
(690.586,1429.51,q),
(766.55,1429.51,o),
(895.459,1371.96,o),
(989.839,1275.28,o),
(1042.78,1146.37,o),
(1042.78,1075.01,q),
(1042.78,1003.65,o),
(987.537,877.044,o),
(893.157,780.362,o),
(764.248,725.115,o),
(690.586,725.115,q),
(616.923,725.115,o),
(488.014,780.362,o),
(393.634,874.742,o),
(338.387,1001.35,o),
(338.387,1075.01,q)
);
},
{
closed = 1;
nodes = (
(464.994,980.632,o),
(593.904,851.722,o),
(690.586,851.722,q),
(738.927,851.722,o),
(821.797,886.252,o),
(881.648,948.404,o),
(916.177,1028.97,o),
(916.177,1077.31,q),
(916.177,1174,o),
(787.268,1302.9,o),
(690.586,1302.9,q),
(642.245,1302.9,o),
(561.676,1268.38,o),
(499.524,1208.52,o),
(464.994,1125.65,o),
(464.994,1077.31,q)
);
}
);
width = 1381;
}
);
unicode = 176;
},
{
glyphname = plusminus;
layers = (
{
layerId = "F8A84F20-7B7B-45F5-903D-B244657892CC";
shapes = (
{
closed = 1;
nodes = (
(748.134,874.742,l),
(1229.24,874.742,l),
(1229.24,759.644,l),
(748.134,759.644,l),
(748.134,308.462,l),
(633.037,308.462,l),
(633.037,759.644,l),
(151.929,759.644,l),
(151.929,874.742,l),
(633.037,874.742,l),
(633.037,1325.92,l),
(748.134,1325.92,l)
);
},
{
closed = 1;
nodes = (
(1229.24,71.361,l),
(151.929,71.361,l),
(151.929,186.458,l),
(1229.24,186.458,l)
);
}
);
width = 1381;
}
);
unicode = 177;
},
{
glyphname = twosuperior;
layers = (
{
layerId = "F8A84F20-7B7B-45F5-903D-B244657892CC";
shapes = (
{
closed = 1;
nodes = (
(934.593,570.884,l),
(384.426,570.884,l),
(384.426,660.66,l),
(405.144,679.076,l),
(428.163,699.793,o),
(497.222,761.946,o),
(570.884,828.703,o),
(639.943,890.855,o),
(662.962,911.573,q),
(720.511,964.518,o),
(791.871,1035.88,o),
(826.401,1091.13,o),
(837.911,1139.47,o),
(837.911,1171.69,q),
(837.911,1240.75,o),
(736.625,1337.43,o),
(665.264,1337.43,q),
(600.809,1337.43,o),
(508.731,1268.38,o),
(506.429,1222.34,q),
(508.731,1194.71,l),
(412.049,1194.71,l),
(412.049,1302.9,l),
(511.033,1429.51,o),
(667.566,1429.51,q),
(722.813,1429.51,o),
(821.797,1388.08,o),
(895.459,1319.02,o),
(936.894,1224.64,o),
(936.894,1169.39,q),
(936.894,1125.65,o),
(913.875,1054.29,o),
(858.628,973.726,o),
(759.644,877.044,o),
(683.68,807.985,q),
(524.845,662.962,l),
(844.816,662.962,l),
(844.816,794.173,l),
(934.593,794.173,l)
);
}
);
width = 1381;
}
);
unicode = 178;
},
{
glyphname = threesuperior;
layers = (
{
layerId = "F8A84F20-7B7B-45F5-903D-B244657892CC";
shapes = (
{
closed = 1;
nodes = (
(398.238,1332.83,l),
(483.41,1388.08,o),
(586.998,1429.51,o),
(644.547,1429.51,q),
(748.134,1429.51,o),
(886.252,1305.21,o),
(886.252,1208.52,q),
(886.252,1102.64,o),
(798.777,1028.97,q),
(927.687,948.404,o),
(927.687,812.589,q),
(927.687,695.19,o),
(768.852,550.167,o),
(644.547,550.167,q),
(593.904,550.167,o),
(504.127,573.186,o),
(425.861,605.413,q),
(382.124,623.829,l),
(418.955,709,l),
(492.618,674.471,o),
(600.809,642.244,o),
(649.15,642.244,q),
(729.719,642.244,o),
(831.005,738.926,o),
(831.005,812.588,q),
(831.005,888.552,o),
(734.323,969.121,o),
(644.547,969.121,q),
(589.3,969.121,l),
(589.3,1061.199,l),
(651.452,1063.499,o),
(706.699,1075.009,o),
(732.021,1093.429,q),
(789.57,1137.159,o),
(789.57,1206.219,q),
(789.57,1263.769,o),
(706.699,1337.429,o),
(644.547,1337.429,q),
(605.413,1337.429,o),
(534.053,1314.409,o),
(481.108,1277.579,q),
(446.579,1254.559,l)
);
}
);
width = 1381;
}
);
unicode = 179;
},
{
glyphname = acute;
layers = (
{
layerId = "F8A84F20-7B7B-45F5-903D-B244657892CC";
shapes = (
{
closed = 1;
nodes = (
(495,1158,l),
(700,1423,l),
(946,1423,l),
(617,1158,l)
);
}
);
width = 1381;
}
);
unicode = 180;
},
{
glyphname = mu;
layers = (
{
layerId = "F8A84F20-7B7B-45F5-903D-B244657892CC";
shapes = (
{
closed = 1;
nodes = (
(386.728,448.881,l),
(386.728,393.634,o),
(391.332,315.367,o),
(402.842,257.819,o),
(423.559,216.383,o),
(439.673,195.666,q),
(483.41,138.117,o),
(612.319,82.87,o),
(676.774,82.87,q),
(741.229,82.87,o),
(883.95,138.117,o),
(923.083,188.76,q),
(943.8,216.383,o),
(969.122,269.328,o),
(982.934,329.179,o),
(987.537,402.842,o),
(987.537,448.881,q),
(987.537,893.157,l),
(798.777,893.157,l),
(798.777,989.839,l),
(1102.64,989.839,l),
(1102.64,94.38,l),
(1293.7,94.38,l),
(1293.7,0,l),
(989.839,0,l),
(989.839,122.003,l),
(985.235,122.003,l),
(966.82,94.38,l),
(923.083,34.529,o),
(761.946,-32.227,o),
(681.378,-32.227,q),
(639.943,-32.227,o),
(561.676,-11.51,o),
(494.92,16.114,o),
(448.881,46.039,o),
(439.673,57.549,q),
(418.955,78.266,o),
(405.144,92.078,o),
(384.426,108.192,q),
(384.426,-342.991,l),
(271.63,-342.991,l),
(271.63,893.157,l),
(82.87,893.157,l),
(82.87,989.839,l),
(386.728,989.839,l)
);
}
);
width = 1381;
}
);
unicode = 956;
},
{
glyphname = paragraph;
layers = (
{
layerId = "F8A84F20-7B7B-45F5-903D-B244657892CC";
shapes = (
{
closed = 1;
nodes = (
(1141.77,-108.192,l),
(1141.77,-177.25,l),
(874.742,-177.25,l),
(874.742,-108.192,l),
(918.479,-108.192,l),
(918.479,1226.94,l),
(729.719,1226.94,l),
(729.719,-108.192,l),
(773.456,-108.192,l),
(773.456,-177.25,l),
(483.41,-177.25,l),
(483.41,-108.192,l),
(626.131,-108.192,l),
(626.131,600.809,l),
(559.374,596.206,o),
(421.257,623.829,o),
(306.16,702.095,o),
(232.497,842.514,o),
(232.497,953.008,q),
(232.497,1079.62,o),
(310.764,1220.03,o),
(432.767,1284.49,o),
(582.394,1296,o),
(656.056,1296,q),
(1132.56,1296,l),
(1132.56,1226.94,l),
(1022.07,1226.94,l),
(1022.07,-108.192,l)
);
},
{
closed = 1;
nodes = (
(626.131,1226.94,l),
(586.998,1226.94,o),
(513.335,1217.73,o),
(455.786,1178.6,o),
(418.955,1095.73,o),
(418.955,1019.76,q),
(418.955,881.648,l),
(418.955,867.836,o),
(428.163,794.173,o),
(469.598,718.209,o),
(552.468,662.962,o),
(626.131,669.868,q)
);
}
);
width = 1381;
}
);
unicode = 182;
},
{
glyphname = periodcentered;
layers = (
{
layerId = "F8A84F20-7B7B-45F5-903D-B244657892CC";
shapes = (
{
closed = 1;
nodes = (
(725.115,854.024,o),
(787.268,831.005,o),
(837.911,789.57,o),
(867.836,732.021,o),
(867.836,697.491,q),
(867.836,660.66,o),
(835.609,603.111,o),
(784.966,561.676,o),
(720.511,540.959,o),
(690.586,540.959,q),
(660.66,540.959,o),
(598.508,561.676,o),
(545.563,600.809,o),
(513.335,658.358,o),
(513.335,697.491,q),
(513.335,734.323,o),
(545.563,791.871,o),
(596.206,833.307,o),
(658.358,854.024,o),
(690.586,854.024,q)
);
}
);
width = 1381;
}
);
unicode = 183;
},
{
glyphname = cedilla;
layers = (
{
layerId = "F8A84F20-7B7B-45F5-903D-B244657892CC";
shapes = (
{
closed = 1;
nodes = (
(741.229,-57.549,l),
(798.777,-66.757,o),
(863.232,-108.192,o),
(895.459,-154.231,o),
(902.365,-193.364,o),
(902.365,-200.27,q),
(902.365,-211.78,o),
(893.157,-255.517,o),
(858.628,-299.254,o),
(782.664,-333.783,o),
(718.209,-333.783,q),
(633.037,-333.783,o),
(497.222,-306.16,o),
(464.994,-299.254,q),
(481.108,-197.968,l),
(517.939,-207.176,o),
(642.245,-230.195,o),
(715.907,-230.195,q),
(736.625,-230.195,l),
(755.04,-230.195,o),
(794.173,-216.383,o),
(794.173,-200.27,q),
(794.173,-168.042,o),
(695.19,-147.325,o),
(628.433,-142.721,q),
(644.547,-4.604,l),
(748.134,-4.604,l)
);
}
);
width = 1381;
}
);
unicode = 184;
},
{
glyphname = onesuperior;
layers = (
{
layerId = "F8A84F20-7B7B-45F5-903D-B244657892CC";
shapes = (
{
closed = 1;
nodes = (
(750.436,1429.51,l),
(750.436,662.962,l),
(980.632,662.962,l),
(980.632,570.884,l),
(421.257,570.884,l),
(421.257,662.962,l),
(656.056,662.962,l),
(656.056,1314.41,l),
(446.579,1222.34,l),
(409.747,1305.21,l),
(690.586,1429.51,l)
);
}
);
width = 1381;
}
);
unicode = 185;
},
{
glyphname = ordmasculine;
layers = (
{
layerId = "F8A84F20-7B7B-45F5-903D-B244657892CC";
shapes = (
{
closed = 1;
nodes = (
(395.936,1180.9,o),
(559.374,1335.13,o),
(690.586,1335.13,q),
(821.797,1335.13,o),
(985.235,1180.9,o),
(985.235,1056.6,q),
(985.235,932.291,o),
(821.797,780.362,o),
(690.586,780.362,q),
(559.374,780.362,o),
(395.936,932.291,o),
(395.936,1056.6,q)
);
},
{
closed = 1;
nodes = (
(488.014,971.424,o),
(600.809,863.232,o),
(690.586,863.232,q),
(780.362,863.232,o),
(893.157,971.424,o),
(893.157,1058.9,q),
(893.157,1144.07,o),
(780.362,1252.26,o),
(690.586,1252.26,q),
(600.809,1252.26,o),
(488.014,1144.07,o),
(488.014,1058.9,q)
);
},
{
closed = 1;
nodes = (
(971.424,612.319,l),
(409.747,612.319,l),
(409.747,695.19,l),
(971.424,695.19,l)
);
}
);
width = 1381;
}
);
unicode = 186;
},
{
glyphname = guillemotright;
layers = (
{
layerId = "F8A84F20-7B7B-45F5-903D-B244657892CC";
shapes = (
{
closed = 1;
nodes = (
(423.559,115.098,l),
(174.948,115.098,l),
(488.014,619.225,l),
(174.948,1121.05,l),
(423.559,1121.05,l),
(736.625,619.225,l)
);
},
{
closed = 1;
nodes = (
(860.93,115.098,l),
(612.319,115.098,l),
(920.781,619.225,l),
(612.319,1121.05,l),
(860.93,1121.05,l),
(1171.69,619.225,l)
);
}
);
width = 1227;
}
);
unicode = 187;
},
{
glyphname = onequarter;
layers = (
{
layerId = "F8A84F20-7B7B-45F5-903D-B244657892CC";
shapes = (
{
closed = 1;
nodes = (
(1353.55,105.89,l),
(1353.55,20.718,l),
(1231.54,20.718,l),
(1231.54,-94.38,l),
(1353.55,-94.38,l),
(1353.55,-177.25,l),
(989.839,-177.25,l),
(989.839,-94.38,l),
(1144.07,-94.38,l),
(1144.07,20.718,l),
(778.06,20.718,l),
(778.06,112.796,l),
(1121.05,681.378,l),
(1231.54,681.378,l),
(1231.54,105.89,l)
);
},
{
closed = 1;
nodes = (
(1139.47,554.77,l),
(874.742,105.89,l),
(1144.07,105.89,l),
(1144.07,554.77,l)
);
},
{
closed = 1;
nodes = (
(352.199,1431.81,l),
(352.199,660.66,l),
(527.147,660.66,l),
(527.147,573.186,l),
(87.474,573.186,l),
(87.474,660.66,l),
(264.724,660.66,l),
(264.724,1323.62,l),
(96.682,1254.56,l),
(59.851,1332.83,l),
(296.952,1431.81,l)
);
},
{
closed = 1;
nodes = (
(202.572,-207.176,l),
(138.117,-156.533,l),
(1312.11,1457.14,l),
(1376.57,1411.1,l)
);
}
);
width = 1381;
}
);
unicode = 188;
},
{
glyphname = onehalf;
layers = (
{
layerId = "F8A84F20-7B7B-45F5-903D-B244657892CC";
shapes = (
{
closed = 1;
nodes = (
(336.085,1431.81,l),
(336.085,660.66,l),
(511.033,660.66,l),
(511.033,573.186,l),
(71.361,573.186,l),
(71.361,660.66,l),
(248.611,660.66,l),
(248.611,1323.62,l),
(80.568,1254.56,l),
(43.737,1332.83,l),
(283.14,1431.81,l)
);
},
{
closed = 1;
nodes = (
(172.646,-207.176,l),
(108.192,-156.533,l),
(1279.89,1457.14,l),
(1346.64,1411.1,l)
);
},
{
closed = 1;
nodes = (
(1358.15,-177.25,l),
(831.005,-177.25,l),
(831.005,-87.474,l),
(837.911,-80.568,o),
(840.212,-78.266,o),
(858.628,-64.455,o),
(906.969,-20.718,o),
(962.216,29.925,q),
(1019.76,85.172,o),
(1102.64,163.439,o),
(1160.18,218.685,o),
(1199.32,257.819,o),
(1217.73,278.536,q),
(1249.96,317.669,o),
(1270.68,382.124,o),
(1270.68,421.257,q),
(1270.68,494.92,o),
(1171.69,591.602,o),
(1095.73,591.602,q),
(1035.88,591.602,o),
(941.498,524.845,o),
(941.498,478.806,q),
(941.498,474.202,o),
(943.8,462.692,o),
(943.8,451.183,q),
(856.326,451.183,l),
(856.326,554.77,l),
(955.31,679.076,o),
(1100.33,679.076,q),
(1155.58,679.076,o),
(1252.26,639.943,o),
(1321.32,570.884,o),
(1360.45,476.504,o),
(1360.45,421.257,q),
(1360.45,340.689,o),
(1266.07,188.76,o),
(1141.77,78.266,q),
(999.047,-48.341,l),
(955.31,-89.776,l),
(1279.89,-89.776,l),
(1279.89,41.435,l),
(1358.15,41.435,l)
);
}
);
width = 1381;
}
);
unicode = 189;
},
{
glyphname = threequarters;
layers = (
{
layerId = "F8A84F20-7B7B-45F5-903D-B244657892CC";
shapes = (
{
closed = 1;
nodes = (
(1155.58,554.77,l),
(890.855,105.89,l),
(1160.18,105.89,l),
(1160.18,554.77,l)
);
},
{
closed = 1;
nodes = (
(1369.66,105.89,l),
(1369.66,20.718,l),
(1247.66,20.718,l),
(1247.66,-94.38,l),
(1369.66,-94.38,l),
(1369.66,-177.25,l),
(1005.95,-177.25,l),
(1005.95,-94.38,l),
(1160.18,-94.38,l),
(1160.18,20.718,l),
(794.173,20.718,l),
(794.173,112.796,l),
(1137.16,681.378,l),
(1247.66,681.378,l),
(1247.66,105.89,l)
);
},
{
closed = 1;
nodes = (
(66.757,1337.43,l),
(149.627,1390.38,o),
(255.517,1431.81,o),
(313.065,1431.81,q),
(363.708,1431.81,o),
(453.485,1397.28,o),
(520.241,1339.74,o),
(557.072,1259.17,o),
(557.072,1213.13,q),
(557.072,1155.58,o),
(513.335,1070.41,o),
(464.994,1031.27,q),
(598.508,955.31,o),
(598.508,814.891,q),
(598.508,697.491,o),
(437.371,554.77,o),
(313.065,554.77,q),
(287.744,554.77,o),
(244.007,559.374,o),
(193.364,573.186,o),
(133.513,593.904,o),
(92.078,610.017,q),
(50.643,626.131,l),
(85.172,706.699,l),
(163.439,669.868,o),
(267.026,642.245,o),
(317.669,642.245,q),
(400.54,642.245,o),
(506.429,736.625,o),
(506.429,814.891,q),
(506.429,893.157,o),
(409.747,982.934,o),
(313.065,978.33,q),
(262.423,976.028,l),
(262.423,1061.2,l),
(322.273,1063.5,o),
(379.822,1075.01,o),
(405.144,1093.43,q),
(464.994,1134.86,o),
(464.994,1210.83,q),
(464.994,1270.68,o),
(379.822,1344.34,o),
(313.065,1344.34,q),
(273.932,1344.34,o),
(200.27,1316.72,o),
(145.023,1284.49,q),
(110.494,1263.77,l)
);
},
{
closed = 1;
nodes = (
(218.685,-207.176,l),
(154.231,-156.533,l),
(1328.23,1457.14,l),
(1392.68,1411.1,l)
);
}
);
width = 1381;
}
);
unicode = 190;
},
{
glyphname = questiondown;
layers = (
{
layerId = "F8A84F20-7B7B-45F5-903D-B244657892CC";
shapes = (
{
closed = 1;
nodes = (
(1091.13,-241.705,l),
(1031.27,-262.423,o),
(936.894,-292.348,o),
(851.722,-313.065,o),
(766.55,-322.273,o),
(718.209,-322.273,q),
(607.715,-322.273,o),
(441.975,-257.819,o),
(331.481,-154.231,o),
(276.234,-18.416,o),
(276.234,55.247,q),
(276.234,156.533,o),
(363.708,292.348,o),
(490.316,379.822,o),
(635.339,430.465,o),
(692.888,446.579,q),
(692.888,584.696,l),
(805.683,584.696,l),
(805.683,361.406,l),
(801.079,359.105,o),
(771.154,352.199,o),
(759.644,349.897,q),
(702.095,336.085,o),
(573.186,296.952,o),
(467.296,230.195,o),
(395.936,126.607,o),
(395.936,48.341,q),
(395.936,13.812,o),
(423.559,-75.964,o),
(494.92,-156.533,o),
(619.225,-209.478,o),
(715.907,-209.478,q),
(801.079,-209.478,o),
(918.479,-177.25,o),
(976.028,-154.231,q),
(976.028,-6.906,l),
(1091.13,-6.906,l)
);
},
{
closed = 1;
nodes = (
(690.586,752.738,o),
(598.508,833.307,o),
(598.508,893.157,q),
(598.508,955.31,o),
(692.888,1035.88,o),
(757.342,1035.88,q),
(821.797,1035.88,o),
(916.177,955.31,o),
(916.177,893.157,q),
(916.177,833.307,o),
(824.099,752.738,o),
(757.342,752.738,q)
);
}
);
width = 1381;
}
);
unicode = 191;
},
{
glyphname = Aring;
layers = (
{
layerId = "F8A84F20-7B7B-45F5-903D-B244657892CC";
shapes = (
{
closed = 1;
nodes = (
(1240.75,108.192,l),
(1358.15,108.192,l),
(1358.15,0,l),
(886.252,0,l),
(886.252,108.192,l),
(1121.05,108.192,l),
(989.839,428.163,l),
(389.03,428.163,l),
(260.121,108.192,l),
(494.92,108.192,l),
(494.92,0,l),
(23.02,0,l),
(23.02,108.192,l),
(145.023,108.192,l),
(589.3,1187.81,l),
(260.121,1187.81,l),
(260.121,1296,l),
(755.04,1296,l)
);
},
{
closed = 1;
nodes = (
(430.465,529.449,l),
(950.706,529.449,l),
(690.586,1160.18,l)
);
},
{
closed = 1;
nodes = (
(764.248,1784.01,o),
(865.534,1682.73,o),
(865.534,1609.06,q),
(865.534,1535.4,o),
(764.248,1434.12,o),
(690.586,1434.12,q),
(616.923,1434.12,o),
(515.637,1535.4,o),
(515.637,1609.06,q),
(515.637,1682.73,o),
(616.923,1784.01,o),
(690.586,1784.01,q)
);
},
{
closed = 1;
nodes = (
(656.056,1696.54,o),
(603.111,1650.5,o),
(603.111,1609.06,q),
(603.111,1572.23,o),
(656.056,1521.59,o),
(692.888,1521.59,q),
(729.719,1521.59,o),
(778.06,1572.23,o),
(778.06,1609.06,q),
(778.06,1645.9,o),
(729.719,1696.54,o),
(692.888,1696.54,q)
);
}
);
width = 1381;
}
);
unicode = 197;
},
{
glyphname = AE;
layers = (
{
layerId = "F8A84F20-7B7B-45F5-903D-B244657892CC";
shapes = (
{
closed = 1;
nodes = (
(1263.77,881.648,l),
(1160.18,881.648,l),
(1139.47,1187.81,l),
(810.287,1187.81,l),
(810.287,741.229,l),
(959.914,741.229,l),
(959.914,909.271,l),
(1065.8,909.271,l),
(1065.8,464.994,l),
(959.914,464.994,l),
(959.914,633.037,l),
(810.287,633.037,l),
(810.287,108.192,l),
(1160.18,108.192,l),
(1174,428.163,l),
(1279.89,428.163,l),
(1279.89,0,l),
(695.19,0,l),
(695.19,423.559,l),
(412.049,423.559,l),
(280.838,108.192,l),
(485.712,108.192,l),
(485.712,0,l),
(43.737,0,l),
(43.737,108.192,l),
(165.741,108.192,l),
(600.809,1187.81,l),
(363.708,1187.81,l),
(363.708,1296,l),
(1263.77,1296,l)
);
},
{
closed = 1;
nodes = (
(690.586,1160.18,l),
(451.183,531.751,l),
(695.19,531.751,l),
(695.19,1160.18,l)
);
}
);
width = 1381;
}
);
unicode = 198;
},
{
glyphname = Ccedilla;
layers = (
{
layerId = "F8A84F20-7B7B-45F5-903D-B244657892CC";
shapes = (
{
closed = 1;
nodes = (
(814.891,-57.549,l),
(837.911,-57.549,o),
(893.157,-75.964,o),
(941.498,-112.796,o),
(976.028,-165.741,o),
(976.028,-200.27,q),
(976.028,-209.478,o),
(966.82,-253.215,o),
(932.291,-299.254,o),
(856.326,-333.783,o),
(791.871,-333.783,q),
(706.699,-333.783,o),
(570.884,-306.16,o),
(538.657,-299.254,q),
(554.77,-197.968,l),
(600.809,-209.478,o),
(715.907,-230.195,o),
(794.173,-230.195,q),
(810.287,-230.195,l),
(828.703,-230.195,o),
(867.836,-216.383,o),
(867.836,-200.27,q),
(867.836,-168.042,o),
(768.852,-147.325,o),
(702.095,-142.721,q),
(715.907,-39.133,l),
(552.468,-23.02,o),
(333.783,124.305,o),
(202.572,329.179,o),
(147.325,561.676,o),
(147.325,662.962,q),
(147.325,812.589,o),
(241.705,1061.2,o),
(407.446,1238.45,o),
(633.037,1335.13,o),
(764.248,1335.13,q),
(801.079,1335.13,o),
(943.8,1314.41,o),
(1017.46,1268.38,q),
(1022.07,1263.77,o),
(1045.09,1245.36,o),
(1070.41,1224.64,o),
(1093.43,1210.83,o),
(1098.03,1210.83,q),
(1104.94,1210.83,o),
(1116.45,1233.85,o),
(1123.35,1268.38,o),
(1130.26,1305.21,o),
(1132.56,1321.32,q),
(1217.73,1321.32,l),
(1213.13,1176.3,o),
(1229.24,973.726,o),
(1240.75,881.648,q),
(1132.56,863.232,l),
(1125.65,902.365,o),
(1095.73,1024.37,o),
(1019.76,1137.16,o),
(879.346,1220.03,o),
(759.644,1220.03,q),
(672.17,1220.03,o),
(499.524,1153.28,o),
(359.105,1017.46,o),
(271.63,807.985,o),
(271.63,665.264,q),
(271.63,554.77,o),
(326.877,342.991,o),
(448.881,177.25,o),
(637.641,75.964,o),
(768.852,75.964,q),
(865.534,75.964,o),
(1031.27,128.909,o),
(1162.49,204.874,o),
(1259.17,285.442,o),
(1291.4,310.764,q),
(1367.36,227.893,l),
(1249.96,117.4,o),
(973.726,-25.322,o),
(814.891,-39.133,q)
);
}
);
width = 1381;
}
);
unicode = 199;
},
{
glyphname = Eth;
layers = (
{
layerId = "F8A84F20-7B7B-45F5-903D-B244657892CC";
shapes = (
{
closed = 1;
nodes = (
(78.266,738.927,l),
(260.121,738.927,l),
(260.121,1187.81,l),
(78.266,1187.81,l),
(78.266,1296,l),
(653.754,1296,l),
(729.719,1296,o),
(860.93,1284.49,o),
(973.726,1249.96,o),
(1077.31,1180.9,o),
(1125.65,1123.35,q),
(1176.3,1061.2,o),
(1233.85,927.687,o),
(1261.47,803.381,o),
(1268.38,702.095,o),
(1268.38,672.17,q),
(1268.38,568.582,o),
(1236.15,400.54,o),
(1183.2,269.328,o),
(1114.14,168.042,o),
(1077.31,133.513,q),
(1024.37,82.87,o),
(900.063,29.925,o),
(780.362,4.604,o),
(676.774,0,o),
(644.547,0,q),
(78.266,0,l),
(78.266,108.192,l),
(260.121,108.192,l),
(260.121,630.735,l),
(78.266,630.735,l)
);
},
{
closed = 1;
nodes = (
(375.218,108.192,l),
(644.547,108.192,l),
(674.472,108.192,o),
(757.342,110.494,o),
(851.722,131.211,o),
(948.404,174.948,o),
(989.839,216.383,q),
(1051.99,278.536,o),
(1144.07,506.429,o),
(1144.07,665.264,q),
(1141.77,773.456,o),
(1102.64,925.385,o),
(1047.39,1031.27,o),
(985.235,1095.73,o),
(959.914,1116.45,q),
(900.063,1162.49,o),
(755.04,1187.81,o),
(656.056,1187.81,q),
(375.218,1187.81,l),
(375.218,738.927,l),
(757.342,738.927,l),
(757.342,630.735,l),
(375.218,630.735,l)
);
}
);
width = 1381;
}
);
unicode = 208;
},
{
glyphname = multiply;
layers = (
{
layerId = "F8A84F20-7B7B-45F5-903D-B244657892CC";
shapes = (
{
closed = 1;
nodes = (
(354.501,1123.35,l),
(690.586,787.268,l),
(1026.67,1123.35,l),
(1109.54,1042.78,l),
(771.154,704.397,l),
(1109.54,368.312,l),
(1026.67,285.442,l),
(690.586,623.829,l),
(354.501,285.442,l),
(271.63,368.312,l),
(610.017,704.397,l),
(271.63,1042.78,l)
);
}
);
width = 1381;
}
);
unicode = 215;
},
{
glyphname = Oslash;
layers = (
{
layerId = "F8A84F20-7B7B-45F5-903D-B244657892CC";
shapes = (
{
closed = 1;
nodes = (
(147.325,9.208,l),
(262.423,158.835,l),
(232.497,197.968,o),
(172.646,292.348,o),
(126.607,409.747,o),
(98.984,554.77,o),
(98.984,644.547,q),
(98.984,787.268,o),
(181.854,1038.18,o),
(336.085,1226.94,o),
(554.77,1335.13,o),
(692.888,1335.13,q),
(771.154,1335.13,o),
(888.553,1305.21,o),
(976.028,1261.47,o),
(1040.48,1210.83,o),
(1065.8,1192.41,q),
(1155.58,1305.21,l),
(1236.15,1245.36,l),
(1134.86,1116.45,l),
(1190.11,1049.69,o),
(1249.96,897.761,o),
(1277.58,759.644,o),
(1282.19,658.358,o),
(1282.19,642.245,q),
(1282.19,506.429,o),
(1201.62,257.819,o),
(1049.69,71.361,o),
(833.307,-39.133,o),
(699.793,-39.133,q),
(630.735,-39.133,o),
(444.277,2.302,o),
(340.689,85.172,q),
(225.591,-52.945,l)
);
},
{
closed = 1;
nodes = (
(407.446,179.552,l),
(423.559,165.741,o),
(471.9,131.211,o),
(540.959,98.984,o),
(630.735,75.964,o),
(690.586,75.964,q),
(796.475,75.964,o),
(969.122,165.741,o),
(1091.13,319.971,o),
(1157.88,527.147,o),
(1157.88,644.547,q),
(1157.88,844.816,o),
(1056.6,1015.16,q)
);
},
{
closed = 1;
nodes = (
(992.141,1098.03,l),
(957.612,1137.16,o),
(877.044,1185.51,o),
(796.475,1210.83,o),
(718.209,1220.03,o),
(688.284,1220.03,q),
(577.79,1220.03,o),
(405.144,1123.35,o),
(285.442,964.518,o),
(223.289,759.644,o),
(223.289,651.452,q),
(223.289,619.225,o),
(232.497,520.241,o),
(260.121,409.747,o),
(306.16,299.254,o),
(340.689,257.819,q)
);
}
);
width = 1381;
}
);
unicode = 216;
},
{
glyphname = Thorn;
layers = (
{
layerId = "F8A84F20-7B7B-45F5-903D-B244657892CC";
shapes = (
{
closed = 1;
nodes = (
(725.115,0,l),
(163.439,0,l),
(163.439,108.192,l),
(349.897,108.192,l),
(349.897,1187.81,l),
(163.439,1187.81,l),
(163.439,1296,l),
(725.115,1296,l),
(725.115,1187.81,l),
(464.994,1187.81,l),
(464.994,1070.41,l),
(591.602,1070.41,l),
(697.491,1070.41,o),
(842.514,1065.8,o),
(946.102,1049.69,o),
(1022.07,1022.07,o),
(1058.9,999.047,q),
(1132.56,953.008,o),
(1229.24,784.966,o),
(1229.24,679.076,q),
(1229.24,575.488,o),
(1132.56,393.634,o),
(1058.9,352.199,q),
(1017.46,326.877,o),
(939.196,299.254,o),
(835.609,285.442,o),
(695.19,283.14,o),
(591.602,283.14,q),
(464.994,283.14,l),
(464.994,108.192,l),
(725.115,108.192,l)
);
},
{
closed = 1;
nodes = (
(464.994,391.332,l),
(596.206,391.332,l),
(736.625,391.332,o),
(948.404,405.144,o),
(1008.25,453.485,q),
(1040.48,478.806,o),
(1104.94,589.3,o),
(1104.94,672.17,q),
(1104.94,766.55,o),
(1012.86,893.157,o),
(966.82,916.177,q),
(946.102,927.687,o),
(900.063,943.8,o),
(837.911,955.31,o),
(752.738,962.216,o),
(690.586,962.216,q),
(464.994,962.216,l)
);
}
);
width = 1381;
}
);
unicode = 222;
},
{
glyphname = germandbls;
layers = (
{
layerId = "F8A84F20-7B7B-45F5-903D-B244657892CC";
shapes = (
{
closed = 1;
nodes = (
(324.575,1038.18,l),
(324.575,1130.26,o),
(386.728,1279.89,o),
(490.316,1383.47,o),
(623.829,1438.72,o),
(697.491,1438.72,q),
(773.456,1438.72,o),
(895.459,1385.78,o),
(978.33,1296,o),
(1024.37,1176.3,o),
(1024.37,1109.54,q),
(1024.37,1005.95,o),
(913.875,849.42,o),
(833.307,817.193,q),
(865.534,805.683,o),
(982.934,757.342,o),
(1095.73,658.358,o),
(1180.9,494.92,o),
(1180.9,370.614,q),
(1180.9,294.65,o),
(1132.56,154.231,o),
(1035.88,48.341,o),
(895.459,-16.114,o),
(803.381,-16.114,q),
(690.586,-16.114,o),
(566.28,41.435,o),
(538.657,59.851,q),
(538.657,179.552,l),
(580.092,154.231,o),
(709,98.984,o),
(801.078,98.984,q),
(842.513,98.984,o),
(932.29,128.909,o),
(1008.249,195.666,o),
(1056.599,303.858,o),
(1056.599,382.124,q),
(1056.599,734.323,o),
(591.601,750.436,q),
(591.601,856.326,l),
(614.62,858.628,o),
(718.208,872.44,o),
(824.098,923.083,o),
(904.666,1019.76,o),
(904.666,1107.24,q),
(904.666,1199.32,o),
(798.776,1323.62,o),
(692.887,1323.62,q),
(649.149,1323.62,o),
(559.373,1293.7,o),
(485.711,1224.64,o),
(439.672,1107.24,o),
(439.672,1019.76,q),
(439.672,0,l),
(149.626,0,l),
(149.626,108.192,l),
(324.574,108.192,l)
);
}
);
width = 1381;
}
);
unicode = 223;
},
{
glyphname = agrave;
layers = (
{
layerId = "F8A84F20-7B7B-45F5-903D-B244657892CC";
shapes = (
{
closed = 1;
nodes = (
(1266.07,108.192,l),
(1266.07,0,l),
(946.102,0,l),
(946.102,165.741,l),
(911.573,133.513,o),
(817.193,62.153,o),
(706.699,4.604,o),
(577.79,-32.227,o),
(506.429,-32.227,q),
(418.955,-32.227,o),
(283.14,25.322,o),
(186.458,117.4,o),
(135.815,232.497,o),
(135.815,292.348,q),
(135.815,338.387,o),
(181.854,458.088,o),
(292.348,566.28,o),
(481.108,639.943,o),
(623.829,639.943,q),
(630.735,639.943,o),
(695.19,637.641,o),
(784.966,630.735,o),
(893.157,619.225,o),
(946.102,610.017,q),
(946.102,681.378,l),
(946.102,709,o),
(936.894,791.87,o),
(886.252,870.137,o),
(771.154,925.384,o),
(667.566,925.384,q),
(605.413,925.384,o),
(412.049,888.552,o),
(273.932,828.702,q),
(230.195,932.29,l),
(303.858,964.517,o),
(531.751,1035.879,o),
(669.868,1035.879,q),
(817.193,1035.879,o),
(976.028,950.705,o),
(1049.69,833.306,o),
(1061.2,715.906,o),
(1061.2,681.377,q),
(1061.2,108.191,l)
);
},
{
closed = 1;
nodes = (
(946.102,504.127,l),
(906.969,511.033,o),
(743.53,529.449,o),
(646.849,529.449,q),
(504.127,529.449,o),
(347.595,462.692,o),
(273.932,377.52,o),
(260.121,299.254,o),
(260.121,290.046,q),
(260.121,246.309,o),
(299.254,170.344,o),
(368.312,112.796,o),
(455.786,78.266,o),
(504.127,78.266,q),
(531.751,78.266,o),
(621.527,92.078,o),
(736.625,140.419,o),
(872.44,237.101,o),
(946.102,319.971,q)
);
},
{
closed = 1;
nodes = (
(860.93,1157.88,l),
(741.229,1157.88,l),
(437.371,1422.61,l),
(683.68,1422.61,l)
);
}
);
width = 1381;
}
);
unicode = 224;
},
{
glyphname = aacute;
layers = (
{
layerId = "F8A84F20-7B7B-45F5-903D-B244657892CC";
shapes = (
{
closed = 1;
nodes = (
(1266.07,108.192,l),
(1266.07,0,l),
(946.102,0,l),
(946.102,165.741,l),
(911.573,133.513,o),
(817.193,62.153,o),
(706.699,4.604,o),
(577.79,-32.227,o),
(506.429,-32.227,q),
(418.955,-32.227,o),
(283.14,25.322,o),
(186.458,117.4,o),
(135.815,232.497,o),
(135.815,292.348,q),
(135.815,338.387,o),
(181.854,458.088,o),
(292.348,566.28,o),
(481.108,639.943,o),
(623.829,639.943,q),
(630.735,639.943,o),
(695.19,637.641,o),
(784.966,630.735,o),
(893.157,619.225,o),
(946.102,610.017,q),
(946.102,681.378,l),
(946.102,709,o),
(936.894,791.87,o),
(886.252,870.137,o),
(771.154,925.384,o),
(667.566,925.384,q),
(605.413,925.384,o),
(412.049,888.552,o),
(273.932,828.702,q),
(230.195,932.29,l),
(303.858,964.517,o),
(531.751,1035.879,o),
(669.868,1035.879,q),
(817.193,1035.879,o),
(976.028,950.705,o),
(1049.69,833.306,o),
(1061.2,715.906,o),
(1061.2,681.377,q),
(1061.2,108.191,l)
);
},
{
closed = 1;
nodes = (
(946.102,504.127,l),
(906.969,511.033,o),
(743.53,529.449,o),
(646.849,529.449,q),
(504.127,529.449,o),
(347.595,462.692,o),
(273.932,377.52,o),
(260.121,299.254,o),
(260.121,290.046,q),
(260.121,246.309,o),
(299.254,170.344,o),
(368.312,112.796,o),
(455.786,78.266,o),
(504.127,78.266,q),
(531.751,78.266,o),
(621.527,92.078,o),
(736.625,140.419,o),
(872.44,237.101,o),
(946.102,319.971,q)
);
},
{
closed = 1;
nodes = (
(494.92,1157.88,l),
(699.793,1422.61,l),
(946.102,1422.61,l),
(616.923,1157.88,l)
);
}
);
width = 1381;
}
);
unicode = 225;
},
{
glyphname = acircumflex;
layers = (
{
layerId = "F8A84F20-7B7B-45F5-903D-B244657892CC";
shapes = (
{
closed = 1;
nodes = (
(1266.07,108.192,l),
(1266.07,0,l),
(946.102,0,l),
(946.102,165.741,l),
(911.573,133.513,o),
(817.193,62.153,o),
(706.699,4.604,o),
(577.79,-32.227,o),
(506.429,-32.227,q),
(418.955,-32.227,o),
(283.14,25.322,o),
(186.458,117.4,o),
(135.815,232.497,o),
(135.815,292.348,q),
(135.815,338.387,o),
(181.854,458.088,o),
(292.348,566.28,o),
(481.108,639.943,o),
(623.829,639.943,q),
(630.735,639.943,o),
(695.19,637.641,o),
(784.966,630.735,o),
(893.157,619.225,o),
(946.102,610.017,q),
(946.102,681.378,l),
(946.102,709,o),
(936.894,791.87,o),
(886.252,870.137,o),
(771.154,925.384,o),
(667.566,925.384,q),
(605.413,925.384,o),
(412.049,888.552,o),
(273.932,828.702,q),
(230.195,932.29,l),
(303.858,964.517,o),
(531.751,1035.879,o),
(669.868,1035.879,q),
(817.193,1035.879,o),
(976.028,950.705,o),
(1049.69,833.306,o),
(1061.2,715.906,o),
(1061.2,681.377,q),
(1061.2,108.191,l)
);
},
{
closed = 1;
nodes = (
(946.102,504.127,l),
(906.969,511.033,o),
(743.53,529.449,o),
(646.849,529.449,q),
(504.127,529.449,o),
(347.595,462.692,o),
(273.932,377.52,o),
(260.121,299.254,o),
(260.121,290.046,q),
(260.121,246.309,o),
(299.254,170.344,o),
(368.312,112.796,o),
(455.786,78.266,o),
(504.127,78.266,q),
(531.751,78.266,o),
(621.527,92.078,o),
(736.625,140.419,o),
(872.44,237.101,o),
(946.102,319.971,q)
);
},
{
closed = 1;
nodes = (
(941.498,1213.13,l),
(867.836,1155.58,l),
(635.339,1307.51,l),
(425.861,1155.58,l),
(349.897,1210.83,l),
(552.468,1429.51,l),
(729.719,1429.51,l)
);
}
);
width = 1381;
}
);
unicode = 226;
},
{
glyphname = atilde;
layers = (
{
layerId = "F8A84F20-7B7B-45F5-903D-B244657892CC";
shapes = (
{
closed = 1;
nodes = (
(1266.07,108.192,l),
(1266.07,0,l),
(946.102,0,l),
(946.102,165.741,l),
(911.573,133.513,o),
(817.193,62.153,o),
(706.699,4.604,o),
(577.79,-32.227,o),
(506.429,-32.227,q),
(418.955,-32.227,o),
(283.14,25.322,o),
(186.458,117.4,o),
(135.815,232.497,o),
(135.815,292.348,q),
(135.815,338.387,o),
(181.854,458.088,o),
(292.348,566.28,o),
(481.108,639.943,o),
(623.829,639.943,q),
(630.735,639.943,o),
(695.19,637.641,o),
(784.966,630.735,o),
(893.157,619.225,o),
(946.102,610.017,q),
(946.102,681.378,l),
(946.102,709,o),
(936.894,791.87,o),
(886.252,870.137,o),
(771.154,925.384,o),
(667.566,925.384,q),
(605.413,925.384,o),
(412.049,888.552,o),
(273.932,828.702,q),
(230.195,932.29,l),
(303.858,964.517,o),
(531.751,1035.879,o),
(669.868,1035.879,q),
(817.193,1035.879,o),
(976.028,950.705,o),
(1049.69,833.306,o),
(1061.2,715.906,o),
(1061.2,681.377,q),
(1061.2,108.191,l)
);
},
{
closed = 1;
nodes = (
(946.102,504.127,l),
(906.969,511.033,o),
(743.53,529.449,o),
(646.849,529.449,q),
(504.127,529.449,o),
(347.595,462.692,o),
(273.932,377.52,o),
(260.121,299.254,o),
(260.121,290.046,q),
(260.121,246.309,o),
(299.254,170.344,o),
(368.312,112.796,o),
(455.786,78.266,o),
(504.127,78.266,q),
(531.751,78.266,o),
(621.527,92.078,o),
(736.625,140.419,o),
(872.44,237.101,o),
(946.102,319.971,q)
);
},
{
closed = 1;
nodes = (
(1058.9,1394.98,l),
(1054.29,1390.38,o),
(1054.29,1378.87,q),
(1026.67,1282.19,o),
(902.365,1183.2,o),
(828.703,1183.2,q),
(789.57,1183.2,o),
(718.209,1215.43,o),
(665.264,1256.87,q),
(610.017,1298.3,o),
(563.978,1323.62,o),
(538.657,1323.62,q),
(492.618,1323.62,o),
(437.371,1249.96,o),
(418.955,1203.92,q),
(418.955,1201.62,o),
(416.653,1197.02,q),
(414.351,1190.11,l),
(322.273,1222.34,l),
(354.501,1309.81,o),
(453.485,1427.21,o),
(538.657,1427.21,q),
(593.904,1427.21,o),
(672.17,1381.17,o),
(709.001,1348.94,q),
(752.738,1316.72,o),
(810.287,1286.79,o),
(835.609,1286.79,q),
(865.534,1286.79,o),
(909.271,1316.72,o),
(939.196,1360.45,o),
(959.914,1406.49,o),
(966.82,1424.91,q)
);
}
);
width = 1381;
}
);
unicode = 227;
},
{
glyphname = adieresis;
layers = (
{
layerId = "F8A84F20-7B7B-45F5-903D-B244657892CC";
shapes = (
{
closed = 1;
nodes = (
(1266.07,108.192,l),
(1266.07,0,l),
(946.102,0,l),
(946.102,165.741,l),
(911.573,133.513,o),
(817.193,62.153,o),
(706.699,4.604,o),
(577.79,-32.227,o),
(506.429,-32.227,q),
(418.955,-32.227,o),
(283.14,25.322,o),
(186.458,117.4,o),
(135.815,232.497,o),
(135.815,292.348,q),
(135.815,338.387,o),
(181.854,458.088,o),
(292.348,566.28,o),
(481.108,639.943,o),
(623.829,639.943,q),
(630.735,639.943,o),
(695.19,637.641,o),
(784.966,630.735,o),
(893.157,619.225,o),
(946.102,610.017,q),
(946.102,681.378,l),
(946.102,709,o),
(936.894,791.87,o),
(886.252,870.137,o),
(771.154,925.384,o),
(667.566,925.384,q),
(605.413,925.384,o),
(412.049,888.552,o),
(273.932,828.702,q),
(230.195,932.29,l),
(303.858,964.517,o),
(531.751,1035.879,o),
(669.868,1035.879,q),
(817.193,1035.879,o),
(976.028,950.705,o),
(1049.69,833.306,o),
(1061.2,715.906,o),
(1061.2,681.377,q),
(1061.2,108.191,l)
);
},
{
closed = 1;
nodes = (
(946.102,504.127,l),
(906.969,511.033,o),
(743.53,529.449,o),
(646.849,529.449,q),
(504.127,529.449,o),
(347.595,462.692,o),
(273.932,377.52,o),
(260.121,299.254,o),
(260.121,290.046,q),
(260.121,246.309,o),
(299.254,170.344,o),
(368.312,112.796,o),
(455.786,78.266,o),
(504.127,78.266,q),
(531.751,78.266,o),
(621.527,92.078,o),
(736.625,140.419,o),
(872.44,237.101,o),
(946.102,319.971,q)
);
},
{
closed = 1;
nodes = (
(580.092,1429.51,l),
(580.092,1180.9,l),
(414.351,1180.9,l),
(414.351,1429.51,l)
);
},
{
closed = 1;
nodes = (
(879.346,1429.51,l),
(879.346,1180.9,l),
(713.605,1180.9,l),
(713.605,1429.51,l)
);
}
);
width = 1381;
}
);
unicode = 228;
},
{
glyphname = aring;
layers = (
{
layerId = "F8A84F20-7B7B-45F5-903D-B244657892CC";
shapes = (
{
closed = 1;
nodes = (
(1266.07,108.192,l),
(1266.07,0,l),
(946.102,0,l),
(946.102,165.741,l),
(911.573,133.513,o),
(817.193,62.153,o),
(706.699,4.604,o),
(577.79,-32.227,o),
(506.429,-32.227,q),
(418.955,-32.227,o),
(283.14,25.322,o),
(186.458,117.4,o),
(135.815,232.497,o),
(135.815,292.348,q),
(135.815,338.387,o),
(181.854,458.088,o),
(292.348,566.28,o),
(481.108,639.943,o),
(623.829,639.943,q),
(630.735,639.943,o),
(695.19,637.641,o),
(784.966,630.735,o),
(893.157,619.225,o),
(946.102,610.017,q),
(946.102,681.378,l),
(946.102,709,o),
(936.894,791.87,o),
(886.252,870.137,o),
(771.154,925.384,o),
(667.566,925.384,q),
(605.413,925.384,o),
(412.049,888.552,o),
(273.932,828.702,q),
(230.195,932.29,l),
(303.858,964.517,o),
(531.751,1035.879,o),
(669.868,1035.879,q),
(817.193,1035.879,o),
(976.028,950.705,o),
(1049.69,833.306,o),
(1061.2,715.906,o),
(1061.2,681.377,q),
(1061.2,108.191,l)
);
},
{
closed = 1;
nodes = (
(946.102,504.127,l),
(906.969,511.033,o),
(743.53,529.449,o),
(646.849,529.449,q),
(504.127,529.449,o),
(347.595,462.692,o),
(273.932,377.52,o),
(260.121,299.254,o),
(260.121,290.046,q),
(260.121,246.309,o),
(299.254,170.344,o),
(368.312,112.796,o),
(455.786,78.266,o),
(504.127,78.266,q),
(531.751,78.266,o),
(621.527,92.078,o),
(736.625,140.419,o),
(872.44,237.101,o),
(946.102,319.971,q)
);
},
{
closed = 1;
nodes = (
(764.248,1477.85,o),
(865.534,1376.57,o),
(865.534,1302.9,q),
(865.534,1229.24,o),
(764.248,1127.96,o),
(690.586,1127.96,q),
(616.923,1127.96,o),
(515.637,1229.24,o),
(515.637,1302.9,q),
(515.637,1376.57,o),
(616.923,1477.85,o),
(690.586,1477.85,q)
);
},
{
closed = 1;
nodes = (
(656.056,1390.38,o),
(603.111,1344.34,o),
(603.111,1302.9,q),
(603.111,1266.07,o),
(656.056,1215.43,o),
(692.888,1215.43,q),
(729.719,1215.43,o),
(778.06,1266.07,o),
(778.06,1302.9,q),
(778.06,1339.74,o),
(729.719,1390.38,o),
(692.888,1390.38,q)
);
}
);
width = 1381;
}
);
unicode = 229;
},
{
glyphname = ae;
layers = (
{
layerId = "F8A84F20-7B7B-45F5-903D-B244657892CC";
shapes = (
{
closed = 1;
nodes = (
(736.625,467.296,l),
(741.229,368.312,o),
(764.248,234.799,o),
(810.287,174.948,q),
(863.232,105.89,o),
(973.726,78.266,o),
(1005.95,78.266,q),
(1075.01,78.266,o),
(1208.52,110.494,o),
(1266.07,128.909,q),
(1307.51,29.925,l),
(1183.2,-13.812,o),
(1031.27,-32.227,o),
(1001.35,-32.227,q),
(932.291,-32.227,o),
(831.005,9.208,o),
(759.644,64.455,o),
(715.907,122.003,o),
(704.397,138.117,q),
(651.452,85.172,o),
(552.468,16.114,o),
(464.994,-20.718,o),
(391.332,-34.529,o),
(361.406,-34.529,q),
(292.348,-34.529,o),
(186.458,16.114,o),
(112.796,101.286,o),
(75.964,209.478,o),
(75.964,267.026,q),
(75.964,324.575,o),
(122.003,448.881,o),
(211.78,547.865,o),
(349.897,612.319,o),
(444.277,612.319,q),
(483.41,612.319,o),
(557.072,600.809,o),
(621.527,591.602,q),
(621.527,672.17,l),
(621.527,791.871,o),
(557.072,925.385,o),
(453.485,925.385,q),
(393.634,925.385,o),
(273.932,897.761,o),
(177.25,863.232,q),
(145.023,964.518,l),
(241.705,1001.35,o),
(384.426,1035.88,o),
(455.786,1035.88,q),
(517.939,1035.88,o),
(603.111,1008.25,o),
(658.358,959.914,o),
(692.888,897.761,o),
(704.397,863.232,q),
(722.813,886.252,o),
(771.154,948.404,o),
(837.911,999.047,o),
(923.083,1035.88,o),
(978.33,1035.88,q),
(987.537,1035.88,o),
(1045.09,1028.97,o),
(1121.05,996.745,o),
(1201.62,927.687,o),
(1266.07,801.079,o),
(1302.9,607.715,o),
(1296,467.296,q)
);
},
{
closed = 1;
nodes = (
(621.527,481.108,l),
(561.676,492.618,o),
(485.712,501.826,o),
(446.579,501.826,q),
(368.312,501.826,o),
(269.328,451.183,o),
(211.78,379.822,o),
(191.062,296.952,o),
(191.062,267.026,q),
(191.062,232.497,o),
(211.78,165.741,o),
(253.215,110.494,o),
(315.367,75.964,o),
(359.105,75.964,q),
(400.54,75.964,o),
(481.108,103.588,o),
(547.865,145.023,o),
(603.111,188.76,o),
(621.527,204.874,q)
);
},
{
closed = 1;
nodes = (
(1180.9,575.488,l),
(1169.39,925.385,o),
(976.028,925.385,q),
(916.177,925.385,o),
(833.307,863.232,o),
(807.985,833.307,q),
(757.342,771.154,o),
(738.927,649.15,o),
(736.625,575.488,q)
);
}
);
width = 1381;
}
);
unicode = 230;
},
{
glyphname = ccedilla;
layers = (
{
layerId = "F8A84F20-7B7B-45F5-903D-B244657892CC";
shapes = (
{
closed = 1;
nodes = (
(759.644,-59.851,l),
(807.985,-71.361,o),
(854.024,-147.325,o),
(854.024,-186.458,q),
(854.024,-204.874,o),
(840.212,-255.517,o),
(810.287,-301.556,o),
(757.342,-331.481,o),
(715.907,-331.481,q),
(669.868,-331.481,o),
(610.017,-299.254,o),
(582.394,-280.838,q),
(633.037,-195.666,l),
(669.868,-220.987,o),
(690.586,-230.195,o),
(706.699,-230.195,q),
(734.323,-230.195,o),
(750.436,-200.27,o),
(750.436,-188.76,q),
(750.436,-158.835,o),
(711.303,-149.627,o),
(702.095,-149.627,q),
(683.68,-149.627,o),
(660.66,-151.929,o),
(649.15,-154.231,q),
(658.358,-29.925,l),
(568.582,-27.623,o),
(391.332,46.039,o),
(250.913,181.854,o),
(163.439,375.218,o),
(163.439,497.222,q),
(163.439,589.3,o),
(230.195,775.758,o),
(363.708,927.687,o),
(570.884,1024.37,o),
(713.605,1024.37,q),
(803.381,1024.37,o),
(941.498,980.632,o),
(1012.86,929.989,q),
(1015.16,927.687,o),
(1040.48,909.271,o),
(1058.9,895.459,o),
(1061.2,895.459,q),
(1068.11,895.459,o),
(1077.31,920.781,o),
(1079.62,925.385,q),
(1098.03,1019.76,l),
(1203.92,1008.25,l),
(1199.32,973.726,o),
(1183.2,856.326,o),
(1183.2,796.475,q),
(1183.2,734.323,o),
(1190.11,644.547,q),
(1084.22,628.433,l),
(1065.8,706.699,o),
(1033.58,796.475,o),
(989.839,833.307,q),
(957.612,858.628,o),
(883.95,888.553,o),
(812.589,904.667,o),
(748.134,909.271,o),
(725.115,909.271,q),
(614.621,909.271,o),
(451.183,837.911,o),
(340.689,720.511,o),
(287.744,575.488,o),
(287.744,499.524,q),
(287.744,425.861,o),
(338.387,278.536,o),
(441.975,158.835,o),
(603.111,82.87,o),
(715.907,82.87,q),
(840.212,82.87,o),
(1077.31,191.062,o),
(1203.92,278.536,q),
(1263.77,191.062,l),
(1137.16,94.38,o),
(904.667,-16.114,o),
(759.644,-29.925,q)
);
}
);
width = 1381;
}
);
unicode = 231;
},
{
glyphname = egrave;
layers = (
{
layerId = "F8A84F20-7B7B-45F5-903D-B244657892CC";
shapes = (
{
closed = 1;
nodes = (
(1286.79,131.211,l),
(1240.75,105.89,o),
(1116.45,48.341,o),
(971.424,0,o),
(810.287,-32.227,o),
(729.719,-32.227,q),
(589.3,-32.227,o),
(379.822,55.247,o),
(239.403,200.27,o),
(170.344,391.332,o),
(170.344,492.618,q),
(170.344,598.508,o),
(246.309,791.871,o),
(386.728,939.196,o),
(589.3,1024.37,o),
(715.907,1024.37,q),
(847.118,1024.37,o),
(1042.78,941.498,o),
(1174,807.985,o),
(1238.45,644.547,o),
(1238.45,566.28,q),
(1238.45,538.657,o),
(1233.85,474.202,o),
(1233.85,462.692,q),
(294.65,462.692,l),
(296.952,416.653,o),
(333.783,285.442,o),
(430.465,165.741,o),
(598.508,78.266,o),
(732.021,78.266,q),
(803.381,78.266,o),
(953.008,112.796,o),
(1086.52,161.137,o),
(1197.02,214.082,o),
(1233.85,232.497,q)
);
},
{
closed = 1;
nodes = (
(1114.14,570.884,l),
(1114.14,626.131,o),
(1065.8,748.134,o),
(969.122,849.42,o),
(819.495,913.875,o),
(715.907,913.875,q),
(600.809,913.875,o),
(446.579,835.609,o),
(349.897,727.417,o),
(301.556,610.017,o),
(294.65,570.884,q)
);
},
{
closed = 1;
nodes = (
(900.063,1157.88,l),
(780.362,1157.88,l),
(476.504,1422.61,l),
(722.813,1422.61,l)
);
}
);
width = 1381;
}
);
unicode = 232;
},
{
glyphname = eacute;
layers = (
{
layerId = "F8A84F20-7B7B-45F5-903D-B244657892CC";
shapes = (
{
closed = 1;
nodes = (
(1286.79,131.211,l),
(1240.75,105.89,o),
(1116.45,48.341,o),
(971.424,0,o),
(810.287,-32.227,o),
(729.719,-32.227,q),
(589.3,-32.227,o),
(379.822,55.247,o),
(239.403,200.27,o),
(170.344,391.332,o),
(170.344,492.618,q),
(170.344,598.508,o),
(246.309,791.871,o),
(386.728,939.196,o),
(589.3,1024.37,o),
(715.907,1024.37,q),
(847.118,1024.37,o),
(1042.78,941.498,o),
(1174,807.985,o),
(1238.45,644.547,o),
(1238.45,566.28,q),
(1238.45,538.657,o),
(1233.85,474.202,o),
(1233.85,462.692,q),
(294.65,462.692,l),
(296.952,416.653,o),
(333.783,285.442,o),
(430.465,165.741,o),
(598.508,78.266,o),
(732.021,78.266,q),
(803.381,78.266,o),
(953.008,112.796,o),
(1086.52,161.137,o),
(1197.02,214.082,o),
(1233.85,232.497,q)
);
},
{
closed = 1;
nodes = (
(1114.14,570.884,l),
(1114.14,626.131,o),
(1065.8,748.134,o),
(969.122,849.42,o),
(819.495,913.875,o),
(715.907,913.875,q),
(600.809,913.875,o),
(446.579,835.609,o),
(349.897,727.417,o),
(301.556,610.017,o),
(294.65,570.884,q)
);
},
{
closed = 1;
nodes = (
(494.92,1157.88,l),
(699.793,1422.61,l),
(946.102,1422.61,l),
(616.923,1157.88,l)
);
}
);
width = 1381;
}
);
unicode = 233;
},
{
glyphname = ecircumflex;
layers = (
{
layerId = "F8A84F20-7B7B-45F5-903D-B244657892CC";
shapes = (
{
closed = 1;
nodes = (
(1286.79,131.211,l),
(1240.75,105.89,o),
(1116.45,48.341,o),
(971.424,0,o),
(810.287,-32.227,o),
(729.719,-32.227,q),
(589.3,-32.227,o),
(379.822,55.247,o),
(239.403,200.27,o),
(170.344,391.332,o),
(170.344,492.618,q),
(170.344,598.508,o),
(246.309,791.871,o),
(386.728,939.196,o),
(589.3,1024.37,o),
(715.907,1024.37,q),
(847.118,1024.37,o),
(1042.78,941.498,o),
(1174,807.985,o),
(1238.45,644.547,o),
(1238.45,566.28,q),
(1238.45,538.657,o),
(1233.85,474.202,o),
(1233.85,462.692,q),
(294.65,462.692,l),
(296.952,416.653,o),
(333.783,285.442,o),
(430.465,165.741,o),
(598.508,78.266,o),
(732.021,78.266,q),
(803.381,78.266,o),
(953.008,112.796,o),
(1086.52,161.137,o),
(1197.02,214.082,o),
(1233.85,232.497,q)
);
},
{
closed = 1;
nodes = (
(1114.14,570.884,l),
(1114.14,626.131,o),
(1065.8,748.134,o),
(969.122,849.42,o),
(819.495,913.875,o),
(715.907,913.875,q),
(600.809,913.875,o),
(446.579,835.609,o),
(349.897,727.417,o),
(301.556,610.017,o),
(294.65,570.884,q)
);
},
{
closed = 1;
nodes = (
(985.235,1213.13,l),
(911.573,1155.58,l),
(679.076,1307.51,l),
(469.598,1155.58,l),
(393.634,1210.83,l),
(596.206,1429.51,l),
(773.456,1429.51,l)
);
}
);
width = 1381;
}
);
unicode = 234;
},
{
glyphname = edieresis;
layers = (
{
layerId = "F8A84F20-7B7B-45F5-903D-B244657892CC";
shapes = (
{
closed = 1;
nodes = (
(1286.79,131.211,l),
(1240.75,105.89,o),
(1116.45,48.341,o),
(971.424,0,o),
(810.287,-32.227,o),
(729.719,-32.227,q),
(589.3,-32.227,o),
(379.822,55.247,o),
(239.403,200.27,o),
(170.344,391.332,o),
(170.344,492.618,q),
(170.344,598.508,o),
(246.309,791.871,o),
(386.728,939.196,o),
(589.3,1024.37,o),
(715.907,1024.37,q),
(847.118,1024.37,o),
(1042.78,941.498,o),
(1174,807.985,o),
(1238.45,644.547,o),
(1238.45,566.28,q),
(1238.45,538.657,o),
(1233.85,474.202,o),
(1233.85,462.692,q),
(294.65,462.692,l),
(296.952,416.653,o),
(333.783,285.442,o),
(430.465,165.741,o),
(598.508,78.266,o),
(732.021,78.266,q),
(803.381,78.266,o),
(953.008,112.796,o),
(1086.52,161.137,o),
(1197.02,214.082,o),
(1233.85,232.497,q)
);
},
{
closed = 1;
nodes = (
(1114.14,570.884,l),
(1114.14,626.131,o),
(1065.8,748.134,o),
(969.122,849.42,o),
(819.495,913.875,o),
(715.907,913.875,q),
(600.809,913.875,o),
(446.579,835.609,o),
(349.897,727.417,o),
(301.556,610.017,o),
(294.65,570.884,q)
);
},
{
closed = 1;
nodes = (
(623.829,1429.51,l),
(623.829,1180.9,l),
(458.088,1180.9,l),
(458.088,1429.51,l)
);
},
{
closed = 1;
nodes = (
(923.083,1429.51,l),
(923.083,1180.9,l),
(757.342,1180.9,l),
(757.342,1429.51,l)
);
}
);
width = 1381;
}
);
unicode = 235;
},
{
glyphname = igrave;
layers = (
{
layerId = "F8A84F20-7B7B-45F5-903D-B244657892CC";
shapes = (
{
closed = 1;
nodes = (
(860.93,1157.88,l),
(741.229,1157.88,l),
(437.371,1422.61,l),
(683.68,1422.61,l)
);
},
{
closed = 1;
nodes = (
(752.738,108.192,l),
(1150.98,108.192,l),
(1150.98,0,l),
(232.497,0,l),
(232.497,108.192,l),
(637.641,108.192,l),
(637.641,881.648,l),
(299.254,881.648,l),
(299.254,989.839,l),
(752.738,989.839,l)
);
}
);
width = 1381;
}
);
unicode = 236;
},
{
glyphname = iacute;
layers = (
{
layerId = "F8A84F20-7B7B-45F5-903D-B244657892CC";
shapes = (
{
closed = 1;
nodes = (
(494.92,1157.88,l),
(699.793,1422.61,l),
(946.102,1422.61,l),
(616.923,1157.88,l)
);
},
{
closed = 1;
nodes = (
(752.738,108.192,l),
(1150.98,108.192,l),
(1150.98,0,l),
(232.497,0,l),
(232.497,108.192,l),
(637.641,108.192,l),
(637.641,881.648,l),
(299.254,881.648,l),
(299.254,989.839,l),
(752.738,989.839,l)
);
}
);
width = 1381;
}
);
unicode = 237;
},
{
glyphname = icircumflex;
layers = (
{
layerId = "F8A84F20-7B7B-45F5-903D-B244657892CC";
shapes = (
{
closed = 1;
nodes = (
(985.235,1213.13,l),
(911.573,1155.58,l),
(679.076,1307.51,l),
(469.598,1155.58,l),
(393.634,1210.83,l),
(596.206,1429.51,l),
(773.456,1429.51,l)
);
},
{
closed = 1;
nodes = (
(752.738,108.192,l),
(1150.98,108.192,l),
(1150.98,0,l),
(232.497,0,l),
(232.497,108.192,l),
(637.641,108.192,l),
(637.641,881.648,l),
(299.254,881.648,l),
(299.254,989.839,l),
(752.738,989.839,l)
);
}
);
width = 1381;
}
);
unicode = 238;
},
{
glyphname = idieresis;
layers = (
{
layerId = "F8A84F20-7B7B-45F5-903D-B244657892CC";
shapes = (
{
closed = 1;
nodes = (
(623.829,1429.51,l),
(623.829,1180.9,l),
(458.088,1180.9,l),
(458.088,1429.51,l)
);
},
{
closed = 1;
nodes = (
(923.083,1429.51,l),
(923.083,1180.9,l),
(757.342,1180.9,l),
(757.342,1429.51,l)
);
},
{
closed = 1;
nodes = (
(752.738,108.192,l),
(1150.98,108.192,l),
(1150.98,0,l),
(232.497,0,l),
(232.497,108.192,l),
(637.641,108.192,l),
(637.641,881.648,l),
(299.254,881.648,l),
(299.254,989.839,l),
(752.738,989.839,l)
);
}
);
width = 1381;
}
);
unicode = 239;
},
{
glyphname = eth;
layers = (
{
layerId = "F8A84F20-7B7B-45F5-903D-B244657892CC";
shapes = (
{
closed = 1;
nodes = (
(391.332,1187.81,l),
(506.429,1362.76,l),
(462.692,1383.47,o),
(398.238,1413.4,o),
(340.689,1436.42,o),
(285.442,1454.83,o),
(250.913,1466.34,q),
(290.046,1579.14,l),
(333.783,1565.33,o),
(400.54,1542.31,o),
(462.692,1516.99,o),
(529.449,1487.06,o),
(570.884,1466.34,q),
(665.264,1620.57,l),
(764.248,1556.12,l),
(674.472,1413.4,l),
(709.001,1392.68,o),
(824.099,1316.72,o),
(955.31,1208.52,o),
(1086.52,1063.5,o),
(1194.71,879.346,o),
(1261.47,656.056,o),
(1261.47,522.543,q),
(1261.47,389.03,o),
(1174,181.854,o),
(1019.76,41.435,o),
(810.287,-32.227,o),
(690.586,-32.227,q),
(547.865,-32.227,o),
(333.783,59.851,o),
(191.062,209.478,o),
(119.702,400.54,o),
(119.702,501.826,q),
(119.702,628.433,o),
(211.78,826.401,o),
(366.01,964.518,o),
(563.978,1035.88,o),
(669.868,1035.88,q),
(759.644,1035.88,o),
(934.593,999.047,o),
(985.235,973.726,q),
(989.839,978.33,l),
(957.612,1019.76,o),
(893.157,1095.73,o),
(807.985,1176.3,o),
(692.888,1259.17,o),
(610.017,1307.51,q),
(490.316,1118.75,l)
);
},
{
closed = 1;
nodes = (
(244.007,418.955,o),
(301.556,267.026,o),
(416.653,147.325,o),
(582.394,75.964,o),
(690.586,75.964,q),
(801.079,75.964,o),
(969.122,149.627,o),
(1079.62,269.328,o),
(1137.16,421.257,o),
(1137.16,501.826,q),
(1137.16,580.092,o),
(1079.62,734.323,o),
(966.82,854.024,o),
(801.079,927.687,o),
(690.586,927.687,q),
(582.394,927.687,o),
(416.653,856.326,o),
(303.858,738.927,o),
(244.007,584.696,o),
(244.007,501.826,q)
);
}
);
width = 1381;
}
);
unicode = 240;
},
{
glyphname = ntilde;
layers = (
{
layerId = "F8A84F20-7B7B-45F5-903D-B244657892CC";
shapes = (
{
closed = 1;
nodes = (
(382.124,860.93,l),
(418.955,888.553,o),
(506.429,946.102,o),
(605.413,994.443,o),
(715.907,1024.37,o),
(778.06,1024.37,q),
(856.326,1024.37,o),
(982.934,969.122,o),
(1072.71,867.836,o),
(1121.05,727.417,o),
(1121.05,644.547,q),
(1121.05,108.192,l),
(1305.21,108.192,l),
(1305.21,0,l),
(807.985,0,l),
(807.985,108.192,l),
(1005.95,108.192,l),
(1005.95,635.339,l),
(1005.95,761.946,o),
(883.95,909.271,o),
(780.362,909.271,q),
(752.738,909.271,o),
(679.076,897.761,o),
(582.394,858.628,o),
(460.39,787.268,o),
(382.124,725.115,q),
(382.124,108.192,l),
(575.488,108.192,l),
(575.488,0,l),
(78.266,0,l),
(78.266,108.192,l),
(267.026,108.192,l),
(267.026,881.648,l),
(78.266,881.648,l),
(78.266,989.839,l),
(382.124,989.839,l)
);
},
{
closed = 1;
nodes = (
(1058.9,1394.98,l),
(1054.29,1390.38,o),
(1054.29,1378.87,q),
(1026.67,1282.19,o),
(902.365,1183.2,o),
(828.703,1183.2,q),
(789.57,1183.2,o),
(718.209,1215.43,o),
(665.264,1256.87,q),
(610.017,1298.3,o),
(563.978,1323.62,o),
(538.657,1323.62,q),
(492.618,1323.62,o),
(437.371,1249.96,o),
(418.955,1203.92,q),
(418.955,1201.62,o),
(416.653,1197.02,q),
(414.351,1190.11,l),
(322.273,1222.34,l),
(354.501,1309.81,o),
(453.485,1427.21,o),
(538.657,1427.21,q),
(593.904,1427.21,o),
(672.17,1381.17,o),
(709.001,1348.94,q),
(752.738,1316.72,o),
(810.287,1286.79,o),
(835.609,1286.79,q),
(865.534,1286.79,o),
(909.271,1316.72,o),
(939.196,1360.45,o),
(959.914,1406.49,o),
(966.82,1424.91,q)
);
}
);
width = 1381;
}
);
unicode = 241;
},
{
glyphname = ograve;
layers = (
{
layerId = "F8A84F20-7B7B-45F5-903D-B244657892CC";
shapes = (
{
closed = 1;
nodes = (
(119.702,605.413,o),
(193.364,798.777,o),
(336.085,946.102,o),
(550.167,1035.88,o),
(690.586,1035.88,q),
(835.609,1035.88,o),
(1049.69,943.8,o),
(1190.11,791.871,o),
(1261.47,600.809,o),
(1261.47,501.826,q),
(1261.47,402.842,o),
(1190.11,211.78,o),
(1049.69,59.851,o),
(835.609,-32.227,o),
(690.586,-32.227,q),
(550.167,-32.227,o),
(336.085,57.549,o),
(193.364,207.176,o),
(119.702,398.238,o),
(119.702,501.826,q)
);
},
{
closed = 1;
nodes = (
(244.007,421.257,o),
(301.556,269.328,o),
(414.351,151.929,o),
(582.394,82.87,o),
(690.586,82.87,q),
(801.079,82.87,o),
(969.122,154.231,o),
(1079.62,271.63,o),
(1137.16,421.257,o),
(1137.16,501.826,q),
(1137.16,580.092,o),
(1079.62,732.021,o),
(969.122,849.42,o),
(801.079,920.781,o),
(690.586,920.781,q),
(582.394,920.781,o),
(416.653,851.722,o),
(301.556,734.323,o),
(244.007,584.696,o),
(244.007,501.826,q)
);
},
{
closed = 1;
nodes = (
(860.93,1157.88,l),
(741.229,1157.88,l),
(437.371,1422.61,l),
(683.68,1422.61,l)
);
}
);
width = 1381;
}
);
unicode = 242;
},
{
glyphname = oacute;
layers = (
{
layerId = "F8A84F20-7B7B-45F5-903D-B244657892CC";
shapes = (
{
closed = 1;
nodes = (
(119.702,605.413,o),
(193.364,798.777,o),
(336.085,946.102,o),
(550.167,1035.88,o),
(690.586,1035.88,q),
(835.609,1035.88,o),
(1049.69,943.8,o),
(1190.11,791.871,o),
(1261.47,600.809,o),
(1261.47,501.826,q),
(1261.47,402.842,o),
(1190.11,211.78,o),
(1049.69,59.851,o),
(835.609,-32.227,o),
(690.586,-32.227,q),
(550.167,-32.227,o),
(336.085,57.549,o),
(193.364,207.176,o),
(119.702,398.238,o),
(119.702,501.826,q)
);
},
{
closed = 1;
nodes = (
(244.007,421.257,o),
(301.556,269.328,o),
(414.351,151.929,o),
(582.394,82.87,o),
(690.586,82.87,q),
(801.079,82.87,o),
(969.122,154.231,o),
(1079.62,271.63,o),
(1137.16,421.257,o),
(1137.16,501.826,q),
(1137.16,580.092,o),
(1079.62,732.021,o),
(969.122,849.42,o),
(801.079,920.781,o),
(690.586,920.781,q),
(582.394,920.781,o),
(416.653,851.722,o),
(301.556,734.323,o),
(244.007,584.696,o),
(244.007,501.826,q)
);
},
{
closed = 1;
nodes = (
(494.92,1157.88,l),
(699.793,1422.61,l),
(946.102,1422.61,l),
(616.923,1157.88,l)
);
}
);
width = 1381;
}
);
unicode = 243;
},
{
glyphname = ocircumflex;
layers = (
{
layerId = "F8A84F20-7B7B-45F5-903D-B244657892CC";
shapes = (
{
closed = 1;
nodes = (
(119.702,605.413,o),
(193.364,798.777,o),
(336.085,946.102,o),
(550.167,1035.88,o),
(690.586,1035.88,q),
(835.609,1035.88,o),
(1049.69,943.8,o),
(1190.11,791.871,o),
(1261.47,600.809,o),
(1261.47,501.826,q),
(1261.47,402.842,o),
(1190.11,211.78,o),
(1049.69,59.851,o),
(835.609,-32.227,o),
(690.586,-32.227,q),
(550.167,-32.227,o),
(336.085,57.549,o),
(193.364,207.176,o),
(119.702,398.238,o),
(119.702,501.826,q)
);
},
{
closed = 1;
nodes = (
(244.007,421.257,o),
(301.556,269.328,o),
(414.351,151.929,o),
(582.394,82.87,o),
(690.586,82.87,q),
(801.079,82.87,o),
(969.122,154.231,o),
(1079.62,271.63,o),
(1137.16,421.257,o),
(1137.16,501.826,q),
(1137.16,580.092,o),
(1079.62,732.021,o),
(969.122,849.42,o),
(801.079,920.781,o),
(690.586,920.781,q),
(582.394,920.781,o),
(416.653,851.722,o),
(301.556,734.323,o),
(244.007,584.696,o),
(244.007,501.826,q)
);
},
{
closed = 1;
nodes = (
(985.235,1213.13,l),
(911.573,1155.58,l),
(679.076,1307.51,l),
(469.598,1155.58,l),
(393.634,1210.83,l),
(596.206,1429.51,l),
(773.456,1429.51,l)
);
}
);
width = 1381;
}
);
unicode = 244;
},
{
glyphname = otilde;
layers = (
{
layerId = "F8A84F20-7B7B-45F5-903D-B244657892CC";
shapes = (
{
closed = 1;
nodes = (
(119.702,605.413,o),
(193.364,798.777,o),
(336.085,946.102,o),
(550.167,1035.88,o),
(690.586,1035.88,q),
(835.609,1035.88,o),
(1049.69,943.8,o),
(1190.11,791.871,o),
(1261.47,600.809,o),
(1261.47,501.826,q),
(1261.47,402.842,o),
(1190.11,211.78,o),
(1049.69,59.851,o),
(835.609,-32.227,o),
(690.586,-32.227,q),
(550.167,-32.227,o),
(336.085,57.549,o),
(193.364,207.176,o),
(119.702,398.238,o),
(119.702,501.826,q)
);
},
{
closed = 1;
nodes = (
(244.007,421.257,o),
(301.556,269.328,o),
(414.351,151.929,o),
(582.394,82.87,o),
(690.586,82.87,q),
(801.079,82.87,o),
(969.122,154.231,o),
(1079.62,271.63,o),
(1137.16,421.257,o),
(1137.16,501.826,q),
(1137.16,580.092,o),
(1079.62,732.021,o),
(969.122,849.42,o),
(801.079,920.781,o),
(690.586,920.781,q),
(582.394,920.781,o),
(416.653,851.722,o),
(301.556,734.323,o),
(244.007,584.696,o),
(244.007,501.826,q)
);
},
{
closed = 1;
nodes = (
(1058.9,1394.98,l),
(1054.29,1390.38,o),
(1054.29,1378.87,q),
(1026.67,1282.19,o),
(902.365,1183.2,o),
(828.703,1183.2,q),
(789.57,1183.2,o),
(718.209,1215.43,o),
(665.264,1256.87,q),
(610.017,1298.3,o),
(563.978,1323.62,o),
(538.657,1323.62,q),
(492.618,1323.62,o),
(437.371,1249.96,o),
(418.955,1203.92,q),
(418.955,1201.62,o),
(416.653,1197.02,q),
(414.351,1190.11,l),
(322.273,1222.34,l),
(354.501,1309.81,o),
(453.485,1427.21,o),
(538.657,1427.21,q),
(593.904,1427.21,o),
(672.17,1381.17,o),
(709.001,1348.94,q),
(752.738,1316.72,o),
(810.287,1286.79,o),
(835.609,1286.79,q),
(865.534,1286.79,o),
(909.271,1316.72,o),
(939.196,1360.45,o),
(959.914,1406.49,o),
(966.82,1424.91,q)
);
}
);
width = 1381;
}
);
unicode = 245;
},
{
glyphname = odieresis;
layers = (
{
layerId = "F8A84F20-7B7B-45F5-903D-B244657892CC";
shapes = (
{
closed = 1;
nodes = (
(119.702,605.413,o),
(193.364,798.777,o),
(336.085,946.102,o),
(550.167,1035.88,o),
(690.586,1035.88,q),
(835.609,1035.88,o),
(1049.69,943.8,o),
(1190.11,791.871,o),
(1261.47,600.809,o),
(1261.47,501.826,q),
(1261.47,402.842,o),
(1190.11,211.78,o),
(1049.69,59.851,o),
(835.609,-32.227,o),
(690.586,-32.227,q),
(550.167,-32.227,o),
(336.085,57.549,o),
(193.364,207.176,o),
(119.702,398.238,o),
(119.702,501.826,q)
);
},
{
closed = 1;
nodes = (
(244.007,421.257,o),
(301.556,269.328,o),
(414.351,151.929,o),
(582.394,82.87,o),
(690.586,82.87,q),
(801.079,82.87,o),
(969.122,154.231,o),
(1079.62,271.63,o),
(1137.16,421.257,o),
(1137.16,501.826,q),
(1137.16,580.092,o),
(1079.62,732.021,o),
(969.122,849.42,o),
(801.079,920.781,o),
(690.586,920.781,q),
(582.394,920.781,o),
(416.653,851.722,o),
(301.556,734.323,o),
(244.007,584.696,o),
(244.007,501.826,q)
);
},
{
closed = 1;
nodes = (
(623.829,1429.51,l),
(623.829,1180.9,l),
(458.088,1180.9,l),
(458.088,1429.51,l)
);
},
{
closed = 1;
nodes = (
(923.083,1429.51,l),
(923.083,1180.9,l),
(757.342,1180.9,l),
(757.342,1429.51,l)
);
}
);
width = 1381;
}
);
unicode = 246;
},
{
glyphname = divide;
layers = (
{
layerId = "F8A84F20-7B7B-45F5-903D-B244657892CC";
shapes = (
{
closed = 1;
nodes = (
(732.021,1215.43,o),
(794.173,1157.88,o),
(794.173,1111.84,q),
(794.173,1070.41,o),
(736.625,1008.25,o),
(690.586,1008.25,q),
(646.849,1008.25,o),
(586.998,1070.41,o),
(586.998,1111.84,q),
(586.998,1157.88,o),
(651.452,1215.43,o),
(690.586,1215.43,q)
);
},
{
closed = 1;
nodes = (
(1229.24,639.943,l),
(151.929,639.943,l),
(151.929,755.04,l),
(1229.24,755.04,l)
);
},
{
closed = 1;
nodes = (
(729.719,386.728,o),
(794.173,329.179,o),
(794.173,283.14,q),
(794.173,237.101,o),
(729.719,179.552,o),
(690.586,179.552,q),
(649.15,179.552,o),
(586.998,239.403,o),
(586.998,283.14,q),
(586.998,329.179,o),
(649.15,386.728,o),
(690.586,386.728,q)
);
}
);
width = 1381;
}
);
unicode = 247;
},
{
glyphname = oslash;
layers = (
{
layerId = "F8A84F20-7B7B-45F5-903D-B244657892CC";
shapes = (
{
closed = 1;
nodes = (
(138.117,52.945,l),
(244.007,158.835,l),
(204.874,207.176,o),
(156.533,306.16,o),
(128.909,398.238,o),
(119.702,476.504,o),
(119.702,504.127,q),
(119.702,603.111,o),
(191.062,796.475,o),
(336.085,943.8,o),
(547.865,1035.88,o),
(690.586,1035.88,q),
(771.154,1035.88,o),
(966.82,992.141,o),
(1040.48,932.291,q),
(1153.28,1047.39,l),
(1240.75,959.914,l),
(1134.86,854.024,l),
(1176.3,805.683,o),
(1226.94,702.095,o),
(1252.26,607.715,o),
(1261.47,527.147,o),
(1261.47,501.826,q),
(1261.47,398.238,o),
(1187.81,204.874,o),
(1042.78,55.247,o),
(831.005,-32.227,o),
(695.19,-32.227,q),
(683.68,-32.227,o),
(610.017,-29.925,o),
(508.731,-9.208,o),
(389.03,34.529,o),
(333.783,73.662,q),
(227.893,-32.227,l)
);
},
{
closed = 1;
nodes = (
(423.559,156.533,l),
(444.277,142.721,o),
(488.014,117.4,o),
(547.865,96.682,o),
(630.735,82.87,o),
(690.586,82.87,q),
(801.079,82.87,o),
(969.122,154.231,o),
(1079.62,271.63,o),
(1137.16,421.257,o),
(1137.16,501.826,q),
(1137.16,651.452,o),
(1045.09,764.248,q)
);
},
{
closed = 1;
nodes = (
(955.31,849.42,l),
(927.687,863.232,o),
(877.044,888.553,o),
(819.495,909.271,o),
(743.53,920.781,o),
(690.586,920.781,q),
(580.092,920.781,o),
(412.049,847.118,o),
(299.254,729.719,o),
(244.007,580.092,o),
(244.007,501.826,q),
(244.007,455.786,o),
(278.536,308.462,o),
(331.481,241.705,q)
);
}
);
width = 1381;
}
);
unicode = 248;
},
{
glyphname = ugrave;
layers = (
{
layerId = "F8A84F20-7B7B-45F5-903D-B244657892CC";
shapes = (
{
closed = 1;
nodes = (
(377.52,379.822,l),
(377.52,356.803,o),
(384.426,257.819,o),
(428.163,158.835,o),
(520.241,82.87,o),
(607.715,82.87,q),
(704.397,82.87,o),
(881.648,179.552,o),
(978.33,283.14,q),
(978.33,881.648,l),
(780.362,881.648,l),
(780.362,989.839,l),
(1093.43,989.839,l),
(1093.43,108.192,l),
(1279.89,108.192,l),
(1279.89,0,l),
(978.33,0,l),
(978.33,126.607,l),
(953.008,105.89,o),
(883.95,50.643,o),
(794.173,2.302,o),
(683.68,-32.227,o),
(616.923,-32.227,q),
(508.731,-32.227,o),
(370.614,46.039,o),
(292.348,165.741,o),
(262.423,310.764,o),
(262.423,379.822,q),
(262.423,881.648,l),
(73.662,881.648,l),
(73.662,989.839,l),
(377.52,989.839,l)
);
},
{
closed = 1;
nodes = (
(860.93,1157.88,l),
(741.229,1157.88,l),
(437.371,1422.61,l),
(683.68,1422.61,l)
);
}
);
width = 1381;
}
);
unicode = 249;
},
{
glyphname = uacute;
layers = (
{
layerId = "F8A84F20-7B7B-45F5-903D-B244657892CC";
shapes = (
{
closed = 1;
nodes = (
(377.52,379.822,l),
(377.52,356.803,o),
(384.426,257.819,o),
(428.163,158.835,o),
(520.241,82.87,o),
(607.715,82.87,q),
(704.397,82.87,o),
(881.648,179.552,o),
(978.33,283.14,q),
(978.33,881.648,l),
(780.362,881.648,l),
(780.362,989.839,l),
(1093.43,989.839,l),
(1093.43,108.192,l),
(1279.89,108.192,l),
(1279.89,0,l),
(978.33,0,l),
(978.33,126.607,l),
(953.008,105.89,o),
(883.95,50.643,o),
(794.173,2.302,o),
(683.68,-32.227,o),
(616.923,-32.227,q),
(508.731,-32.227,o),
(370.614,46.039,o),
(292.348,165.741,o),
(262.423,310.764,o),
(262.423,379.822,q),
(262.423,881.648,l),
(73.662,881.648,l),
(73.662,989.839,l),
(377.52,989.839,l)
);
},
{
closed = 1;
nodes = (
(494.92,1157.88,l),
(699.793,1422.61,l),
(946.102,1422.61,l),
(616.923,1157.88,l)
);
}
);
width = 1381;
}
);
unicode = 250;
},
{
glyphname = ucircumflex;
layers = (
{
layerId = "F8A84F20-7B7B-45F5-903D-B244657892CC";
shapes = (
{
closed = 1;
nodes = (
(377.52,379.822,l),
(377.52,356.803,o),
(384.426,257.819,o),
(428.163,158.835,o),
(520.241,82.87,o),
(607.715,82.87,q),
(704.397,82.87,o),
(881.648,179.552,o),
(978.33,283.14,q),
(978.33,881.648,l),
(780.362,881.648,l),
(780.362,989.839,l),
(1093.43,989.839,l),
(1093.43,108.192,l),
(1279.89,108.192,l),
(1279.89,0,l),
(978.33,0,l),
(978.33,126.607,l),
(953.008,105.89,o),
(883.95,50.643,o),
(794.173,2.302,o),
(683.68,-32.227,o),
(616.923,-32.227,q),
(508.731,-32.227,o),
(370.614,46.039,o),
(292.348,165.741,o),
(262.423,310.764,o),
(262.423,379.822,q),
(262.423,881.648,l),
(73.662,881.648,l),
(73.662,989.839,l),
(377.52,989.839,l)
);
},
{
closed = 1;
nodes = (
(985.235,1213.13,l),
(911.573,1155.58,l),
(679.076,1307.51,l),
(469.598,1155.58,l),
(393.634,1210.83,l),
(596.206,1429.51,l),
(773.456,1429.51,l)
);
}
);
width = 1381;
}
);
unicode = 251;
},
{
glyphname = udieresis;
layers = (
{
layerId = "F8A84F20-7B7B-45F5-903D-B244657892CC";
shapes = (
{
closed = 1;
nodes = (
(377.52,379.822,l),
(377.52,356.803,o),
(384.426,257.819,o),
(428.163,158.835,o),
(520.241,82.87,o),
(607.715,82.87,q),
(704.397,82.87,o),
(881.648,179.552,o),
(978.33,283.14,q),
(978.33,881.648,l),
(780.362,881.648,l),
(780.362,989.839,l),
(1093.43,989.839,l),
(1093.43,108.192,l),
(1279.89,108.192,l),
(1279.89,0,l),
(978.33,0,l),
(978.33,126.607,l),
(953.008,105.89,o),
(883.95,50.643,o),
(794.173,2.302,o),
(683.68,-32.227,o),
(616.923,-32.227,q),
(508.731,-32.227,o),
(370.614,46.039,o),
(292.348,165.741,o),
(262.423,310.764,o),
(262.423,379.822,q),
(262.423,881.648,l),
(73.662,881.648,l),
(73.662,989.839,l),
(377.52,989.839,l)
);
},
{
closed = 1;
nodes = (
(623.829,1429.51,l),
(623.829,1180.9,l),
(458.088,1180.9,l),
(458.088,1429.51,l)
);
},
{
closed = 1;
nodes = (
(923.083,1429.51,l),
(923.083,1180.9,l),
(757.342,1180.9,l),
(757.342,1429.51,l)
);
}
);
width = 1381;
}
);
unicode = 252;
},
{
glyphname = yacute;
layers = (
{
layerId = "F8A84F20-7B7B-45F5-903D-B244657892CC";
shapes = (
{
closed = 1;
nodes = (
(485.712,881.648,l),
(326.877,881.648,l),
(690.586,181.854,l),
(1091.13,881.648,l),
(934.593,881.648,l),
(934.593,989.839,l),
(1355.85,989.839,l),
(1355.85,881.648,l),
(1222.34,881.648,l),
(577.79,-244.007,l),
(782.664,-244.007,l),
(782.664,-352.199,l),
(92.078,-352.199,l),
(92.078,-244.007,l),
(446.579,-244.007,l),
(623.829,62.153,l),
(195.666,881.648,l),
(55.247,881.648,l),
(55.247,989.839,l),
(485.712,989.839,l)
);
},
{
closed = 1;
nodes = (
(494.92,1157.88,l),
(699.793,1422.61,l),
(946.102,1422.61,l),
(616.923,1157.88,l)
);
}
);
width = 1381;
}
);
unicode = 253;
},
{
glyphname = thorn;
layers = (
{
layerId = "F8A84F20-7B7B-45F5-903D-B244657892CC";
shapes = (
{
closed = 1;
nodes = (
(352.199,826.401,l),
(366.01,847.118,o),
(423.559,911.573,o),
(520.241,973.726,o),
(656.056,1019.76,o),
(748.134,1019.76,q),
(865.534,1019.76,o),
(1054.29,932.291,o),
(1187.81,789.57,o),
(1261.47,603.111,o),
(1261.47,504.127,q),
(1261.47,386.728,o),
(1171.69,195.666,o),
(1028.97,59.851,o),
(844.816,-16.114,o),
(752.738,-16.114,q),
(738.927,-16.114,o),
(656.056,-9.208,o),
(540.959,27.623,o),
(412.049,108.192,o),
(352.199,181.854,q),
(347.595,181.854,l),
(347.595,-253.215,l),
(690.586,-253.215,l),
(690.586,-361.406,l),
(43.737,-361.406,l),
(43.737,-253.215,l),
(232.497,-253.215,l),
(232.497,1328.23,l),
(27.623,1319.02,l),
(27.623,1427.21,l),
(347.595,1447.93,l),
(347.595,826.401,l)
);
},
{
closed = 1;
nodes = (
(338.387,409.747,o),
(416.653,255.517,o),
(536.355,151.929,o),
(681.378,98.984,o),
(748.134,98.984,q),
(826.401,98.984,o),
(966.82,161.137,o),
(1072.71,269.328,o),
(1137.16,418.955,o),
(1137.16,506.429,q),
(1137.16,577.79,o),
(1088.82,720.511,o),
(992.141,833.307,o),
(847.118,904.667,o),
(750.436,904.667,q),
(660.66,904.667,o),
(508.731,840.212,o),
(400.54,734.323,o),
(338.387,589.3,o),
(338.387,511.033,q)
);
}
);
width = 1381;
}
);
unicode = 254;
},
{
glyphname = ydieresis;
layers = (
{
layerId = "F8A84F20-7B7B-45F5-903D-B244657892CC";
shapes = (
{
closed = 1;
nodes = (
(55.247,989.839,l),
(55.247,881.648,l),
(195.666,881.648,l),
(623.829,62.153,l),
(446.579,-244.007,l),
(92.078,-244.007,l),
(92.078,-352.199,l),
(782.664,-352.199,l),
(782.664,-244.007,l),
(577.79,-244.007,l),
(1222.34,881.648,l),
(1355.85,881.648,l),
(1355.85,989.839,l),
(934.593,989.839,l),
(934.593,881.648,l),
(1091.13,881.648,l),
(690.586,181.854,l),
(326.877,881.648,l),
(485.712,881.648,l),
(485.712,989.839,l)
);
},
{
closed = 1;
nodes = (
(458.088,1180.9,l),
(623.829,1180.9,l),
(623.829,1429.51,l),
(458.088,1429.51,l)
);
},
{
closed = 1;
nodes = (
(757.342,1180.9,l),
(923.083,1180.9,l),
(923.083,1429.51,l),
(757.342,1429.51,l)
);
}
);
width = 1381;
}
);
unicode = 255;
},
{
glyphname = OE;
layers = (
{
layerId = "F8A84F20-7B7B-45F5-903D-B244657892CC";
shapes = (
{
closed = 1;
nodes = (
(1236.15,881.648,l),
(1134.86,881.648,l),
(1114.14,1187.81,l),
(810.287,1187.81,l),
(810.287,741.229,l),
(959.914,741.229,l),
(959.914,909.271,l),
(1065.8,909.271,l),
(1065.8,464.994,l),
(959.914,464.994,l),
(959.914,633.037,l),
(810.287,633.037,l),
(810.287,108.192,l),
(1146.37,108.192,l),
(1160.18,425.861,l),
(1266.07,425.861,l),
(1266.07,0,l),
(557.072,0,l),
(421.257,0,o),
(225.591,124.305,o),
(98.984,313.065,o),
(36.831,536.355,o),
(36.831,637.641,q),
(36.831,775.758,o),
(124.305,1015.16,o),
(283.14,1194.71,o),
(506.429,1296,o),
(642.245,1296,q),
(1236.15,1296,l)
);
},
{
closed = 1;
nodes = (
(635.339,1187.81,l),
(520.241,1187.81,o),
(342.991,1100.33,o),
(223.289,950.706,o),
(161.137,752.738,o),
(161.137,644.547,q),
(161.137,559.374,o),
(209.478,370.614,o),
(313.065,211.78,o),
(476.504,108.192,o),
(593.904,108.192,q),
(695.19,108.192,l),
(695.19,1187.81,l)
);
}
);
width = 1381;
}
);
unicode = 338;
},
{
glyphname = oe;
layers = (
{
layerId = "F8A84F20-7B7B-45F5-903D-B244657892CC";
shapes = (
{
closed = 1;
nodes = (
(736.625,471.9,l),
(734.323,352.199,o),
(787.268,197.968,o),
(870.138,110.494,o),
(962.216,75.964,o),
(1001.35,75.964,q),
(1075.01,75.964,o),
(1220.03,112.796,o),
(1266.07,126.607,q),
(1307.51,27.623,l),
(1183.2,-13.812,o),
(1038.18,-34.529,o),
(1005.95,-34.529,q),
(985.235,-34.529,o),
(906.969,-23.02,o),
(817.193,18.416,o),
(725.115,103.588,o),
(690.586,179.552,q),
(681.378,158.835,o),
(642.245,87.474,o),
(568.582,16.114,o),
(458.088,-34.529,o),
(375.218,-34.529,q),
(285.442,-34.529,o),
(165.741,27.623,o),
(87.474,122.003,o),
(46.039,237.101,o),
(25.322,345.293,o),
(23.02,432.767,o),
(23.02,453.485,q),
(23.02,563.978,o),
(64.455,773.456,o),
(154.231,939.196,o),
(299.254,1038.18,o),
(405.144,1038.18,q),
(474.202,1038.18,o),
(575.488,989.839,o),
(644.547,927.687,o),
(683.68,863.232,o),
(690.586,847.118,q),
(743.53,943.8,o),
(900.063,1035.88,o),
(976.028,1035.88,q),
(1065.8,1035.88,o),
(1187.81,941.498,o),
(1263.77,801.079,o),
(1298.3,642.245,o),
(1298.3,577.79,q),
(1298.3,550.167,o),
(1296,488.014,o),
(1293.7,471.9,q)
);
},
{
closed = 1;
nodes = (
(621.527,630.735,o),
(584.696,805.683,o),
(522.543,900.063,o),
(446.579,927.687,o),
(405.144,927.687,q),
(333.783,927.687,o),
(237.101,842.514,o),
(174.948,706.699,o),
(147.325,540.959,o),
(147.325,460.39,q),
(147.325,395.936,o),
(168.042,260.121,o),
(218.685,147.325,o),
(306.16,75.964,o),
(372.916,75.964,q),
(435.069,75.964,o),
(520.241,124.305,o),
(575.488,202.572,o),
(605.413,296.952,o),
(619.225,389.03,o),
(621.527,464.994,o),
(621.527,485.712,q)
);
},
{
closed = 1;
nodes = (
(1183.2,573.186,l),
(1183.2,637.641,o),
(1160.18,764.248,o),
(1109.54,865.534,o),
(1031.27,925.385,o),
(976.028,925.385,q),
(957.612,925.385,o),
(881.648,902.365,o),
(801.079,831.005,o),
(738.927,690.586,o),
(736.625,573.186,q)
);
}
);
width = 1381;
}
);
unicode = 339;
},
{
glyphname = Scaron;
layers = (
{
layerId = "F8A84F20-7B7B-45F5-903D-B244657892CC";
shapes = (
{
closed = 1;
nodes = (
(1167.09,1321.32,l),
(1155.58,1268.38,o),
(1146.37,1199.32,o),
(1146.37,1155.58,q),
(1146.37,1116.45,o),
(1155.58,980.632,o),
(1167.09,881.648,q),
(1063.5,863.232,l),
(1058.9,900.063,o),
(1031.27,1019.76,o),
(992.141,1079.62,q),
(978.33,1100.33,o),
(934.593,1148.67,o),
(865.534,1190.11,o),
(768.852,1220.03,o),
(699.793,1220.03,q),
(610.017,1220.03,o),
(478.806,1167.09,o),
(393.634,1086.52,o),
(352.199,992.141,o),
(352.199,948.404,q),
(352.199,867.836,o),
(430.465,775.758,o),
(540.959,725.115,o),
(660.66,706.699,o),
(702.095,702.095,q),
(831.005,688.284,o),
(978.33,658.358,o),
(1098.03,580.092,o),
(1180.9,451.183,o),
(1180.9,352.199,q),
(1180.9,250.913,o),
(1095.73,103.588,o),
(962.216,6.906,o),
(794.173,-39.133,o),
(709,-39.133,q),
(639.942,-39.133,o),
(536.354,-16.114,o),
(460.389,18.416,o),
(409.746,52.945,o),
(393.633,66.757,q),
(391.331,69.059,o),
(379.821,75.964,o),
(375.217,75.964,q),
(368.311,75.964,o),
(356.802,62.153,o),
(352.198,57.549,q),
(347.594,41.435,o),
(340.688,11.51,o),
(331.48,-46.039,q),
(227.892,-46.039,l),
(239.402,9.208,o),
(248.61,110.494,o),
(248.61,135.815,q),
(248.61,158.835,l),
(248.61,177.25,o),
(244.006,239.403,o),
(237.1,310.764,o),
(230.194,377.52,o),
(227.892,402.842,q),
(331.48,402.842,l),
(340.688,359.105,o),
(370.613,248.611,o),
(409.746,197.968,q),
(441.974,156.533,o),
(568.581,75.964,o),
(692.887,75.964,q),
(798.776,75.964,o),
(939.195,126.607,o),
(1022.069,204.874,o),
(1056.599,299.254,o),
(1056.599,342.991,q),
(1056.599,418.955,o),
(989.838,508.731,o),
(893.156,557.072,o),
(780.361,575.488,o),
(736.624,580.092,q),
(669.867,586.998,o),
(492.617,614.621,o),
(336.084,688.284,o),
(227.892,824.099,o),
(227.892,939.196,q),
(227.892,1017.46,o),
(296.951,1160.18,o),
(418.954,1270.68,o),
(586.997,1335.13,o),
(685.981,1335.13,q),
(748.133,1335.13,o),
(844.815,1312.11,o),
(913.874,1282.19,o),
(959.913,1249.96,o),
(971.423,1240.75,q),
(999.046,1220.03,o),
(1017.459,1208.52,o),
(1024.369,1208.52,q),
(1040.479,1208.52,o),
(1047.389,1236.15,o),
(1058.899,1291.4,q),
(1061.199,1302.9,o),
(1063.499,1316.72,o),
(1063.499,1321.32,q)
);
},
{
closed = 1;
nodes = (
(393.634,1694.24,l),
(467.296,1749.48,l),
(699.793,1599.86,l),
(911.573,1751.79,l),
(985.235,1694.24,l),
(782.664,1477.85,l),
(607.715,1477.85,l)
);
}
);
width = 1381;
}
);
unicode = 352;
},
{
glyphname = scaron;
layers = (
{
layerId = "F8A84F20-7B7B-45F5-903D-B244657892CC";
shapes = (
{
closed = 1;
nodes = (
(1109.54,1019.76,l),
(1102.64,982.934,o),
(1088.82,888.553,o),
(1088.82,821.797,q),
(1088.82,773.456,o),
(1095.73,706.699,o),
(1100.33,676.774,q),
(999.047,665.264,l),
(992.141,699.793,o),
(966.82,782.664,o),
(895.459,854.024,o),
(757.342,904.667,o),
(637.641,904.667,q),
(499.524,904.667,o),
(352.199,805.683,o),
(352.199,734.323,q),
(352.199,672.17,o),
(423.559,600.809,o),
(552.468,561.676,o),
(725.115,547.865,o),
(826.401,543.261,q),
(847.118,543.261,o),
(955.31,529.449,o),
(1070.41,478.806,o),
(1160.18,375.218,o),
(1160.18,285.442,q),
(1160.18,202.572,o),
(1079.62,80.568,o),
(950.706,2.302,o),
(796.475,-34.529,o),
(720.511,-34.529,q),
(658.358,-34.529,o),
(552.468,-13.812,o),
(464.994,18.416,o),
(402.842,50.643,o),
(382.124,62.153,q),
(382.124,62.153,o),
(377.52,64.455,q),
(375.218,66.757,o),
(370.614,66.757,q),
(354.501,66.757,o),
(336.085,9.208,o),
(324.575,-29.925,q),
(223.289,-29.925,l),
(227.893,0,o),
(237.101,57.549,o),
(237.101,115.098,q),
(237.101,188.76,o),
(227.893,303.858,o),
(223.289,342.991,q),
(324.575,354.501,l),
(329.179,324.575,o),
(356.803,232.497,o),
(432.767,145.023,o),
(575.488,80.568,o),
(695.19,80.568,q),
(729.719,80.568,o),
(844.816,94.38,o),
(955.31,135.815,o),
(1035.88,214.082,o),
(1035.88,280.838,q),
(1035.88,331.481,o),
(987.537,391.332,o),
(900.063,421.257,o),
(778.06,430.465,o),
(706.699,432.767,q),
(660.66,435.069,o),
(499.524,451.183,o),
(342.991,508.731,o),
(227.893,626.131,o),
(227.893,729.719,q),
(227.893,791.871,o),
(287.744,897.761,o),
(393.634,976.028,o),
(545.563,1019.76,o),
(635.339,1019.76,q),
(738.927,1019.76,o),
(867.836,971.424,o),
(900.063,953.008,q),
(904.667,948.404,o),
(936.894,932.291,o),
(950.706,932.291,q),
(969.122,932.291,o),
(987.537,976.028,o),
(992.141,987.537,q),
(996.745,1010.56,o),
(1001.35,1024.37,o),
(1005.95,1035.88,q)
);
},
{
closed = 1;
nodes = (
(393.634,1388.08,l),
(467.296,1443.32,l),
(699.793,1293.7,l),
(911.573,1445.63,l),
(985.235,1388.08,l),
(782.664,1171.69,l),
(607.715,1171.69,l)
);
}
);
width = 1381;
}
);
unicode = 353;
},
{
glyphname = Zcaron;
layers = (
{
layerId = "F8A84F20-7B7B-45F5-903D-B244657892CC";
shapes = (
{
closed = 1;
nodes = (
(1134.86,1201.62,l),
(331.481,108.192,l),
(1079.62,108.192,l),
(1079.62,481.108,l),
(1187.81,481.108,l),
(1187.81,0,l),
(193.364,0,l),
(193.364,108.192,l),
(987.537,1187.81,l),
(317.669,1187.81,l),
(317.669,851.722,l),
(209.478,851.722,l),
(209.478,1296,l),
(1134.86,1296,l)
);
},
{
closed = 1;
nodes = (
(393.634,1694.24,l),
(467.296,1749.48,l),
(699.793,1599.86,l),
(911.573,1751.79,l),
(985.235,1694.24,l),
(782.664,1477.85,l),
(607.715,1477.85,l)
);
}
);
width = 1381;
}
);
unicode = 381;
},
{
glyphname = zcaron;
layers = (
{
layerId = "F8A84F20-7B7B-45F5-903D-B244657892CC";
shapes = (
{
closed = 1;
nodes = (
(1141.77,890.855,l),
(395.936,108.192,l),
(1033.58,108.192,l),
(1033.58,319.971,l),
(1141.77,319.971,l),
(1141.77,0,l),
(239.403,0,l),
(239.403,108.192,l),
(978.33,881.648,l),
(370.614,881.648,l),
(370.614,676.774,l),
(262.423,676.774,l),
(262.423,989.839,l),
(1141.77,989.839,l)
);
},
{
closed = 1;
nodes = (
(393.634,1388.08,l),
(467.296,1443.32,l),
(699.793,1293.7,l),
(911.573,1445.63,l),
(985.235,1388.08,l),
(782.664,1171.69,l),
(607.715,1171.69,l)
);
}
);
width = 1381;
}
);
unicode = 382;
},
{
glyphname = florin;
layers = (
{
layerId = "F8A84F20-7B7B-45F5-903D-B244657892CC";
shapes = (
{
closed = 1;
nodes = (
(1160.18,1401.89,l),
(1130.26,1408.79,o),
(1049.69,1420.3,o),
(994.443,1420.3,q),
(863.232,1420.3,o),
(722.813,1353.55,o),
(656.056,1256.87,o),
(644.547,1148.67,o),
(644.547,1104.94,q),
(644.547,978.33,l),
(1049.69,978.33,l),
(1049.69,881.648,l),
(644.547,881.648,l),
(644.547,117.4,l),
(644.547,36.831,o),
(607.715,-80.568,o),
(543.261,-128.909,q),
(467.296,-186.458,o),
(269.328,-227.893,o),
(170.344,-227.893,q),
(140.419,-227.893,o),
(80.568,-223.289,o),
(55.247,-218.685,q),
(64.455,-103.588,l),
(98.984,-108.192,o),
(181.854,-117.4,o),
(220.987,-117.4,q),
(296.952,-117.4,o),
(458.088,-75.964,o),
(494.92,-32.227,q),
(520.241,0,o),
(529.449,87.474,o),
(529.449,133.513,q),
(529.449,881.648,l),
(283.14,881.648,l),
(283.14,978.33,l),
(529.449,978.33,l),
(529.449,1116.45,l),
(529.449,1167.09,o),
(552.468,1309.81,o),
(651.452,1438.72,o),
(849.42,1528.5,o),
(1024.37,1528.5,q),
(1075.01,1528.5,o),
(1148.67,1523.89,o),
(1171.69,1519.29,q)
);
}
);
width = 1381;
}
);
unicode = 402;
},
{
glyphname = circumflex;
layers = (
{
layerId = "F8A84F20-7B7B-45F5-903D-B244657892CC";
shapes = (
{
closed = 1;
nodes = (
(985,1213,l),
(912,1156,l),
(679,1308,l),
(470,1156,l),
(394,1211,l),
(596,1430,l),
(773,1430,l)
);
}
);
width = 1381;
}
);
unicode = 710;
},
{
glyphname = tilde;
layers = (
{
layerId = "F8A84F20-7B7B-45F5-903D-B244657892CC";
shapes = (
{
closed = 1;
nodes = (
(1059,1395,l),
(1054,1390,o),
(1054,1379,q),
(1027,1282,o),
(902,1183,o),
(829,1183,q),
(790,1183,o),
(718,1215,o),
(665,1257,q),
(610,1298,o),
(564,1324,o),
(539,1324,q),
(493,1324,o),
(437,1250,o),
(419,1204,q),
(419,1202,o),
(417,1197,q),
(414,1190,l),
(322,1222,l),
(355,1310,o),
(453,1427,o),
(539,1427,q),
(594,1427,o),
(672,1381,o),
(709,1349,q),
(753,1317,o),
(810,1287,o),
(836,1287,q),
(866,1287,o),
(909,1317,o),
(939,1360,o),
(960,1406,o),
(967,1425,q)
);
}
);
width = 1381;
}
);
unicode = 732;
},
{
glyphname = uni1200;
layers = (
{
layerId = "F8A84F20-7B7B-45F5-903D-B244657892CC";
shapes = (
{
closed = 1;
nodes = (
(999,558,l),
(999,423,o),
(916,215,o),
(780,72,o),
(608,0,o),
(518,0,q),
(457,0,l),
(287,0,o),
(111,142,o),
(111,328,q),
(111,491,o),
(140,818,o),
(142,995,q),
(142,1026,o),
(136,1092,o),
(118,1151,o),
(88,1191,o),
(68,1198,q),
(301,1257,l),
(346,1250,o),
(387,1124,o),
(387,1013,q),
(387,830,o),
(348,436,o),
(348,249,q),
(348,158,o),
(441,32,o),
(509,32,q),
(583,32,o),
(685,95,o),
(746,233,o),
(773,450,o),
(773,604,q),
(773,1047,l),
(769,1119,o),
(723,1243,o),
(662,1259,q),
(868,1318,l),
(920,1318,o),
(999,1180,o),
(999,1058,q)
);
}
);
width = 1067;
}
);
unicode = 4608;
},
{
glyphname = uni1201;
layers = (
{
layerId = "F8A84F20-7B7B-45F5-903D-B244657892CC";
shapes = (
{
closed = 1;
nodes = (
(1422.04,743.799,o),
(1376.82,793.536,o),
(1356.47,845.534,o),
(1351.95,890.75,o),
(1349.69,902.054,q),
(1345.17,917.88,o),
(1342.91,938.227,o),
(1318.04,947.27,q),
(999.268,845.534,l),
(999.268,1051.27,l),
(999.268,1173.35,o),
(920.14,1311.26,o),
(868.142,1311.26,q),
(662.411,1252.48,l),
(723.452,1236.65,o),
(768.668,1112.31,o),
(773.189,1039.96,q),
(773.189,603.63,l),
(773.189,449.897,o),
(746.06,232.861,o),
(685.019,94.953,o),
(583.283,31.651,o),
(508.677,31.651,q),
(440.854,31.651,o),
(348.161,158.255,o),
(348.161,248.687,q),
(350.422,434.071,o),
(386.595,822.927,o),
(386.595,1006.05,q),
(386.595,1116.83,o),
(345.9,1243.43,o),
(300.685,1250.22,q),
(67.824,1191.43,l),
(88.171,1184.65,o),
(117.561,1143.96,o),
(135.647,1085.18,o),
(142.43,1019.62,o),
(142.43,987.964,q),
(140.169,813.883,o),
(110.779,490.591,o),
(110.779,327.814,q),
(110.779,142.43,o),
(287.12,0,o),
(456.679,0,q),
(517.72,0,l),
(608.152,0,o),
(779.972,72.345,o),
(915.619,214.775,o),
(999.268,422.767,o),
(999.268,558.414,q),
(999.268,804.84,l),
(1114.57,841.013,l),
(1134.92,766.407,o),
(1243.43,662.411,o),
(1322.56,662.411,q),
(1415.25,673.715,o),
(1464.99,727.973,q)
);
}
);
width = 1478;
}
);
unicode = 4609;
},
{
glyphname = uni1202;
layers = (
{
layerId = "F8A84F20-7B7B-45F5-903D-B244657892CC";
shapes = (
{
closed = 1;
nodes = (
(698.583,103.996,l),
(700.844,103.996,o),
(700.844,117.561,q),
(700.844,137.908,o),
(727.973,201.21,o),
(779.972,219.296,q),
(924.662,255.469,l),
(917.88,255.469,o),
(913.358,183.124,o),
(913.358,144.69,q),
(913.358,103.996,o),
(960.835,51.998,o),
(992.486,45.216,q),
(911.097,22.608,o),
(813.883,2.261,o),
(804.84,2.261,q),
(775.45,2.261,o),
(741.538,22.608,o),
(721.191,49.737,o),
(709.887,74.606,o),
(705.366,76.867,q),
(373.03,13.565,l),
(327.814,13.565,o),
(273.555,72.345,o),
(273.555,108.518,q),
(273.555,126.604,o),
(289.381,178.602,o),
(309.728,226.079,o),
(325.553,262.251,o),
(327.814,266.773,q),
(517.72,716.67,l),
(212.514,689.54,l),
(169.559,689.54,o),
(94.953,732.495,o),
(94.953,789.015,q),
(94.953,841.013,o),
(106.257,926.923,o),
(119.822,1003.79,o),
(131.126,1080.66,o),
(131.126,1123.61,q),
(131.126,1155.26,o),
(103.996,1200.48,o),
(67.824,1211.78,q),
(300.685,1266.04,l),
(334.597,1266.04,o),
(363.987,1205,o),
(363.987,1159.78,q),
(363.987,1123.61,o),
(350.422,1037.7,o),
(334.597,951.791,o),
(321.032,870.403,o),
(321.032,841.013,q),
(321.032,795.797,o),
(386.595,746.06,o),
(472.505,746.06,q),
(508.677,746.06,o),
(547.111,784.493,o),
(567.458,829.709,q),
(612.673,924.662,o),
(662.411,1055.79,o),
(687.279,1137.18,o),
(694.062,1177.87,o),
(694.062,1182.39,q),
(694.062,1209.52,o),
(660.15,1252.48,o),
(621.716,1270.56,q),
(854.578,1315.78,l),
(868.142,1315.78,o),
(888.489,1293.17,o),
(902.054,1259.26,o),
(908.836,1220.83,o),
(908.836,1207.26,q),
(908.836,1191.43,o),
(899.793,1139.44,o),
(881.707,1080.66,o),
(861.36,1021.88,o),
(847.795,997.007,q),
(508.677,183.124,l),
(504.156,171.82,o),
(501.895,137.908,o),
(501.895,128.865,q),
(501.895,74.606,o),
(544.85,74.606,q)
);
}
);
width = 1035;
}
);
unicode = 4610;
},
{
glyphname = uni1203;
layers = (
{
layerId = "F8A84F20-7B7B-45F5-903D-B244657892CC";
shapes = (
{
closed = 1;
nodes = (
(899.793,1171.09,o),
(865.881,1055.79,o),
(838.752,990.225,q),
(504.156,171.82,l),
(497.373,153.734,o),
(497.373,140.169,q),
(497.373,101.735,o),
(549.371,49.737,o),
(574.24,38.433,q),
(370.769,-2.261,l),
(330.075,-2.261,o),
(273.555,76.867,o),
(273.555,122.083,q),
(273.555,158.255,o),
(298.424,221.557,o),
(323.293,273.555,q),
(513.199,716.67,l),
(210.253,689.54,l),
(169.559,689.54,o),
(94.953,732.495,o),
(94.953,789.015,q),
(94.953,852.317,o),
(106.257,942.748,o),
(119.822,1017.35,o),
(131.126,1080.66,o),
(131.126,1119.09,q),
(131.126,1150.74,o),
(103.996,1195.96,o),
(67.824,1209.52,q),
(298.424,1263.78,l),
(332.336,1263.78,o),
(361.726,1207.26,o),
(361.726,1166.57,q),
(361.726,1168.83,o),
(354.944,1123.61,o),
(345.9,1055.79,o),
(334.597,974.399,o),
(325.553,899.793,o),
(318.771,845.534,o),
(318.771,841.013,q),
(318.771,795.797,o),
(384.334,746.06,o),
(472.505,746.06,q),
(504.156,746.06,o),
(542.589,786.754,o),
(562.936,831.97,q),
(605.891,929.184,o),
(655.628,1055.79,o),
(680.497,1134.92,o),
(687.279,1171.09,o),
(687.279,1177.87,q),
(687.279,1180.13,l),
(687.279,1236.65,o),
(614.934,1268.3,q),
(845.534,1313.52,l),
(859.099,1313.52,o),
(879.446,1290.91,o),
(893.011,1257,o),
(899.793,1218.56,o),
(899.793,1205,q)
);
}
);
width = 968;
}
);
unicode = 4611;
},
{
glyphname = uni1204;
layers = (
{
layerId = "F8A84F20-7B7B-45F5-903D-B244657892CC";
shapes = (
{
closed = 1;
nodes = (
(974.399,230.6,o),
(949.531,146.951,o),
(893.011,81.388,o),
(804.84,40.694,o),
(741.538,40.694,q),
(694.062,40.694,o),
(619.456,27.129,o),
(540.328,11.304,o),
(443.114,-2.261,o),
(373.03,-2.261,q),
(332.336,-2.261,o),
(280.338,72.345,o),
(280.338,117.561,q),
(280.338,135.647,o),
(305.206,228.34,o),
(325.553,273.555,q),
(517.72,716.67,l),
(212.514,689.54,l),
(169.559,689.54,o),
(94.953,732.495,o),
(94.953,789.015,q),
(94.953,890.75,o),
(126.604,1051.27,o),
(128.865,1116.83,q),
(128.865,1148.48,o),
(103.996,1195.96,o),
(67.824,1209.52,q),
(300.685,1263.78,l),
(334.597,1263.78,o),
(363.987,1207.26,o),
(363.987,1166.57,q),
(363.987,1168.83,o),
(357.204,1123.61,o),
(348.161,1055.79,o),
(336.857,974.399,o),
(327.814,899.793,o),
(321.032,845.534,o),
(321.032,841.013,q),
(321.032,795.797,o),
(386.595,746.06,o),
(477.026,746.06,q),
(508.677,746.06,o),
(547.111,786.754,o),
(567.458,831.97,q),
(612.673,929.184,o),
(662.411,1058.05,o),
(687.279,1134.92,o),
(694.062,1171.09,o),
(694.062,1177.87,q),
(694.062,1180.13,l),
(694.062,1236.65,o),
(621.716,1268.3,q),
(854.578,1313.52,l),
(868.142,1313.52,o),
(888.489,1290.91,o),
(902.054,1257,o),
(908.836,1218.56,o),
(908.836,1205,q),
(908.836,1171.09,o),
(879.446,1044.48,o),
(854.578,990.225,q),
(515.459,187.645,l),
(510.938,178.602,o),
(499.634,140.169,o),
(499.634,113.039,q),
(499.634,76.867,o),
(529.024,49.737,o),
(558.414,49.737,q),
(599.109,51.998,o),
(666.932,83.649,o),
(716.67,131.126,o),
(746.06,194.428,o),
(746.06,230.6,q),
(746.06,271.294,o),
(696.322,345.9,o),
(662.411,357.204,q),
(868.142,409.202,l),
(906.576,409.202,o),
(969.878,330.075,o),
(974.399,273.555,q)
);
}
);
width = 1042;
}
);
unicode = 4612;
},
{
glyphname = uni1205;
layers = (
{
layerId = "F8A84F20-7B7B-45F5-903D-B244657892CC";
shapes = (
{
closed = 1;
nodes = (
(1035.44,506.416,l),
(1035.44,413.724,o),
(969.878,230.6,o),
(852.317,88.171,o),
(691.801,0,o),
(596.848,0,q),
(535.807,0,l),
(363.987,0,o),
(180.863,122.083,o),
(180.863,239.643,q),
(180.863,348.161,o),
(212.514,569.718,o),
(221.557,685.019,q),
(189.906,685.019,o),
(117.561,671.454,o),
(67.824,671.454,q),
(97.214,694.062,o),
(137.908,786.754,o),
(162.777,888.489,o),
(174.081,981.182,o),
(174.081,1001.53,q),
(171.82,1069.35,o),
(133.386,1166.57,o),
(83.649,1180.13,q),
(327.814,1247.95,l),
(345.9,1247.95,o),
(375.291,1214.04,o),
(395.638,1162.04,o),
(404.681,1098.74,o),
(404.681,1069.35,q),
(404.681,1006.05,o),
(368.508,827.448,o),
(336.857,741.538,q),
(368.508,741.538,o),
(431.81,755.103,o),
(456.679,755.103,q),
(440.854,646.585,o),
(402.42,438.593,o),
(402.42,330.075,q),
(406.942,271.294,o),
(427.289,162.777,o),
(467.983,81.388,o),
(533.546,31.651,o),
(585.544,31.651,q),
(644.324,31.651,o),
(730.234,108.518,o),
(784.493,241.904,o),
(809.362,420.506,o),
(809.362,519.981,q),
(809.362,1006.05,l),
(809.362,1053.53,o),
(791.276,1139.44,o),
(761.885,1207.26,o),
(721.191,1252.48,o),
(698.583,1257,q),
(899.793,1313.52,l),
(926.923,1313.52,o),
(976.66,1266.04,o),
(1015.09,1184.65,o),
(1035.44,1076.13,o),
(1035.44,1017.35,q)
);
}
);
width = 1117;
}
);
unicode = 4613;
},
{
glyphname = uni1206;
layers = (
{
layerId = "F8A84F20-7B7B-45F5-903D-B244657892CC";
shapes = (
{
closed = 1;
nodes = (
(67.824,1198.22,l),
(88.171,1191.43,o),
(117.561,1150.74,o),
(135.647,1091.96,o),
(142.43,1026.4,o),
(142.43,994.746,q),
(140.169,818.405,o),
(110.779,490.591,o),
(110.779,327.814,q),
(110.779,142.43,o),
(287.12,0,o),
(456.679,0,q),
(517.72,0,l),
(608.152,0,o),
(782.232,72.345,o),
(917.88,214.775,o),
(1001.53,422.767,o),
(1001.53,558.414,q),
(1001.53,750.581,l),
(1110.05,766.407,o),
(1254.74,827.448,o),
(1342.91,915.619,o),
(1381.34,1028.66,o),
(1381.34,1094.22,q),
(1381.34,1202.74,o),
(1252.48,1309,o),
(1162.04,1309,q),
(671.454,1227.61,l),
(730.234,1218.56,o),
(773.189,1067.09,o),
(773.189,951.791,q),
(773.189,608.152,l),
(773.189,454.418,o),
(746.06,235.122,o),
(685.019,97.214,o),
(583.283,31.651,o),
(508.677,31.651,q),
(440.854,31.651,o),
(348.161,158.255,o),
(348.161,248.687,q),
(348.161,436.332,o),
(386.595,829.709,o),
(386.595,1012.83,q),
(386.595,1123.61,o),
(345.9,1250.22,o),
(300.685,1257,q)
);
},
{
closed = 1;
nodes = (
(1157.52,947.27,o),
(1087.44,784.493,o),
(1003.79,784.493,q),
(1003.79,904.315,o),
(992.486,1058.05,o),
(978.921,1155.26,o),
(965.356,1209.52,o),
(963.095,1234.39,q),
(1037.7,1250.22,l),
(1101,1250.22,o),
(1157.52,1150.74,o),
(1157.52,1078.4,q)
);
}
);
width = 1385;
}
);
unicode = 4614;
},
{
glyphname = uni1208;
layers = (
{
layerId = "F8A84F20-7B7B-45F5-903D-B244657892CC";
shapes = (
{
closed = 1;
nodes = (
(997,34,o),
(882,11,o),
(827,0,q),
(816,0,o),
(794,16,o),
(775,38,o),
(762,59,o),
(760,66,q),
(714,161,o),
(680,409,o),
(660,554,q),
(642,674,o),
(592,855,o),
(534,925,q),
(475,925,o),
(382,818,o),
(314,644,o),
(278,425,o),
(278,312,q),
(278,285,o),
(285,206,o),
(303,127,o),
(339,59,o),
(371,38,q),
(310,25,o),
(206,9,o),
(147,0,q),
(129,0,o),
(93,36,o),
(88,47,q),
(63,99,o),
(54,213,o),
(54,298,q),
(54,423,o),
(90,649,o),
(170,846,o),
(298,1008,o),
(393,1067,q),
(393,1076,o),
(389,1092,o),
(380,1108,q),
(362,1137,o),
(326,1214,o),
(323,1259,q),
(522,1311,l),
(543,1248,o),
(599,1139,o),
(638,1106,q),
(701,1054,o),
(782,938,o),
(836,809,o),
(870,669,o),
(886,592,q),
(900,527,o),
(920,357,o),
(952,197,o),
(1006,68,o),
(1051,45,q)
);
}
);
width = 1085;
}
);
unicode = 4616;
},
{
glyphname = uni1209;
layers = (
{
layerId = "F8A84F20-7B7B-45F5-903D-B244657892CC";
shapes = (
{
closed = 1;
nodes = (
(1205,687.279,o),
(1159.78,737.017,o),
(1139.44,789.015,o),
(1134.92,834.23,o),
(1132.65,845.534,q),
(1128.13,861.36,o),
(1125.87,881.707,o),
(1101,890.75,q),
(813.883,775.45,l),
(782.232,877.185,o),
(687.279,1049.01,o),
(614.934,1107.79,q),
(574.24,1139.44,o),
(517.72,1247.95,o),
(497.373,1311.26,q),
(298.424,1259.26,l),
(300.685,1214.04,o),
(336.857,1137.18,o),
(354.944,1107.79,q),
(363.987,1091.96,o),
(368.508,1076.13,o),
(368.508,1067.09,q),
(284.859,1001.53,o),
(171.82,827.448,o),
(101.735,626.238,o),
(70.084,404.681,o),
(70.084,293.902,q),
(70.084,221.557,o),
(90.431,58.781,o),
(144.69,0,q),
(203.471,9.043,o),
(318.771,24.869,o),
(379.812,38.433,q),
(352.683,61.041,o),
(316.51,131.126,o),
(296.163,207.992,o),
(287.12,284.859,o),
(287.12,311.989,q),
(287.12,400.159,o),
(327.814,612.673,o),
(391.116,800.319,o),
(470.244,924.662,o),
(508.677,924.662,q),
(567.458,854.578,o),
(617.195,673.715,o),
(639.803,553.893,q),
(653.368,481.548,o),
(664.671,334.597,o),
(682.758,196.688,o),
(718.93,74.606,o),
(757.364,27.129,q),
(764.146,20.347,o),
(789.015,2.261,o),
(798.058,0,q),
(1017.35,45.216,l),
(976.66,79.128,o),
(926.923,187.645,o),
(895.272,325.553,o),
(874.925,481.548,o),
(861.36,562.936,q),
(854.578,605.891,o),
(836.491,694.062,o),
(825.187,739.277,q),
(897.533,770.928,l),
(917.88,696.322,o),
(1026.4,605.891,o),
(1105.52,605.891,q),
(1198.22,617.195,o),
(1247.95,671.454,q)
);
}
);
width = 1247;
}
);
unicode = 4617;
},
{
glyphname = uni120A;
layers = (
{
layerId = "F8A84F20-7B7B-45F5-903D-B244657892CC";
shapes = (
{
closed = 1;
nodes = (
(1383.6,4.522,l),
(1351.95,18.086,o),
(1309,92.692,o),
(1306.74,144.69,q),
(1306.74,162.777,o),
(1315.78,226.079,o),
(1327.08,246.426,q),
(1159.78,217.036,l),
(1121.35,210.253,o),
(1067.09,142.43,o),
(1067.09,103.996,q),
(1067.09,99.475,l),
(1053.53,94.953,o),
(1026.4,85.91,o),
(1012.83,85.91,q),
(990.225,85.91,o),
(972.138,101.735,o),
(963.095,117.561,q),
(917.88,196.688,o),
(888.489,431.81,o),
(865.881,562.936,q),
(852.317,639.803,o),
(816.144,789.015,o),
(759.624,929.184,o),
(675.975,1053.53,o),
(612.673,1105.52,q),
(574.24,1139.44,o),
(517.72,1247.95,o),
(497.373,1311.26,q),
(298.424,1259.26,l),
(300.685,1214.04,o),
(336.857,1137.18,o),
(354.944,1107.79,q),
(363.987,1091.96,o),
(368.508,1076.13,o),
(368.508,1067.09,q),
(287.12,1001.53,o),
(174.081,831.97,o),
(103.996,635.281,o),
(70.084,420.506,o),
(70.084,309.728,q),
(70.084,223.818,o),
(90.431,58.781,o),
(144.69,0,q),
(203.471,9.043,o),
(318.771,24.869,o),
(379.812,38.433,q),
(352.683,61.041,o),
(316.51,131.126,o),
(296.163,207.992,o),
(287.12,284.859,o),
(287.12,311.989,q),
(287.12,400.159,o),
(327.814,612.673,o),
(391.116,800.319,o),
(470.244,924.662,o),
(508.677,924.662,q),
(567.458,854.578,o),
(614.934,673.715,o),
(637.542,553.893,q),
(651.107,481.548,o),
(662.411,334.597,o),
(682.758,196.688,o),
(718.93,74.606,o),
(757.364,27.129,q),
(764.146,20.347,o),
(789.015,2.261,o),
(798.058,0,q),
(1073.87,65.563,l),
(1080.66,6.782,o),
(1155.26,-29.39,o),
(1193.7,-29.39,q)
);
}
);
width = 1385;
}
);
unicode = 4618;
},
{
glyphname = uni120B;
layers = (
{
layerId = "F8A84F20-7B7B-45F5-903D-B244657892CC";
shapes = (
{
closed = 1;
nodes = (
(757.364,0,l),
(748.321,2.261,o),
(723.452,20.347,o),
(716.67,27.129,q),
(678.236,74.606,o),
(642.064,196.688,o),
(623.977,339.118,o),
(610.413,492.852,o),
(596.848,571.979,q),
(576.501,678.236,o),
(526.763,854.578,o),
(467.983,924.662,q),
(429.55,924.662,o),
(363.987,850.056,o),
(314.249,727.973,o),
(284.859,571.979,o),
(284.859,492.852,q),
(284.859,436.332,o),
(323.293,336.857,o),
(377.551,291.642,q),
(316.51,278.077,o),
(201.21,262.251,o),
(142.43,253.208,q),
(90.431,307.467,o),
(67.824,445.375,o),
(67.824,522.242,q),
(67.824,592.326,o),
(88.171,732.495,o),
(146.951,868.142,o),
(246.426,1001.53,o),
(327.814,1067.09,q),
(327.814,1076.13,o),
(323.293,1091.96,o),
(314.249,1107.79,q),
(296.163,1137.18,o),
(259.991,1214.04,o),
(257.73,1259.26,q),
(456.679,1311.26,l),
(477.026,1247.95,o),
(533.546,1139.44,o),
(571.979,1105.52,q),
(635.281,1053.53,o),
(718.93,929.184,o),
(773.189,789.015,o),
(807.101,639.803,o),
(820.666,562.936,q),
(834.23,481.548,o),
(854.578,325.553,o),
(886.229,187.645,o),
(935.966,79.128,o),
(976.66,45.216,q)
);
}
);
width = 1044;
}
);
unicode = 4619;
},
{
glyphname = uni120C;
layers = (
{
layerId = "F8A84F20-7B7B-45F5-903D-B244657892CC";
shapes = (
{
closed = 1;
nodes = (
(287.12,400.159,o),
(327.814,612.673,o),
(391.116,800.319,o),
(470.244,924.662,o),
(508.677,924.662,q),
(567.458,856.838,o),
(617.195,682.758,o),
(635.281,581.022,q),
(646.585,495.112,o),
(662.411,314.249,o),
(678.236,235.122,q),
(700.844,122.083,o),
(770.928,0,o),
(811.623,0,q),
(868.142,0,o),
(945.009,6.782,o),
(994.746,15.825,o),
(1024.14,22.608,o),
(1037.7,22.608,q),
(1067.09,22.608,o),
(1123.61,11.304,o),
(1155.26,11.304,q),
(1252.48,13.565,o),
(1363.25,122.083,o),
(1363.25,230.6,q),
(1363.25,350.422,o),
(1234.39,452.157,o),
(1139.44,452.157,q),
(883.968,411.463,l),
(859.099,585.544,l),
(847.795,660.15,o),
(813.883,804.84,o),
(757.364,938.227,o),
(675.975,1058.05,o),
(614.934,1107.79,q),
(574.24,1139.44,o),
(517.72,1247.95,o),
(497.373,1311.26,q),
(298.424,1259.26,l),
(300.685,1214.04,o),
(336.857,1137.18,o),
(354.944,1107.79,q),
(363.987,1091.96,o),
(368.508,1076.13,o),
(368.508,1067.09,q),
(287.12,1001.53,o),
(174.081,831.97,o),
(103.996,635.281,o),
(70.084,420.506,o),
(70.084,309.728,q),
(70.084,223.818,o),
(90.431,58.781,o),
(144.69,0,q),
(203.471,9.043,o),
(318.771,24.869,o),
(379.812,38.433,q),
(352.683,61.041,o),
(316.51,131.126,o),
(296.163,207.992,o),
(287.12,284.859,o),
(287.12,311.989,q)
);
},
{
closed = 1;
nodes = (
(1137.18,169.559,o),
(1121.35,94.953,o),
(1094.22,58.781,o),
(1058.05,47.477,o),
(1035.44,47.477,q),
(1008.31,47.477,o),
(956.313,131.126,o),
(913.358,241.904,o),
(888.489,354.944,o),
(888.489,384.334,q),
(1006.05,404.681,l),
(1024.14,404.681,o),
(1069.35,386.595,o),
(1110.05,345.9,o),
(1137.18,282.598,o),
(1137.18,235.122,q)
);
}
);
width = 1395;
}
);
unicode = 4620;
},
{
glyphname = uni120D;
layers = (
{
layerId = "F8A84F20-7B7B-45F5-903D-B244657892CC";
shapes = (
{
closed = 1;
nodes = (
(452.157,334.597,o),
(420.506,458.94,o),
(391.116,458.94,q),
(307.467,420.506,l),
(302.945,415.985,o),
(284.859,366.248,o),
(264.512,298.424,o),
(248.687,230.6,o),
(248.687,207.992,q),
(248.687,149.212,o),
(296.163,90.431,o),
(336.857,90.431,q),
(354.944,90.431,l),
(406.942,90.431,o),
(452.157,178.602,o),
(452.157,248.687,q)
);
},
{
closed = 1;
nodes = (
(933.705,0,l),
(895.272,18.086,o),
(847.795,92.692,o),
(820.666,174.081,o),
(809.362,239.643,o),
(807.101,248.687,q),
(737.017,628.499,l),
(716.67,709.887,o),
(685.019,820.666,o),
(653.368,893.011,o),
(617.195,933.705,o),
(592.326,945.009,q),
(556.154,931.444,o),
(492.852,829.709,o),
(427.289,691.801,o),
(359.465,531.285,o),
(318.771,458.94,q),
(429.55,510.938,l),
(488.33,529.024,o),
(510.938,529.024,q),
(538.067,529.024,o),
(590.065,508.677,o),
(628.499,452.157,o),
(653.368,348.161,o),
(653.368,266.773,q),
(653.368,235.122,o),
(644.324,174.081,o),
(619.456,124.343,o),
(571.979,92.692,o),
(535.807,92.692,q),
(479.287,92.692,o),
(409.202,81.388,o),
(354.944,70.084,q),
(323.293,63.302,o),
(280.338,38.433,o),
(237.383,15.825,o),
(183.124,0,o),
(142.43,0,q),
(106.257,0,o),
(49.737,113.039,o),
(49.737,226.079,q),
(49.737,287.12,o),
(101.735,501.895,o),
(207.992,746.06,o),
(363.987,981.182,o),
(467.983,1060.31,q),
(458.94,1067.09,o),
(434.071,1110.05,o),
(409.202,1164.31,o),
(391.116,1223.09,o),
(391.116,1247.95,q),
(592.326,1309,l),
(601.369,1290.91,o),
(628.499,1238.91,o),
(662.411,1184.65,o),
(698.583,1137.18,o),
(716.67,1123.61,q),
(779.972,1076.13,o),
(879.446,911.097,o),
(954.052,689.54,o),
(1010.57,418.246,o),
(1033.18,264.512,q),
(1037.7,237.383,o),
(1060.31,167.298,o),
(1094.22,99.475,o),
(1134.92,47.477,o),
(1155.26,38.433,q)
);
}
);
width = 1210;
}
);
unicode = 4621;
},
{
glyphname = uni120E;
layers = (
{
layerId = "F8A84F20-7B7B-45F5-903D-B244657892CC";
shapes = (
{
closed = 1;
nodes = (
(935.966,818.405,l),
(935.966,646.585,o),
(999.268,510.938,o),
(1051.27,510.938,q),
(1069.35,510.938,o),
(1137.18,533.546,o),
(1184.65,551.632,q),
(1302.21,571.979,o),
(1392.64,655.628,o),
(1392.64,716.67,q),
(1392.64,755.103,o),
(1372.3,834.23,o),
(1336.13,897.533,o),
(1290.91,938.227,o),
(1263.78,938.227,q),
(1254.74,938.227,o),
(1250.22,935.966,q),
(802.579,820.666,l),
(773.189,902.054,o),
(687.279,1049.01,o),
(614.934,1107.79,q),
(574.24,1139.44,o),
(517.72,1247.95,o),
(497.373,1311.26,q),
(298.424,1259.26,l),
(300.685,1214.04,o),
(336.857,1137.18,o),
(354.944,1107.79,q),
(363.987,1091.96,o),
(368.508,1076.13,o),
(368.508,1067.09,q),
(287.12,1001.53,o),
(174.081,831.97,o),
(103.996,635.281,o),
(70.084,420.506,o),
(70.084,309.728,q),
(70.084,223.818,o),
(90.431,58.781,o),
(144.69,0,q),
(203.471,9.043,o),
(318.771,24.869,o),
(379.812,38.433,q),
(352.683,61.041,o),
(316.51,131.126,o),
(296.163,207.992,o),
(287.12,284.859,o),
(287.12,311.989,q),
(287.12,400.159,o),
(327.814,612.673,o),
(391.116,800.319,o),
(470.244,924.662,o),
(508.677,924.662,q),
(581.022,856.838,o),
(628.499,657.889,o),
(639.803,553.893,q),
(648.846,483.808,o),
(657.889,336.857,o),
(678.236,198.949,o),
(718.93,74.606,o),
(757.364,27.129,q),
(764.146,20.347,o),
(789.015,2.261,o),
(798.058,0,q),
(1017.35,45.216,l),
(976.66,79.128,o),
(926.923,187.645,o),
(895.272,325.553,o),
(877.185,481.548,o),
(863.621,562.936,q),
(843.274,685.019,o),
(813.883,784.493,q)
);
},
{
closed = 1;
nodes = (
(1168.83,872.664,o),
(1202.74,825.187,o),
(1227.61,759.624,o),
(1241.17,687.279,o),
(1241.17,662.411,q),
(1241.17,628.499,o),
(1216.3,581.022,o),
(1184.65,581.022,q),
(1157.52,581.022,o),
(1119.09,628.499,o),
(1096.48,694.062,o),
(1087.44,766.407,o),
(1087.44,791.276,q),
(1087.44,822.927,o),
(1112.31,872.664,o),
(1146.22,872.664,q)
);
}
);
width = 1415;
}
);
unicode = 4622;
},
{
glyphname = uni120F;
layers = (
{
layerId = "F8A84F20-7B7B-45F5-903D-B244657892CC";
shapes = (
{
closed = 1;
nodes = (
(630.76,45.216,l),
(626.238,-22.608,o),
(583.283,-117.561,o),
(519.981,-176.341,o),
(436.332,-201.21,o),
(393.377,-201.21,q),
(348.161,-201.21,o),
(291.642,-187.645,o),
(273.555,-180.863,q),
(321.032,-144.69,o),
(339.118,-83.649,o),
(339.118,-47.477,q),
(339.118,-20.347,o),
(314.249,22.608,o),
(314.249,47.477,q),
(314.249,67.824,o),
(345.9,67.824,q),
(714.409,83.649,l),
(660.15,178.602,o),
(633.02,409.202,o),
(614.934,642.064,o),
(571.979,859.099,o),
(501.895,940.487,q),
(420.506,883.968,o),
(330.075,755.103,o),
(287.12,639.803,o),
(278.077,549.371,o),
(278.077,529.024,q),
(278.077,472.505,o),
(311.989,361.726,o),
(370.769,332.336,q),
(142.43,287.12,l),
(97.214,323.293,o),
(67.824,449.897,o),
(67.824,506.416,q),
(67.824,562.936,o),
(94.953,694.062,o),
(162.777,836.491,o),
(278.077,981.182,o),
(368.508,1051.27,q),
(318.771,1130.39,l),
(298.424,1164.31,o),
(264.512,1218.56,o),
(264.512,1263.78,q),
(463.461,1315.78,l),
(495.112,1243.43,o),
(562.936,1150.74,o),
(601.369,1119.09,q),
(685.019,1049.01,o),
(777.711,874.925,o),
(827.448,685.019,o),
(850.056,492.852,o),
(874.925,311.989,o),
(922.401,151.473,o),
(972.138,92.692,q),
(1297.69,106.257,l),
(1324.82,106.257,o),
(1324.82,83.649,q),
(1324.82,58.781,o),
(1306.74,13.565,o),
(1306.74,2.261,q),
(1309,-29.39,o),
(1365.52,-101.735,o),
(1392.64,-115.3,q),
(1374.56,-124.343,o),
(1322.56,-135.647,o),
(1275.08,-142.43,o),
(1238.91,-144.69,o),
(1236.65,-144.69,q),
(1148.48,-144.69,o),
(1042.22,-54.259,o),
(1010.57,61.041,q)
);
}
);
width = 1402;
}
);
unicode = 4623;
},
{
glyphname = uni1210;
layers = (
{
layerId = "F8A84F20-7B7B-45F5-903D-B244657892CC";
shapes = (
{
closed = 1;
nodes = (
(1232,-2,l),
(1164,23,o),
(1148,68,q),
(1142,90,o),
(1135,222,o),
(1135,292,q),
(1151,543,l),
(1151,647,o),
(1069,751,o),
(956,751,q),
(877,746,l),
(848,344,l),
(850,233,o),
(884,68,o),
(940,36,q),
(723,-2,l),
(662,20,o),
(644,66,q),
(635,81,o),
(628,213,o),
(628,289,q),
(653,714,l),
(567,714,o),
(439,644,o),
(350,531,o),
(305,384,o),
(305,303,q),
(305,192,l),
(305,136,o),
(335,61,o),
(380,29,q),
(158,-2,l),
(111,16,o),
(68,81,o),
(68,158,q),
(68,170,o),
(68,188,q),
(68,206,o),
(70,246,o),
(75,283,o),
(77,296,q),
(90,382,o),
(145,518,o),
(206,579,q),
(267,642,o),
(486,723,o),
(656,748,q),
(687,1081,l),
(687,1151,o),
(665,1228,o),
(622,1262,q),
(827,1314,l),
(886,1304,o),
(913,1216,o),
(913,1108,q),
(879,771,l),
(902,780,o),
(968,794,o),
(1033,800,o),
(1094,803,o),
(1115,803,q),
(1148,803,o),
(1234,778,o),
(1311,717,o),
(1366,613,o),
(1366,534,q),
(1354,339,l),
(1354,231,o),
(1395,68,o),
(1449,36,q)
);
}
);
width = 1517;
}
);
unicode = 4624;
},
{
glyphname = uni1211;
layers = (
{
layerId = "F8A84F20-7B7B-45F5-903D-B244657892CC";
shapes = (
{
closed = 1;
nodes = (
(1752.11,395.638,o),
(1659.42,384.334,q),
(1580.29,384.334,o),
(1471.77,474.765,o),
(1451.43,549.371,q),
(1360.99,515.459,l),
(1354.21,343.64,l),
(1356.47,235.122,o),
(1394.91,70.084,o),
(1449.16,38.433,q),
(1232.13,0,l),
(1166.57,24.869,o),
(1128.13,169.559,o),
(1128.13,275.816,q),
(1128.13,343.64,o),
(1143.96,467.983,o),
(1143.96,547.111,q),
(1143.96,651.107,o),
(1069.35,755.103,o),
(956.313,755.103,q),
(877.185,750.581,l),
(847.795,348.161,l),
(850.056,237.383,o),
(883.968,70.084,o),
(940.487,38.433,q),
(723.452,0,l),
(689.54,22.608,o),
(653.368,58.781,o),
(635.281,117.561,o),
(630.76,207.992,o),
(630.76,282.598,q),
(630.76,391.116,o),
(646.585,610.413,o),
(653.368,718.93,q),
(540.328,712.148,o),
(404.681,621.716,o),
(330.075,477.026,o),
(305.206,293.902,o),
(305.206,194.428,q),
(305.206,137.908,o),
(334.597,63.302,o),
(379.812,31.651,q),
(158.255,0,l),
(110.779,18.086,o),
(67.824,83.649,o),
(67.824,160.516,q),
(67.824,183.124,o),
(70.084,264.512,o),
(74.606,289.381,q),
(94.953,409.202,o),
(178.602,567.458,o),
(318.771,669.193,o),
(519.981,732.495,o),
(655.628,757.364,q),
(687.279,1085.18,l),
(687.279,1155.26,o),
(664.671,1232.13,o),
(621.716,1266.04,q),
(827.448,1318.04,l),
(886.229,1309,o),
(913.358,1220.83,o),
(913.358,1112.31,q),
(879.446,779.972,l),
(922.401,789.015,o),
(1049.01,807.101,o),
(1094.22,807.101,q),
(1114.57,807.101,l),
(1146.22,807.101,o),
(1229.87,773.189,o),
(1306.74,709.887,o),
(1358.73,617.195,o),
(1358.73,558.414,q),
(1358.73,556.154,l),
(1654.9,669.193,l),
(1672.98,664.671,o),
(1686.55,646.585,o),
(1686.55,623.977,q),
(1686.55,612.673,o),
(1691.07,567.458,o),
(1711.42,515.459,o),
(1758.89,465.722,o),
(1801.85,449.897,q)
);
}
);
width = 1820;
}
);
unicode = 4625;
},
{
glyphname = uni1212;
layers = (
{
layerId = "F8A84F20-7B7B-45F5-903D-B244657892CC";
shapes = (
{
closed = 1;
nodes = (
(1471.77,88.171,l),
(1469.51,90.431,o),
(1469.51,101.735,q),
(1469.51,128.865,o),
(1507.95,201.21,o),
(1553.16,212.514,q),
(1686.55,248.687,l),
(1682.03,230.6,o),
(1677.5,180.863,o),
(1677.5,171.82,q),
(1677.5,153.734,o),
(1688.81,106.257,o),
(1709.16,63.302,o),
(1743.07,29.39,o),
(1767.94,27.129,q),
(1700.11,9.043,o),
(1625.51,-11.304,o),
(1587.07,-20.347,o),
(1573.51,-22.608,o),
(1568.99,-22.608,q),
(1539.6,-22.608,o),
(1507.95,2.261,o),
(1492.12,31.651,o),
(1483.08,58.781,o),
(1478.55,61.041,q),
(1410.73,47.477,o),
(1272.82,4.522,o),
(1232.13,4.522,q),
(1200.48,24.869,o),
(1162.04,63.302,o),
(1141.7,115.3,o),
(1134.92,194.428,o),
(1134.92,257.73,q),
(1134.92,284.859,o),
(1139.44,361.726,o),
(1146.22,440.854,o),
(1150.74,513.199,o),
(1150.74,535.807,q),
(1150.74,646.585,o),
(1069.35,752.842,o),
(956.313,752.842,q),
(877.185,748.321,l),
(847.795,316.51,l),
(850.056,205.732,o),
(883.968,74.606,o),
(940.487,42.955,q),
(723.452,4.522,l),
(691.801,20.347,o),
(653.368,58.781,o),
(633.02,113.039,o),
(628.499,194.428,o),
(628.499,255.469,q),
(628.499,305.206,o),
(633.02,420.506,o),
(642.064,542.589,o),
(648.846,662.411,o),
(653.368,716.67,q),
(508.677,707.626,o),
(348.161,553.893,o),
(316.51,415.985,q),
(314.249,402.42,o),
(309.728,354.944,o),
(307.467,302.945,o),
(305.206,257.73,o),
(305.206,244.165,q),
(305.206,189.906,o),
(311.989,124.343,o),
(327.814,81.388,o),
(357.204,51.998,o),
(379.812,36.173,q),
(158.255,4.522,l),
(110.779,22.608,o),
(67.824,88.171,o),
(67.824,165.037,q),
(67.824,210.253,o),
(74.606,262.251,q),
(94.953,379.812,o),
(180.863,544.85,o),
(318.771,657.889,o),
(519.981,727.973,o),
(655.628,752.842,q),
(687.279,1082.92,l),
(687.279,1153,o),
(664.671,1229.87,o),
(621.716,1263.78,q),
(827.448,1315.78,l),
(886.229,1306.74,o),
(913.358,1218.56,o),
(913.358,1110.05,q),
(879.446,775.45,l),
(902.054,782.232,o),
(967.617,793.536,o),
(1033.18,800.319,o),
(1094.22,804.84,o),
(1114.57,804.84,q),
(1148.48,804.84,o),
(1234.39,779.972,o),
(1311.26,718.93,o),
(1365.52,614.934,o),
(1365.52,535.807,q),
(1365.52,463.461,o),
(1354.21,368.508,o),
(1354.21,311.989,q),
(1354.21,271.294,o),
(1358.73,185.385,o),
(1367.78,113.039,o),
(1383.6,65.563,o),
(1397.17,65.563,q)
);
}
);
width = 1784;
}
);
unicode = 4626;
},
{
glyphname = uni1213;
layers = (
{
layerId = "F8A84F20-7B7B-45F5-903D-B244657892CC";
shapes = (
{
closed = 1;
nodes = (
(1191.43,-4.522,l),
(1162.04,11.304,o),
(1128.13,42.955,o),
(1110.05,97.214,o),
(1105.52,178.602,o),
(1105.52,244.165,q),
(1105.52,284.859,o),
(1110.05,373.03,o),
(1116.83,454.418,o),
(1121.35,517.72,o),
(1121.35,535.807,q),
(1121.35,646.585,o),
(1039.96,752.842,o),
(926.923,752.842,q),
(847.795,748.321,l),
(845.534,723.452,o),
(836.491,614.934,o),
(827.448,492.852,o),
(820.666,379.812,o),
(820.666,350.422,q),
(820.666,316.51,o),
(847.795,246.426,o),
(888.489,228.34,q),
(669.193,189.906,l),
(653.368,192.167,o),
(626.238,228.34,o),
(605.891,280.338,o),
(594.587,341.379,o),
(594.587,370.769,q),
(623.977,723.452,l),
(619.456,723.452,l),
(531.285,723.452,o),
(409.202,653.368,o),
(334.597,544.85,o),
(300.685,413.724,o),
(300.685,352.683,q),
(300.685,318.771,o),
(327.814,244.165,o),
(357.204,226.079,q),
(144.69,194.428,l),
(106.257,210.253,o),
(67.824,302.945,o),
(67.824,354.944,q),
(67.824,415.985,o),
(108.518,538.067,o),
(228.34,648.846,o),
(447.636,734.756,o),
(626.238,757.364,q),
(657.889,1082.92,l),
(657.889,1153,o),
(635.281,1229.87,o),
(592.326,1263.78,q),
(798.058,1315.78,l),
(856.838,1306.74,o),
(883.968,1218.56,o),
(883.968,1110.05,q),
(850.056,779.972,l),
(872.664,786.754,o),
(935.966,795.797,o),
(1003.79,802.579,o),
(1064.83,804.84,o),
(1085.18,804.84,q),
(1119.09,804.84,o),
(1209.52,779.972,o),
(1290.91,718.93,o),
(1347.43,614.934,o),
(1347.43,535.807,q),
(1347.43,461.201,o),
(1336.13,352.683,o),
(1336.13,291.642,q),
(1336.13,183.124,o),
(1365.52,61.041,o),
(1419.77,29.39,q)
);
}
);
width = 1488;
}
);
unicode = 4627;
},
{
glyphname = uni1214;
layers = (
{
layerId = "F8A84F20-7B7B-45F5-903D-B244657892CC";
shapes = (
{
closed = 1;
nodes = (
(1562.2,302.945,o),
(1494.38,384.334,o),
(1451.43,388.855,q),
(1360.99,384.334,l),
(1360.99,198.949,o),
(1390.38,33.912,o),
(1435.6,33.912,q),
(1496.64,33.912,o),
(1562.2,108.518,o),
(1562.2,217.036,q)
);
},
{
closed = 1;
nodes = (
(1774.72,108.518,o),
(1641.33,-2.261,o),
(1539.6,-2.261,q),
(1514.73,-2.261,o),
(1469.51,6.782,o),
(1435.6,6.782,q),
(1390.38,6.782,o),
(1311.26,-11.304,o),
(1241.17,-11.304,q),
(1209.52,-11.304,o),
(1150.74,79.128,o),
(1150.74,149.212,q),
(1150.74,434.071,l),
(1150.74,495.112,o),
(1134.92,610.413,o),
(1094.22,698.583,o),
(1017.35,752.842,o),
(956.313,752.842,q),
(877.185,748.321,l),
(847.795,300.685,l),
(850.056,189.906,o),
(883.968,67.824,o),
(940.487,36.173,q),
(723.452,-2.261,l),
(689.54,15.825,o),
(651.107,49.737,o),
(633.02,101.735,o),
(628.499,183.124,o),
(628.499,248.687,q),
(628.499,296.163,o),
(633.02,411.463,o),
(642.064,535.807,o),
(648.846,662.411,o),
(653.368,716.67,q),
(581.022,712.148,o),
(456.679,621.716,o),
(363.987,495.112,o),
(309.728,352.683,o),
(309.728,298.424,q),
(309.728,266.773,o),
(314.249,187.645,o),
(330.075,110.779,o),
(357.204,45.216,o),
(379.812,29.39,q),
(158.255,-2.261,l),
(110.779,15.825,o),
(67.824,99.475,o),
(67.824,176.341,q),
(67.824,228.34,o),
(83.649,339.118,o),
(117.561,447.636,o),
(169.559,544.85,o),
(205.732,581.022,q),
(266.773,644.324,o),
(486.069,730.234,o),
(655.628,755.103,q),
(687.279,1082.92,l),
(687.279,1153,o),
(664.671,1229.87,o),
(621.716,1263.78,q),
(827.448,1315.78,l),
(886.229,1306.74,o),
(913.358,1218.56,o),
(913.358,1110.05,q),
(879.446,777.711,l),
(902.054,784.493,o),
(967.617,793.536,o),
(1033.18,800.319,o),
(1094.22,804.84,o),
(1114.57,804.84,q),
(1184.65,804.84,o),
(1279.61,743.799,o),
(1336.13,637.542,o),
(1360.99,495.112,o),
(1360.99,413.724,q),
(1408.47,420.506,o),
(1510.21,434.071,o),
(1555.42,434.071,q),
(1659.42,434.071,o),
(1774.72,327.814,o),
(1774.72,217.036,q)
);
}
);
width = 1775;
}
);
unicode = 4628;
},
{
glyphname = uni1215;
layers = (
{
layerId = "F8A84F20-7B7B-45F5-903D-B244657892CC";
shapes = (
{
closed = 1;
nodes = (
(1232.13,2.261,l),
(1175.61,18.086,o),
(1132.65,110.779,o),
(1132.65,217.036,q),
(1132.65,266.773,o),
(1137.18,341.379,o),
(1143.96,406.942,o),
(1150.74,472.505,o),
(1150.74,515.459,q),
(1150.74,619.456,o),
(1069.35,730.234,o),
(956.313,730.234,q),
(870.403,730.234,l),
(847.795,302.945,l),
(850.056,192.167,o),
(883.968,67.824,o),
(940.487,36.173,q),
(723.452,-2.261,l),
(694.062,13.565,o),
(657.889,45.216,o),
(637.542,99.475,o),
(628.499,183.124,o),
(628.499,248.687,q),
(628.499,357.204,o),
(648.846,587.805,o),
(655.628,698.583,q),
(567.458,698.583,o),
(434.071,619.456,o),
(343.64,492.852,o),
(298.424,332.336,o),
(298.424,250.947,q),
(298.424,196.688,o),
(307.467,128.865,o),
(325.553,83.649,o),
(357.204,51.998,o),
(379.812,36.173,q),
(158.255,4.522,l),
(110.779,22.608,o),
(67.824,88.171,o),
(67.824,165.037,q),
(67.824,273.555,o),
(133.386,479.287,o),
(205.732,551.632,q),
(266.773,614.934,o),
(486.069,709.887,o),
(662.411,734.756,q),
(680.497,1019.62,l),
(680.497,1062.57,o),
(639.803,1091.96,o),
(603.63,1091.96,q),
(296.163,1049.01,l),
(318.771,1069.35,o),
(343.64,1148.48,o),
(343.64,1180.13,q),
(343.64,1220.83,o),
(298.424,1268.3,o),
(262.251,1286.39,q),
(418.246,1313.52,l),
(504.156,1313.52,o),
(590.065,1268.3,o),
(608.152,1200.48,q),
(614.934,1168.83,o),
(614.934,1125.87,q),
(802.579,1157.52,l),
(854.578,1157.52,o),
(890.75,1082.92,o),
(890.75,1046.74,q),
(872.664,757.364,l),
(924.662,761.885,o),
(1069.35,775.45,o),
(1114.57,775.45,q),
(1148.48,775.45,o),
(1234.39,750.581,o),
(1311.26,689.54,o),
(1365.52,585.544,o),
(1365.52,506.416,q),
(1354.21,302.945,l),
(1354.21,194.428,o),
(1394.91,72.345,o),
(1449.16,40.694,q)
);
}
);
width = 1517;
}
);
unicode = 4629;
},
{
glyphname = uni1216;
layers = (
{
layerId = "F8A84F20-7B7B-45F5-903D-B244657892CC";
shapes = (
{
closed = 1;
nodes = (
(1232.13,189.906,l),
(1177.87,210.253,o),
(1141.7,282.598,o),
(1141.7,350.422,q),
(1141.7,409.202,o),
(1148.48,538.067,o),
(1148.48,605.891,q),
(1148.48,671.454,o),
(1067.09,752.842,o),
(958.574,752.842,q),
(872.664,748.321,l),
(854.578,497.373,l),
(856.838,382.073,o),
(886.229,257.73,o),
(940.487,228.34,q),
(723.452,189.906,l),
(669.193,210.253,o),
(621.716,293.902,o),
(621.716,359.465,q),
(621.716,379.812,o),
(623.977,422.767,o),
(630.76,497.373,o),
(642.064,619.456,o),
(653.368,718.93,q),
(565.197,718.93,o),
(431.81,633.02,o),
(343.64,495.112,o),
(300.685,327.814,o),
(300.685,246.426,q),
(300.685,192.167,o),
(307.467,122.083,o),
(323.293,76.867,o),
(354.944,45.216,o),
(379.812,29.39,q),
(158.255,-2.261,l),
(110.779,15.825,o),
(67.824,81.388,o),
(67.824,158.255,q),
(67.824,212.514,o),
(83.649,332.336,o),
(117.561,445.375,o),
(169.559,547.111,o),
(205.732,583.283,q),
(266.773,646.585,o),
(486.069,734.756,o),
(655.628,759.624,q),
(687.279,1085.18,l),
(687.279,1155.26,o),
(664.671,1232.13,o),
(621.716,1266.04,q),
(827.448,1318.04,l),
(886.229,1309,o),
(913.358,1220.83,o),
(913.358,1112.31,q),
(879.446,782.232,l),
(1069.35,795.797,l),
(1116.83,795.797,o),
(1223.09,777.711,o),
(1311.26,732.495,o),
(1370.04,662.411,o),
(1370.04,610.413,q),
(1370.04,565.197,o),
(1360.99,449.897,o),
(1360.99,397.899,q),
(1360.99,339.118,o),
(1401.69,257.73,o),
(1449.16,228.34,q)
);
}
);
width = 1517;
}
);
unicode = 4630;
},
